<?xml version="1.0" encoding="utf-8"?>
<!-- Generator: Adobe Illustrator 28.0.0, SVG Export Plug-In . SVG Version: 6.00 Build 0)  -->
<svg version="1.1" id="Warstwa_1" xmlns="http://www.w3.org/2000/svg" xmlns:xlink="http://www.w3.org/1999/xlink" x="0px" y="0px"
	 width="213px" height="79.8px" viewBox="0 0 213 79.8" style="enable-background:new 0 0 213 79.8;" xml:space="preserve">
<style type="text/css">
	.st0{fill:#2181b3;}
	.st1{fill:#084A96;}
	.st2{fill:#FFFFFF;}
	.st3{fill:#00336E;}
	.st4{font-family:'ArialMT';}
	.st5{font-size:12px;}
	.st6{fill:#0399A6;}
	.st7{font-size:13px;}
	.st8{font-size:9.0051px;}
	.st9{fill:#0099B5;}
	.st10{fill:#29C2C9;stroke:#000000;stroke-width:0.75;stroke-miterlimit:10;}
	.st11{fill:#334D4F;}
	.st12{fill:#75FFB0;}
	.st13{fill:#21CC8C;}
	.st14{fill:#056B45;}
</style>
<g>
	<polygon class="st0" points="66.2,63.1 0,63.1 0,28.3 0.8,28.3 0.8,62.3 66.2,62.3 	"/>
</g>
<g>
	<g>
		<path class="st1" d="M118.7,36.2v-1.7c0-0.6-0.5-1.2-1.2-1.2h-11.3c-0.2,0-0.3,0.1-0.3,0.3v2.6c0,0.2,0.1,0.3,0.3,0.3h12.1
			C118.5,36.6,118.7,36.4,118.7,36.2 M108.7,35.9h-2.2V34h2.2V35.9z M112.8,35.9h-3.5V34h3.5V35.9z M118,35.9h-4.5V34h4
			c0.3,0,0.5,0.2,0.5,0.5V35.9z"/>
	</g>
	<g>
		<path class="st1" d="M121.7,35.5l-1.1-0.9c-0.1-1.6-1.4-2.9-3-2.9h-13.2c-0.2,0-0.3,0.1-0.3,0.3v8.6c0,0.2,0.1,0.3,0.3,0.3h1.6
			c0.2,0.8,0.9,1.4,1.7,1.4c0.8,0,1.5-0.6,1.7-1.4h3.6c0.2,0,0.3-0.1,0.3-0.3s-0.1-0.3-0.3-0.3h-3.6c-0.2-0.8-0.9-1.4-1.7-1.4
			c-0.8,0-1.5,0.6-1.7,1.4h-1.2v-2.1h3.8c0.2,0,0.3-0.1,0.3-0.3s-0.1-0.3-0.3-0.3h-3.8v-5.1h12.8c1.3,0,2.4,1.1,2.4,2.4
			c0,0.1,0,0.2,0.1,0.3l1.1,0.9v1.6h-9.4c-0.2,0-0.3,0.1-0.3,0.3s0.1,0.3,0.3,0.3h9.4v2.1h-2.8c-0.2-0.8-0.9-1.4-1.7-1.4
			c-0.8,0-1.5,0.6-1.7,1.4h-0.8c-0.2,0-0.3,0.1-0.3,0.3s0.1,0.3,0.3,0.3h0.8c0.2,0.8,0.9,1.4,1.7,1.4c0.8,0,1.5-0.6,1.7-1.4h3.1
			c0.2,0,0.3-0.1,0.3-0.3v-4.8C121.8,35.7,121.7,35.6,121.7,35.5 M106.6,40.6c0-0.6,0.5-1.1,1.1-1.1s1.1,0.5,1.1,1.1
			s-0.5,1.1-1.1,1.1C107,41.6,106.6,41.2,106.6,40.6L106.6,40.6z M116.7,41.6c-0.6,0-1.1-0.5-1.1-1.1s0.5-1.1,1.1-1.1
			s1.1,0.5,1.1,1.1C117.7,41.2,117.2,41.6,116.7,41.6z"/>
	</g>
	<g>
		<path class="st1" d="M109.7,37.5c-0.2,0-0.3,0.1-0.3,0.3s0.1,0.3,0.3,0.3h0.9c0.2,0,0.3-0.1,0.3-0.3s-0.1-0.3-0.3-0.3H109.7z"/>
	</g>
	<g>
		<path class="st1" d="M107.6,40.9c0.1,0,0.2,0,0.2-0.1c0.1-0.1,0.1-0.1,0.1-0.2c0-0.1,0-0.2-0.1-0.2c-0.1-0.1-0.1-0.1-0.2-0.1
			s-0.2,0-0.2,0.1c-0.1,0.1-0.1,0.1-0.1,0.2c0,0.1,0,0.2,0.1,0.2C107.5,40.9,107.5,40.9,107.6,40.9"/>
	</g>
	<g>
		<path class="st1" d="M116.7,40.2c-0.1,0-0.2,0-0.2,0.1c-0.1,0.1-0.1,0.1-0.1,0.2c0,0.1,0,0.2,0.1,0.2c0.1,0.1,0.1,0.1,0.2,0.1
			s0.2,0,0.2-0.1c0.1-0.1,0.1-0.1,0.1-0.2c0-0.1,0-0.2-0.1-0.2C116.8,40.3,116.7,40.2,116.7,40.2"/>
	</g>
	<g>
		<g>
			<path class="st2" d="M115.6,47.6l4.8,2.7c0.1,0.1,0.2,0.1,0.3,0.2l4.5,2.6c1.7,1,2.6,2.7,2.6,4.5l0,0v11.1c0,2.1-1.3,3.9-3.1,4.8
				l-4.4,2.5l0,0l-4.8,2.8c-1.7,1-3.7,0.9-5.3,0l-4.7-2.8c-0.1-0.1-0.2-0.1-0.3-0.2l-4.5-2.6c-1.7-1-2.6-2.7-2.6-4.5l0,0V57.6
				c0-2.1,1.3-3.9,3.1-4.8l4.4-2.5l0,0l4.8-2.8C112,46.5,114,46.6,115.6,47.6z"/>
		</g>
		<g>
			<path class="st3" d="M112.9,79.8c-1,0-1.9-0.3-2.8-0.8l-4.8-2.7c-0.1-0.1-0.2-0.1-0.3-0.2l-4.5-2.6c-1.6-0.9-2.6-2.6-2.7-4.5l0,0
				v-0.3V57.6c0-2.2,1.3-4.1,3.2-5l9.2-5.3c1.7-1,3.9-1,5.6,0l4.8,2.7c0.1,0.1,0.2,0.1,0.3,0.2l4.5,2.6c1.6,0.9,2.6,2.6,2.7,4.5l0,0
				v0.3v11.1c0,2.2-1.3,4.1-3.2,5l-9.2,5.3C114.8,79.5,113.9,79.8,112.9,79.8z M98.3,68.4v0.3c0,1.8,0.9,3.4,2.5,4.3l4.5,2.6
				c0.1,0.1,0.2,0.1,0.3,0.2l4.8,2.7c1.5,0.9,3.5,0.9,5,0l9.2-5.3c1.8-0.8,2.9-2.6,2.9-4.5V57.6c0-1.8-0.9-3.4-2.5-4.3l-4.5-2.6
				c-0.1-0.1-0.2-0.1-0.3-0.2l-4.8-2.7c-1.5-0.9-3.5-0.9-5,0l-9.2,5.3c-1.8,0.8-2.9,2.6-2.9,4.5V68.4z"/>
		</g>
		<g>
			<path class="st3" d="M110.2,69.5c-0.1,0-0.1,0-0.2-0.1c-0.1,0-0.1-0.1-0.1-0.2v-2c0-0.3-0.1-0.6-0.3-0.8
				c-0.2-0.2-0.4-0.3-0.7-0.3c-0.3,0-0.5,0.1-0.7,0.3c-0.2,0.2-0.3,0.4-0.3,0.7h-0.4c0-0.3,0.1-0.6,0.2-0.8c0.1-0.2,0.3-0.4,0.5-0.5
				s0.4-0.2,0.7-0.2c0.3,0,0.5,0.1,0.7,0.2s0.4,0.3,0.5,0.6c0.1,0.2,0.2,0.5,0.2,0.8v2c0,0.1,0,0.1-0.1,0.2
				C110.3,69.5,110.2,69.5,110.2,69.5 M107.7,69.5c-0.1,0-0.1,0-0.2-0.1c0,0-0.1-0.1-0.1-0.2v-3.3c0-0.1,0-0.1,0.1-0.2
				c0-0.1,0.1-0.1,0.2-0.1s0.1,0,0.2,0.1c0,0.1,0.1,0.1,0.1,0.2v3.3c0,0.1,0,0.1-0.1,0.2C107.9,69.5,107.8,69.5,107.7,69.5z
				 M112.6,69.5c-0.1,0-0.1,0-0.2-0.1c-0.1,0-0.1-0.1-0.1-0.2v-2c0-0.3-0.1-0.6-0.3-0.8c-0.2-0.2-0.4-0.3-0.7-0.3
				c-0.3,0-0.5,0.1-0.7,0.3c-0.2,0.2-0.3,0.5-0.3,0.8h-0.5c0-0.3,0.1-0.6,0.2-0.8c0.1-0.2,0.3-0.4,0.5-0.6c0.2-0.1,0.5-0.2,0.8-0.2
				s0.5,0.1,0.7,0.2s0.4,0.3,0.5,0.6c0.1,0.2,0.2,0.5,0.2,0.8v2C112.7,69.3,112.7,69.3,112.6,69.5C112.7,69.5,112.6,69.5,112.6,69.5
				z"/>
		</g>
		<g>
			<path class="st3" d="M114.4,64.9c-0.1,0-0.2,0-0.3-0.1c-0.1-0.1-0.1-0.1-0.1-0.3c0-0.1,0-0.2,0.1-0.3c0.1-0.1,0.2-0.1,0.3-0.1
				c0.1,0,0.2,0,0.3,0.1c0.1,0.1,0.1,0.2,0.1,0.3c0,0.1,0,0.2-0.1,0.3C114.6,64.9,114.5,64.9,114.4,64.9 M114.4,69.5
				c-0.1,0-0.1,0-0.2-0.1c0,0-0.1-0.1-0.1-0.2v-3.3c0-0.1,0-0.2,0.1-0.2c0,0,0.1-0.1,0.2-0.1s0.1,0,0.2,0.1c0,0,0.1,0.1,0.1,0.2v3.3
				c0,0.1,0,0.2-0.1,0.2C114.5,69.5,114.4,69.5,114.4,69.5z"/>
		</g>
		<g>
			<path class="st3" d="M116.2,69.5c-0.1,0-0.1,0-0.2-0.1c0,0-0.1-0.1-0.1-0.2v-3.3c0-0.1,0-0.2,0.1-0.2c0,0,0.1-0.1,0.2-0.1
				s0.1,0,0.2,0.1c0,0,0.1,0.1,0.1,0.2v3.3c0,0.1,0,0.1-0.1,0.2C116.4,69.5,116.3,69.5,116.2,69.5 M119.2,69.5c-0.1,0-0.1,0-0.2-0.1
				s-0.1-0.1-0.1-0.2v-1.8c0-0.3-0.1-0.5-0.2-0.7s-0.3-0.3-0.4-0.4c-0.2-0.1-0.4-0.1-0.6-0.1s-0.4,0-0.6,0.1s-0.3,0.2-0.4,0.4
				c-0.1,0.2-0.2,0.3-0.2,0.5h-0.4c0-0.3,0.1-0.6,0.2-0.8c0.1-0.2,0.3-0.4,0.6-0.6c0.2-0.1,0.5-0.2,0.8-0.2s0.6,0.1,0.9,0.2
				s0.5,0.3,0.6,0.6s0.2,0.6,0.2,1v1.8c0,0.1,0,0.1-0.1,0.2C119.3,69.5,119.3,69.5,119.2,69.5z"/>
		</g>
		<text transform="matrix(1 0 0 1 110.2445 62.5757)" class="st3 st4 st5">2</text>
	</g>
</g>
<g>
	<g>
		<path class="st6" d="M150.5,41.7c0.6,0,1.1-0.5,1.1-1.1s-0.5-1.1-1.1-1.1s-1.1,0.5-1.1,1.1S149.9,41.7,150.5,41.7 M150.5,40.2
			c0.2,0,0.4,0.2,0.4,0.4s-0.2,0.4-0.4,0.4s-0.4-0.2-0.4-0.4S150.3,40.2,150.5,40.2z"/>
	</g>
	<g>
		<path class="st6" d="M159.8,39.6c-0.6,0-1.1,0.5-1.1,1.1s0.5,1.1,1.1,1.1s1.1-0.5,1.1-1.1C160.9,40,160.4,39.6,159.8,39.6
			 M159.8,41.1c-0.2,0-0.4-0.2-0.4-0.4s0.2-0.4,0.4-0.4s0.4,0.2,0.4,0.4C160.2,40.9,160.1,41.1,159.8,41.1z"/>
	</g>
	<g>
		<path class="st6" d="M163.8,36.2c-0.4-0.7-1.1-1-2-1h-2.5c-0.4-0.9-2.3-4.6-4.8-4.6h-7.7c-0.2,0-0.3,0.1-0.3,0.3v7.3
			c0,1.9,0,2.6,1.2,2.7c0.1,1.4,1.3,2.5,2.8,2.5c1.4,0,2.6-1.1,2.8-2.5h1.3c0.2,0,0.3-0.1,0.3-0.3s-0.1-0.3-0.3-0.3h-1.3
			c-0.2-1.4-1.4-2.5-2.8-2.5c-1.4,0-2.6,1.1-2.8,2.4c-0.5-0.1-0.5-0.3-0.5-2.1V37h4.5c0.2,0,0.3-0.1,0.3-0.3s-0.1-0.3-0.3-0.3h-4.5
			v-0.7h14.6c0.7,0,1.1,0.2,1.4,0.7h-8.8c-0.2,0-0.3,0.1-0.3,0.3s0.1,0.3,0.3,0.3h9c0.1,0.3,0.1,0.6,0.1,1.1c0,1.3,0,1.9-1,2
			c-0.2-1.4-1.4-2.4-2.8-2.4c-1.4,0-2.6,1.1-2.8,2.5h-1.4c-0.2,0-0.3,0.1-0.3,0.3s0.1,0.3,0.3,0.3h1.4c0.2,1.4,1.4,2.5,2.8,2.5
			c1.5,0,2.7-1.1,2.8-2.6c1.6-0.2,1.6-1.5,1.6-2.7C164.2,37.3,164.1,36.7,163.8,36.2 M150.5,38.5c1.2,0,2.1,1,2.1,2.1
			c0,1.2-1,2.1-2.1,2.1c-1.2,0-2.1-1-2.1-2.1C148.3,39.5,149.3,38.5,150.5,38.5z M152.1,35.1h-4.9v-3.9h4.9V35.1z M152.7,35.1v-3.9
			h1.8c1.8,0,3.5,2.8,4,3.9H152.7z M159.8,42.8c-1.2,0-2.1-1-2.1-2.1c0-1.2,1-2.1,2.1-2.1c1.2,0,2.1,1,2.1,2.1
			C162,41.8,161,42.8,159.8,42.8z"/>
	</g>
	<g>
		<path class="st6" d="M152.8,36.5c-0.2,0-0.3,0.1-0.3,0.3s0.1,0.3,0.3,0.3h0.6c0.2,0,0.3-0.1,0.3-0.3s-0.1-0.3-0.3-0.3H152.8z"/>
	</g>
	<g>
		<g>
			<path class="st2" d="M158,47.6l4.8,2.7c0.1,0.1,0.2,0.1,0.3,0.2l4.5,2.6c1.7,1,2.6,2.7,2.6,4.5l0,0v11.1c0,2.1-1.3,3.9-3.1,4.8
				l-4.4,2.5l0,0l-4.8,2.8c-1.7,1-3.7,0.9-5.3,0l-4.8-2.7c-0.1-0.1-0.2-0.1-0.3-0.2l-4.5-2.6c-1.7-1-2.6-2.7-2.6-4.5l0,0V57.6
				c0-2.1,1.3-3.9,3.1-4.8l4.4-2.5l0,0l4.8-2.8C154.4,46.5,156.5,46.6,158,47.6z"/>
		</g>
		<g>
			<path class="st6" d="M155.4,79.8c-1,0-1.9-0.3-2.8-0.8l-4.8-2.7c-0.1-0.1-0.2-0.1-0.3-0.2l-4.5-2.6c-1.6-0.9-2.6-2.6-2.7-4.5l0,0
				v-0.3V57.6c0-2.2,1.3-4.1,3.2-5l9.2-5.3c1.7-1,3.9-1,5.6,0l4.8,2.7c0.1,0.1,0.2,0.1,0.3,0.2l4.5,2.6c1.6,0.9,2.6,2.6,2.7,4.5l0,0
				v0.3v11.1c0,2.2-1.3,4.1-3.2,5l-9.2,5.3C157.3,79.5,156.3,79.8,155.4,79.8z M140.8,68.4v0.3c0,1.8,0.9,3.4,2.5,4.3l4.5,2.6
				c0.1,0.1,0.2,0.1,0.3,0.2l4.8,2.7c1.5,0.9,3.5,0.9,5,0l9.2-5.3c1.8-0.8,2.9-2.6,2.9-4.5V57.6c0-1.8-0.9-3.4-2.5-4.3l-4.5-2.6
				c-0.1-0.1-0.2-0.1-0.3-0.2l-4.8-2.7c-1.5-0.9-3.5-0.9-5,0l-9.2,5.3c-1.8,0.8-2.9,2.6-2.9,4.5C140.8,57.6,140.8,68.4,140.8,68.4z"
				/>
		</g>
		<g>
			<path class="st6" d="M152.6,69.5c-0.1,0-0.1,0-0.2-0.1c-0.1,0-0.1-0.1-0.1-0.2v-2c0-0.3-0.1-0.6-0.3-0.8
				c-0.2-0.2-0.4-0.3-0.7-0.3s-0.5,0.1-0.7,0.3c-0.2,0.2-0.3,0.4-0.3,0.7h-0.4c0-0.3,0.1-0.6,0.2-0.8c0.1-0.2,0.3-0.4,0.5-0.5
				s0.4-0.2,0.7-0.2s0.5,0.1,0.7,0.2s0.4,0.3,0.5,0.6c0.1,0.2,0.2,0.5,0.2,0.8v2c0,0.1,0,0.1-0.1,0.2
				C152.7,69.5,152.7,69.5,152.6,69.5 M150.2,69.5c-0.1,0-0.1,0-0.2-0.1c0,0-0.1-0.1-0.1-0.2v-3.3c0-0.1,0-0.1,0.1-0.2
				s0.1-0.1,0.2-0.1c0.1,0,0.1,0,0.2,0.1s0.1,0.1,0.1,0.2v3.3c0,0.1,0,0.1-0.1,0.2C150.3,69.5,150.3,69.5,150.2,69.5z M155,69.5
				c-0.1,0-0.1,0-0.2-0.1c-0.1,0-0.1-0.1-0.1-0.2v-2c0-0.3-0.1-0.6-0.3-0.8c-0.2-0.2-0.4-0.3-0.7-0.3s-0.5,0.1-0.7,0.3
				c-0.2,0.2-0.3,0.5-0.3,0.8h-0.5c0-0.3,0.1-0.6,0.2-0.8c0.1-0.2,0.3-0.4,0.5-0.6c0.2-0.1,0.5-0.2,0.8-0.2s0.5,0.1,0.7,0.2
				s0.4,0.3,0.5,0.6c0.1,0.2,0.2,0.5,0.2,0.8v2C155.1,69.3,155.1,69.3,155,69.5C155.2,69.5,155.1,69.5,155,69.5z"/>
		</g>
		<g>
			<path class="st6" d="M156.8,64.9c-0.1,0-0.2,0-0.3-0.1s-0.1-0.2-0.1-0.3c0-0.1,0-0.2,0.1-0.3c0.1-0.1,0.2-0.1,0.3-0.1
				s0.2,0,0.3,0.1s0.1,0.2,0.1,0.3c0,0.1,0,0.2-0.1,0.3C157,64.9,156.9,64.9,156.8,64.9 M156.8,69.5c-0.1,0-0.1,0-0.2-0.1
				c0,0-0.1-0.1-0.1-0.2v-3.3c0-0.1,0-0.2,0.1-0.2c0,0,0.1-0.1,0.2-0.1c0.1,0,0.1,0,0.2,0.1c0,0,0.1,0.1,0.1,0.2v3.3
				c0,0.1,0,0.2-0.1,0.2C157,69.5,156.9,69.5,156.8,69.5z"/>
		</g>
		<g>
			<path class="st6" d="M158.7,69.5c-0.1,0-0.1,0-0.2-0.1c0,0-0.1-0.1-0.1-0.2v-3.3c0-0.1,0-0.2,0.1-0.2c0,0,0.1-0.1,0.2-0.1
				c0.1,0,0.1,0,0.2,0.1c0,0,0.1,0.1,0.1,0.2v3.3c0,0.1,0,0.1-0.1,0.2C158.8,69.5,158.8,69.5,158.7,69.5 M161.7,69.5
				c-0.1,0-0.1,0-0.2-0.1c-0.1-0.1-0.1-0.1-0.1-0.2v-1.8c0-0.3-0.1-0.5-0.2-0.7c-0.1-0.2-0.3-0.3-0.4-0.4c-0.2-0.1-0.4-0.1-0.6-0.1
				c-0.2,0-0.4,0-0.6,0.1c-0.2,0.1-0.3,0.2-0.4,0.4c-0.1,0.2-0.2,0.3-0.2,0.5h-0.4c0-0.3,0.1-0.6,0.2-0.8c0.1-0.2,0.3-0.4,0.6-0.6
				c0.2-0.1,0.5-0.2,0.8-0.2s0.6,0.1,0.9,0.2c0.3,0.1,0.5,0.3,0.6,0.6c0.1,0.3,0.2,0.6,0.2,1v1.8c0,0.1,0,0.1-0.1,0.2
				C161.8,69.5,161.7,69.5,161.7,69.5z"/>
		</g>
	</g>
	<text transform="matrix(1 0 0 1 151.2077 62.7552)" class="st6 st4 st7">4</text>
</g>
<g>
	<g>
		<path class="st0" d="M192.1,42.7c1.7,0,3.1-1.4,3.1-3.1c0-0.1,0-0.2,0-0.3l0.6-0.1c0.2,0.4,0.6,0.6,1,0.6c0.6,0,1.1-0.5,1.1-1.1
			c0-0.1,0-0.2,0-0.3l3.6-2.2l0.4,0.8c-0.9,0.6-1.5,1.5-1.5,2.6c0,1.7,1.4,3.1,3.1,3.1c1.7,0,3.1-1.4,3.1-3.1c0-1.7-1.4-3.1-3.1-3.1
			c-0.4,0-0.7,0.1-1.1,0.2l-1.2-2.5l2.2-2.2c0.1-0.1,0.1-0.2,0.1-0.4c-0.1-0.1-0.2-0.2-0.3-0.2h-2.1c-0.2,0-0.3,0.1-0.3,0.3
			c0,0.2,0.1,0.3,0.3,0.3h1.3l-1.7,1.7h-1.8c-0.2,0-0.3,0.1-0.3,0.3s0.2,0.3,0.3,0.3h1.7l0.6,1.2l-3.7,2.3c-0.2-0.2-0.5-0.3-0.8-0.3
			l0,0l-1.1-3.1h1.2c0.2,0,0.3-0.1,0.3-0.3s-0.1-0.3-0.3-0.3h-1.5l-0.2-0.6h0.4c0.2,0,0.3-0.1,0.3-0.3s-0.2-0.3-0.3-0.3h-1.8
			c-0.2,0-0.3,0.1-0.3,0.3s0.1,0.3,0.3,0.3h0.7l0.3,0.8l-1.5,2.8c-0.4-0.2-0.8-0.2-1.2-0.2c-1.7,0-3.1,1.4-3.1,3.1
			C188.9,41.3,190.3,42.7,192.1,42.7 M203.3,39.7c0.1,0.1,0.2,0.2,0.3,0.2h0.1c0.2-0.1,0.2-0.3,0.2-0.4l-1.1-2.2
			c0.2-0.1,0.5-0.1,0.8-0.1c1.4,0,2.5,1.1,2.5,2.5s-1.1,2.5-2.5,2.5s-2.5-1.1-2.5-2.5c0-0.8,0.4-1.6,1.1-2L203.3,39.7z M196.8,38.1
			c0.3,0,0.5,0.2,0.5,0.5s-0.2,0.5-0.5,0.5s-0.5-0.2-0.5-0.5S196.5,38.1,196.8,38.1z M195.1,34.7l1,3c-0.3,0.2-0.4,0.5-0.5,0.8
			l-0.6,0.1c-0.2-0.7-0.6-1.2-1.2-1.6L195.1,34.7z M193.5,37.6c0.4,0.3,0.7,0.7,0.9,1.2l-1.7,0.3L193.5,37.6z M192.1,37.1
			c0.3,0,0.6,0.1,0.9,0.2l-1.2,2.1c-0.1,0.1-0.1,0.3,0,0.4c0.1,0.1,0.2,0.1,0.3,0.1c0,0,0,0,0.1,0l2.4-0.5c0,0.1,0,0.1,0,0.2
			c0,1.4-1.1,2.5-2.5,2.5s-2.5-1.1-2.5-2.5C189.6,38.2,190.7,37.1,192.1,37.1z"/>
	</g>
	<g>
		<path class="st0" d="M192.1,41.1c0.3,0,0.5-0.1,0.7-0.2c0.2-0.1,0.2-0.3,0.1-0.5c-0.1-0.2-0.3-0.2-0.5-0.1
			c-0.1,0.1-0.3,0.1-0.4,0.1c-0.4,0-0.8-0.3-0.9-0.8c0-0.2-0.2-0.3-0.4-0.3s-0.3,0.2-0.3,0.4C190.6,40.6,191.3,41.1,192.1,41.1"/>
	</g>
	<g>
		<path class="st0" d="M190.8,39.2c0.1,0,0.1,0,0.2,0c0.1,0,0.2-0.1,0.3-0.2l0,0c0.1-0.2,0.1-0.4-0.1-0.5c-0.2-0.1-0.4-0.1-0.5,0.1
			v0.1C190.6,38.9,190.7,39.1,190.8,39.2"/>
	</g>
	<g>
		<path class="st0" d="M204.1,41h0.1c0.7-0.3,1.1-1.1,0.9-1.8c-0.1-0.3-0.2-0.5-0.4-0.7c-0.1-0.1-0.3-0.2-0.5,0
			c-0.1,0.1-0.2,0.3,0,0.5c0.1,0.1,0.2,0.2,0.2,0.4c0.1,0.4-0.1,0.9-0.5,1.1c-0.2,0.1-0.2,0.3-0.2,0.4C203.8,41,203.9,41,204.1,41"
			/>
	</g>
	<g>
		<path class="st0" d="M203,41C203,41,203,41.1,203,41c0.1,0,0.2,0,0.2,0c0.1,0,0.3-0.1,0.3-0.2c0.1-0.2,0-0.4-0.2-0.4
			c0,0,0,0-0.1,0c-0.2-0.1-0.4,0-0.4,0.2C202.7,40.8,202.8,41,203,41"/>
	</g>
	<g>
		<path class="st0" d="M197.8,34.3h0.2c0.2,0,0.3-0.1,0.3-0.3s-0.1-0.3-0.3-0.3h-0.2c-0.2,0-0.3,0.1-0.3,0.3S197.6,34.3,197.8,34.3"
			/>
	</g>
	<g>
		<path class="st0" d="M200.1,32h0.1c0.2,0,0.3-0.1,0.3-0.3c0-0.2-0.1-0.3-0.3-0.3h-0.1c-0.2,0-0.3,0.1-0.3,0.3
			C199.8,31.8,199.9,32,200.1,32"/>
	</g>
	<g>
		<g>
			<path class="st2" d="M200.5,47.6l4.8,2.7c0.1,0.1,0.2,0.1,0.3,0.2l4.5,2.6c1.7,1,2.6,2.7,2.6,4.5l0,0v11.1c0,2.1-1.3,3.9-3.1,4.8
				l-4.4,2.5l0,0l-4.8,2.8c-1.7,1-3.7,0.9-5.3,0l-4.8-2.7c-0.1-0.1-0.2-0.1-0.3-0.2l-4.5-2.6c-1.7-1-2.6-2.7-2.6-4.5l0,0V57.6
				c0-2.1,1.3-3.9,3.1-4.8l4.4-2.5l0,0l4.8-2.8C196.9,46.5,198.9,46.6,200.5,47.6z"/>
		</g>
		<g>
			<path class="st0" d="M197.8,79.8c-1,0-1.9-0.3-2.8-0.8l-4.8-2.7c-0.1-0.1-0.2-0.1-0.3-0.2l-4.5-2.6c-1.6-0.9-2.6-2.6-2.7-4.5l0,0
				v-0.3V57.6c0-2.2,1.3-4.1,3.2-5l9.2-5.3c1.7-1,3.9-1,5.6,0l4.8,2.7c0.1,0.1,0.2,0.1,0.3,0.2l4.5,2.6c1.6,0.9,2.6,2.6,2.7,4.5l0,0
				v0.3v11.1c0,2.1-1.3,4.1-3.2,5l-9.2,5.3C199.7,79.5,198.8,79.8,197.8,79.8z M183.3,68.4v0.3c0,1.8,0.9,3.4,2.5,4.3l4.5,2.6
				c0.1,0.1,0.2,0.1,0.3,0.2l4.8,2.7c1.5,0.9,3.5,0.9,5,0l9.2-5.3c1.8-0.8,2.9-2.6,2.9-4.5V57.6c0-1.8-0.9-3.4-2.5-4.3l-4.5-2.6
				c-0.1-0.1-0.2-0.1-0.3-0.2l-4.8-2.7c-1.5-0.9-3.5-0.9-5,0l-9.2,5.3c-1.8,0.8-2.9,2.6-2.9,4.5V68.4z"/>
		</g>
		<g>
			<path class="st0" d="M195.1,69.5c-0.1,0-0.1,0-0.2-0.1c-0.1,0-0.1-0.1-0.1-0.2v-2c0-0.3-0.1-0.6-0.3-0.8
				c-0.2-0.2-0.4-0.3-0.7-0.3s-0.5,0.1-0.7,0.3c-0.2,0.2-0.3,0.4-0.3,0.7h-0.4c0-0.3,0.1-0.6,0.2-0.8c0.1-0.2,0.3-0.4,0.5-0.5
				s0.5-0.2,0.7-0.2c0.3,0,0.5,0.1,0.7,0.2s0.4,0.3,0.5,0.6c0.1,0.2,0.2,0.5,0.2,0.8v2c0,0.1,0,0.1-0.1,0.2
				C195.2,69.5,195.1,69.5,195.1,69.5 M192.6,69.5c-0.1,0-0.1,0-0.2-0.1c0,0-0.1-0.1-0.1-0.2v-3.3c0-0.1,0-0.1,0.1-0.2
				c0-0.1,0.1-0.1,0.2-0.1c0.1,0,0.1,0,0.2,0.1c0,0.1,0.1,0.1,0.1,0.2v3.3c0,0.1,0,0.1-0.1,0.2C192.8,69.5,192.7,69.5,192.6,69.5z
				 M197.5,69.5c-0.1,0-0.1,0-0.2-0.1c-0.1,0-0.1-0.1-0.1-0.2v-2c0-0.3-0.1-0.6-0.3-0.8c-0.2-0.2-0.4-0.3-0.7-0.3s-0.5,0.1-0.7,0.3
				c-0.2,0.2-0.3,0.5-0.3,0.8h-0.5c0-0.3,0.1-0.6,0.2-0.8c0.1-0.2,0.3-0.4,0.5-0.6c0.2-0.1,0.5-0.2,0.8-0.2s0.5,0.1,0.7,0.2
				s0.4,0.3,0.5,0.6c0.1,0.2,0.2,0.5,0.2,0.8v2C197.6,69.3,197.6,69.3,197.5,69.5C197.6,69.5,197.5,69.5,197.5,69.5z"/>
		</g>
		<g>
			<path class="st0" d="M199.3,64.9c-0.1,0-0.2,0-0.3-0.1s-0.1-0.2-0.1-0.3c0-0.1,0-0.2,0.1-0.3c0.1-0.1,0.2-0.1,0.3-0.1
				s0.2,0,0.3,0.1s0.1,0.2,0.1,0.3c0,0.1,0,0.2-0.1,0.3C199.5,64.9,199.4,64.9,199.3,64.9 M199.3,69.5c-0.1,0-0.1,0-0.2-0.1
				c0,0-0.1-0.1-0.1-0.2v-3.3c0-0.1,0-0.2,0.1-0.2c0,0,0.1-0.1,0.2-0.1c0.1,0,0.1,0,0.2,0.1c0,0,0.1,0.1,0.1,0.2v3.3
				c0,0.1,0,0.2-0.1,0.2C199.4,69.5,199.4,69.5,199.3,69.5z"/>
		</g>
		<g>
			<path class="st0" d="M201.2,69.5c-0.1,0-0.1,0-0.2-0.1c0,0-0.1-0.1-0.1-0.2v-3.3c0-0.1,0-0.2,0.1-0.2c0,0,0.1-0.1,0.2-0.1
				c0.1,0,0.1,0,0.2,0.1c0,0,0.1,0.1,0.1,0.2v3.3c0,0.1,0,0.1-0.1,0.2C201.3,69.5,201.2,69.5,201.2,69.5 M204.1,69.5
				c-0.1,0-0.1,0-0.2-0.1c-0.1-0.1-0.1-0.1-0.1-0.2v-1.8c0-0.3-0.1-0.5-0.2-0.7c-0.1-0.2-0.3-0.3-0.4-0.4c-0.2-0.1-0.4-0.1-0.6-0.1
				c-0.2,0-0.4,0-0.6,0.1c-0.2,0.1-0.3,0.2-0.4,0.4c-0.1,0.2-0.2,0.3-0.2,0.5H201c0-0.3,0.1-0.6,0.2-0.8c0.1-0.2,0.3-0.4,0.6-0.6
				c0.2-0.1,0.5-0.2,0.8-0.2s0.6,0.1,0.9,0.2c0.3,0.1,0.5,0.3,0.6,0.6s0.2,0.6,0.2,1v1.8C204.3,69.3,204.3,69.3,204.1,69.5
				C204.2,69.5,204.2,69.5,204.1,69.5z"/>
		</g>
		<text transform="matrix(1 0 0 1 193.7863 62.7552)" class="st0 st4 st7">4</text>
	</g>
</g>
<g>
	<path class="st0" d="M16.9,0c-4.4,0-8,3.6-8,8s8,14.7,8,14.7s8-10.3,8-14.7C24.8,3.6,21.3,0,16.9,0 M16.9,11.9
		c-2.2,0-3.9-1.8-3.9-3.9c0-2.2,1.8-3.9,3.9-3.9C19,4,20.8,5.8,20.8,8C20.8,10.1,19,11.9,16.9,11.9z"/>
</g>
<text transform="matrix(1 0 0 1 8.3903 35.1343)" class="st0 st4 st8">Title POI</text>
<text transform="matrix(1 0 0 1 8.7145 54.0779)" class="st3 st4 st8">Named</text>
<path class="st9" d="M-62.6,0.1c-4.4,0-8,3.6-8,8c0,4.4,8,14.7,8,14.7s8-10.3,8-14.7C-54.6,3.7-58.2,0.1-62.6,0.1 M-62.6,12
	c-2.2,0-3.9-1.8-3.9-3.9c0-2.2,1.8-3.9,3.9-3.9c2.2,0,3.9,1.8,3.9,3.9C-58.7,10.2-60.4,12-62.6,12z"/>
<path class="st10" d="M-137,51.2c-4.4,0-8,3.6-8,8c0,4.4,8,14.7,8,14.7s8-10.3,8-14.7C-129,54.8-132.6,51.2-137,51.2 M-137,63.1
	c-2.2,0-3.9-1.8-3.9-3.9c0-2.2,1.8-3.9,3.9-3.9c2.2,0,3.9,1.8,3.9,3.9C-133.1,61.4-134.8,63.1-137,63.1z"/>
<path class="st11" d="M-62.6,153.9c-4.4,0-8,3.6-8,8c0,4.4,8,14.7,8,14.7s8-10.3,8-14.7C-54.6,157.4-58.2,153.9-62.6,153.9
	 M-62.6,165.8c-2.2,0-3.9-1.8-3.9-3.9c0-2.2,1.8-3.9,3.9-3.9c2.2,0,3.9,1.8,3.9,3.9C-58.7,164-60.4,165.8-62.6,165.8z"/>
<path class="st3" d="M-62.6,230.8c-4.4,0-8,3.6-8,8c0,4.4,8,14.7,8,14.7s8-10.3,8-14.7C-54.6,234.3-58.2,230.8-62.6,230.8
	 M-62.6,242.7c-2.2,0-3.9-1.8-3.9-3.9c0-2.2,1.8-3.9,3.9-3.9c2.2,0,3.9,1.8,3.9,3.9C-58.7,240.9-60.4,242.7-62.6,242.7z"/>
<path class="st12" d="M-301.2,0.1c-4.4,0-8,3.6-8,8c0,4.4,8,14.7,8,14.7s8-10.3,8-14.7C-293.2,3.7-296.8,0.1-301.2,0.1 M-301.2,12
	c-2.2,0-3.9-1.8-3.9-3.9c0-2.2,1.8-3.9,3.9-3.9c2.2,0,3.9,1.8,3.9,3.9C-297.3,10.2-299,12-301.2,12z"/>
<path class="st0" d="M-301.2,77c-4.4,0-8,3.6-8,8c0,4.4,8,14.7,8,14.7s8-10.3,8-14.7C-293.2,80.5-296.8,77-301.2,77 M-301.2,88.9
	c-2.2,0-3.9-1.8-3.9-3.9c0-2.2,1.8-3.9,3.9-3.9c2.2,0,3.9,1.8,3.9,3.9C-297.3,87.1-299,88.9-301.2,88.9z"/>
<path class="st13" d="M-301.2,153.9c-4.4,0-8,3.6-8,8c0,4.4,8,14.7,8,14.7s8-10.3,8-14.7C-293.2,157.4-296.8,153.9-301.2,153.9
	 M-301.2,165.8c-2.2,0-3.9-1.8-3.9-3.9c0-2.2,1.8-3.9,3.9-3.9c2.2,0,3.9,1.8,3.9,3.9C-297.3,164-299,165.8-301.2,165.8z"/>
<path class="st14" d="M-301.2,230.8c-4.4,0-8,3.6-8,8c0,4.4,8,14.7,8,14.7s8-10.3,8-14.7C-293.2,234.3-296.8,230.8-301.2,230.8
	 M-301.2,242.7c-2.2,0-3.9-1.8-3.9-3.9c0-2.2,1.8-3.9,3.9-3.9c2.2,0,3.9,1.8,3.9,3.9C-297.3,240.9-299,242.7-301.2,242.7z"/>
</svg>
