<?xml version="1.0" encoding="utf-8"?>
<!-- Generator: Adobe Illustrator 28.0.0, SVG Export Plug-In . SVG Version: 6.00 Build 0)  -->
<svg version="1.1" id="Warstwa_1" xmlns="http://www.w3.org/2000/svg" xmlns:xlink="http://www.w3.org/1999/xlink" x="0px" y="0px"
	 viewBox="0 0 19.1 21" style="enable-background:new 0 0 19.1 21;" xml:space="preserve">
<style type="text/css">
	.st0{fill:#FFFFFF;}
	.st1{fill:#FFFFFF;stroke:#4FB15D;stroke-width:0.57;stroke-miterlimit:22.93;}
	.st2{fill:#4FB15D;}
</style>
<path class="st0" d="M11.2,0.7l3,1.7c0.1,0,0.1,0.1,0.2,0.1l2.8,1.6c1,0.6,1.6,1.7,1.6,2.8l0,0V14c0,1.3-0.8,2.5-1.9,3l-2.7,1.6l0,0
	l-3,1.7c-1.1,0.6-2.3,0.6-3.3,0l-3-1.7c-0.1,0-0.1-0.1-0.2-0.1l-2.8-1.6c-1-0.6-1.6-1.7-1.6-2.8l0,0V7c0-1.3,0.8-2.5,1.9-3l2.7-1.6
	l0,0l3-1.7C9,0.1,10.3,0.2,11.2,0.7L11.2,0.7z"/>
<path class="st1" d="M11.2,0.7l3,1.7c0.1,0,0.1,0.1,0.2,0.1l2.8,1.6c1,0.6,1.6,1.7,1.6,2.8l0,0V14c0,1.3-0.8,2.5-1.9,3l-2.7,1.6l0,0
	l-3,1.7c-1.1,0.6-2.3,0.6-3.3,0l-3-1.7c-0.1,0-0.1-0.1-0.2-0.1l-2.8-1.6c-1-0.6-1.6-1.7-1.6-2.8l0,0V7c0-1.3,0.8-2.5,1.9-3l2.7-1.6
	l0,0l3-1.7C9,0.1,10.3,0.2,11.2,0.7L11.2,0.7z"/>
<path class="st2" d="M8,6.9H7.8c0,0,0,0-0.1,0c-0.1-0.1-0.1-0.2,0-0.3C7.8,6.5,7.9,6.4,8,6.5l0.1,0.1c0.1,0.1,0.1,0.2,0.1,0.3
	C8.2,7,8.1,7,8,6.9"/>
<path class="st2" d="M11.6,12.2c0.1-0.1,0.2-0.1,0.3,0l0.3,0.3c0.1,0.1,0.1,0.2,0,0.3s-0.2,0.1-0.3,0l-0.3-0.3
	C11.5,12.5,11.5,12.3,11.6,12.2"/>
<path class="st2" d="M12.3,13c0.1-0.1,0.2-0.1,0.3,0l1.2,1.2l0.3-0.3l-2.3-4.1c-0.4,0.3-0.8,0.7-1.2,1.1l0.8,0.8
	c0.1,0.1,0.1,0.2,0,0.3s-0.2,0.1-0.3,0l-0.8-0.8c-0.1,0.1-0.2,0.2-0.4,0.3c-0.7,0.6-1.2,1.1-1.7,1.4l0.5,1.9c0,0.1,0,0.2-0.1,0.2
	L8,15.6c-0.1,0-0.1,0.1-0.2,0c-0.1,0-0.1,0-0.1-0.1l0,0l-1-1.4c-0.4,0.2-0.6,0.2-0.7,0.1c-0.2-0.2-0.2-0.5,0-0.8l-1.4-1l0,0
	l-0.1-0.1c0-0.1,0-0.1,0-0.2l0.4-0.5c0.1-0.1,0.2-0.1,0.2-0.1L7,11.9c0.4-0.5,0.9-1.1,1.5-1.7C8.6,10,8.7,9.9,8.8,9.8L5.3,6.3
	c-0.1,0-0.1-0.2,0-0.3l0.6-0.6c0.1-0.1,0.2-0.1,0.3,0l1.3,0.7c0.1,0.1,0.2,0.2,0.1,0.3S7.3,6.6,7.2,6.5L6.1,5.9L5.8,6.2l3.3,3.3
	C9.5,9,9.8,8.6,10.2,8.2L8.6,7.3c0,0,0,0-0.1,0C8.4,7.2,8.4,7.1,8.5,7s0.2-0.2,0.3-0.1l1.7,1c0.5-0.6,0.9-1,0.9-1l0,0
	c0.6-0.6,1.5-0.7,2-0.2s0.4,1.4-0.2,2l0,0c0,0-0.4,0.4-1,0.9l2.4,4.3c0.1,0.1,0,0.2,0,0.3L14,14.7c-0.1,0.1-0.2,0.1-0.3,0l-1.4-1.4
	C12.2,13.2,12.2,13.1,12.3,13 M5.2,11.9L5,12.1L6.2,13c0.1-0.1,0.2-0.3,0.3-0.5c0.1-0.1,0.1-0.1,0.2-0.2L5.2,11.9L5.2,11.9z M13.1,7
	c-0.3-0.3-0.9-0.2-1.3,0.2c-0.1,0.1-1.4,1.5-2.8,3.1C7.4,12,6.8,13,6.5,13.4l0,0l0,0c-0.1,0.1-0.1,0.2-0.1,0.3
	c0.1,0,0.2-0.1,0.3-0.1l0,0l0,0c0.5-0.3,1.4-0.9,3.2-2.5c1.5-1.3,3-2.7,3.1-2.8C13.3,7.9,13.4,7.3,13.1,7L13.1,7z M7.8,13.3
	c-0.1,0.1-0.2,0.1-0.2,0.2c-0.2,0.1-0.3,0.2-0.5,0.3L8,15l0.2-0.2L7.8,13.3L7.8,13.3z"/>
<path class="st2" d="M12.5,14c0.1,0.1,0.1,0.2,0,0.3L12,14.9c-0.1,0.1-0.2,0.1-0.3,0s-0.1-0.2,0-0.3l0.6-0.6
	C12.3,13.9,12.4,13.9,12.5,14"/>
<path class="st2" d="M11.5,15.1c0.1,0.1,0.1,0.2,0,0.3l-0.1,0.1c-0.1,0.1-0.2,0.1-0.3,0s-0.1-0.2,0-0.3l0.1-0.1
	C11.2,15,11.4,15,11.5,15.1"/>
<path class="st2" d="M6.8,8.6c0.1-0.1,0.2-0.1,0.3,0s0.1,0.2,0,0.3L6.3,9.8C6.2,9.9,6,9.9,5.9,9.8s-0.1-0.2,0-0.3L6.8,8.6z"/>
<path class="st2" d="M5.8,10c0.1,0.1,0.1,0.2,0,0.3l-0.3,0.3c-0.1,0.1-0.2,0.1-0.3,0s-0.1-0.2,0-0.3L5.5,10C5.6,9.9,5.7,9.9,5.8,10"
	/>
<path class="st2" d="M11.1,12.9c0.1-0.1,0.2-0.1,0.3,0s0.1,0.2,0,0.3l-0.9,0.9c-0.1,0.1-0.2,0.1-0.3,0s-0.1-0.2,0-0.3L11.1,12.9z"/>
<path class="st2" d="M10.1,14.2c0.1,0.1,0.1,0.2,0,0.3l-0.3,0.3c-0.1,0.1-0.2,0.1-0.3,0s-0.1-0.2,0-0.3l0.3-0.3
	C9.8,14.2,10,14.2,10.1,14.2"/>
<path class="st2" d="M5.7,7.5c0.1-0.1,0.2-0.1,0.3,0s0.1,0.2,0,0.3L5.4,8.4c-0.1,0.1-0.2,0.1-0.3,0S5,8.2,5.1,8.1L5.7,7.5z"/>
<path class="st2" d="M5,8.6c0.1,0.1,0.1,0.2,0,0.3L4.9,9C4.8,9.1,4.6,9.1,4.6,9s-0.1-0.2,0-0.3l0.1-0.1C4.7,8.5,4.9,8.5,5,8.6"/>
</svg>
