<?xml version="1.0" encoding="utf-8"?>
<!-- Generator: Adobe Illustrator 28.0.0, SVG Export Plug-In . SVG Version: 6.00 Build 0)  -->
<svg version="1.1" id="Warstwa_1" xmlns="http://www.w3.org/2000/svg" xmlns:xlink="http://www.w3.org/1999/xlink" x="0px" y="0px"
	 viewBox="0 0 19.1 21" style="enable-background:new 0 0 19.1 21;" xml:space="preserve">
<style type="text/css">
	.st0{fill:#FFFFFF;stroke:#4FB15D;stroke-width:0.57;stroke-miterlimit:22.93;}
	.st1{fill:#4FB15D;}
</style>
<path class="st0" d="M11.2,0.7l3,1.7c0.1,0,0.1,0.1,0.2,0.1l2.8,1.6c1,0.6,1.6,1.7,1.6,2.8l0,0V14c0,1.3-0.8,2.5-1.9,3l-2.7,1.6l0,0
	l-3,1.7c-1.1,0.6-2.3,0.6-3.3,0l-3-1.7c-0.1,0-0.1-0.1-0.2-0.1l-2.8-1.6c-1-0.6-1.6-1.7-1.6-2.8l0,0V7c0-1.3,0.8-2.5,1.9-3l2.7-1.6
	l0,0l3-1.7C9,0.1,10.3,0.2,11.2,0.7L11.2,0.7z"/>
<g>
	<path class="st1" d="M4.7,15.3c1.4,0,2.6-1.2,2.6-2.6c0-0.1,0-0.2,0-0.2l0.5-0.1c0.2,0.3,0.5,0.5,0.8,0.5c0.5,0,1-0.4,1-1
		c0-0.1,0-0.2,0-0.2l3-1.9l0.3,0.7c-0.7,0.5-1.2,1.3-1.2,2.2c0,1.4,1.2,2.6,2.6,2.6s2.6-1.2,2.6-2.6S15.8,10,14.4,10
		c-0.3,0-0.6,0.1-0.9,0.2l-1-2.1l1.8-1.8c0.1-0.1,0.1-0.2,0.1-0.3c0-0.1-0.1-0.2-0.3-0.2h-1.8c-0.1,0-0.3,0.1-0.3,0.3
		s0.1,0.3,0.3,0.3h1.1L12,7.7h-1.5c-0.1,0-0.3,0.1-0.3,0.3c0,0.2,0.1,0.3,0.3,0.3h1.4l0.5,1l-3.1,1.9C9.1,11.1,8.9,11,8.7,11l0,0
		l-1-2.8h1C8.9,8.2,9,8.1,9,7.9c0-0.2-0.1-0.3-0.3-0.3H7.5L7.4,7.2h0.4C7.9,7.2,8,7,8,6.9S7.9,6.6,7.7,6.6H6.2
		C6,6.6,5.9,6.7,5.9,6.9S6,7.2,6.2,7.2h0.6L7,7.9l-1.3,2.3c-0.3-0.1-0.6-0.2-1-0.2c-1.4,0-2.6,1.2-2.6,2.6S3.3,15.3,4.7,15.3
		 M14.1,12.8c0.1,0.1,0.1,0.2,0.2,0.2h0.1c0.1-0.1,0.2-0.2,0.1-0.4l-0.9-1.8c0.2-0.1,0.4-0.1,0.6-0.1c1.1,0,2.1,0.9,2.1,2.1
		s-0.9,2.1-2.1,2.1s-2.1-0.9-2.1-2.1c0-0.7,0.4-1.3,0.9-1.7L14.1,12.8L14.1,12.8z M8.7,11.4c0.2,0,0.4,0.2,0.4,0.4s-0.2,0.4-0.4,0.4
		S8.3,12,8.3,11.8S8.4,11.4,8.7,11.4z M7.2,8.6l0.9,2.5c-0.2,0.2-0.4,0.4-0.4,0.7l-0.5,0.1c-0.2-0.6-0.5-1-1-1.4L7.2,8.6L7.2,8.6z
		 M6,11c0.3,0.2,0.6,0.6,0.7,1l-1.4,0.3L6,11z M4.7,10.6c0.3,0,0.5,0.1,0.7,0.1l-1,1.8c-0.1,0.1,0,0.2,0,0.3s0.1,0.1,0.2,0.1
		c0,0,0,0,0.1,0l2-0.4v0.1c0,1.1-0.9,2.1-2.1,2.1s-2.1-0.9-2.1-2.1S3.6,10.6,4.7,10.6L4.7,10.6z"/>
	<path class="st1" d="M4.7,14c0.2,0,0.4-0.1,0.6-0.2c0.1-0.1,0.2-0.2,0.1-0.4c-0.1-0.1-0.2-0.2-0.4-0.1c-0.1,0.1-0.2,0.1-0.4,0.1
		c-0.4,0-0.7-0.3-0.8-0.6c0-0.1-0.2-0.2-0.3-0.2c-0.2,0-0.2,0.2-0.2,0.3C3.5,13.5,4.1,14,4.7,14"/>
	<path class="st1" d="M3.7,12.3c0,0,0.1,0,0.2,0c0.1,0,0.2-0.1,0.2-0.1l0,0c0.1-0.1,0.1-0.3-0.1-0.4c-0.1-0.1-0.3-0.1-0.4,0.1
		c0,0,0,0,0,0.1C3.5,12.1,3.5,12.2,3.7,12.3"/>
	<path class="st1" d="M14.8,13.9h0.1c0.6-0.2,0.9-0.9,0.8-1.5c-0.1-0.2-0.1-0.4-0.3-0.6c-0.1-0.1-0.3-0.1-0.4,0
		c-0.1,0.1-0.1,0.3,0,0.4c0.1,0.1,0.1,0.2,0.2,0.3c0.1,0.4-0.1,0.7-0.4,0.9c-0.1,0.1-0.2,0.2-0.1,0.4C14.6,13.8,14.7,13.9,14.8,13.9
		"/>
	<path class="st1" d="M13.9,13.9L13.9,13.9c0.1,0,0.1,0,0.2,0c0.1,0,0.2-0.1,0.3-0.2c0.1-0.1,0-0.3-0.2-0.3l0,0
		c-0.1-0.1-0.3,0-0.4,0.2C13.7,13.7,13.8,13.8,13.9,13.9"/>
	<path class="st1" d="M9.5,8.3h0.2C9.9,8.3,10,8.1,10,8c0-0.2-0.1-0.3-0.3-0.3H9.5C9.4,7.7,9.3,7.8,9.3,8C9.3,8.1,9.4,8.3,9.5,8.3"
		/>
	<path class="st1" d="M11.5,6.3L11.5,6.3c0.2,0,0.4-0.1,0.4-0.3s-0.1-0.3-0.3-0.3h-0.1c-0.1,0-0.3,0.1-0.3,0.3S11.3,6.3,11.5,6.3"/>
</g>
</svg>
