<?xml version="1.0" encoding="utf-8"?>
<!-- Generator: Adobe Illustrator 28.0.0, SVG Export Plug-In . SVG Version: 6.00 Build 0)  -->
<svg version="1.1" id="Warstwa_1" xmlns="http://www.w3.org/2000/svg" xmlns:xlink="http://www.w3.org/1999/xlink" x="0px" y="0px"
	 viewBox="0 0 19.1 21" style="enable-background:new 0 0 19.1 21;" xml:space="preserve">
<style type="text/css">
	.st0{fill:#FFFFFF;stroke:#4FB15D;stroke-width:0.57;stroke-miterlimit:22.93;}
	.st1{fill:#4FB15D;}
</style>
<path class="st0" d="M11.2,0.7l3,1.7c0.1,0,0.1,0.1,0.2,0.1l2.8,1.6c1,0.6,1.6,1.7,1.6,2.8l0,0V14c0,1.3-0.8,2.5-1.9,3l-2.7,1.6l0,0
	l-3,1.7c-1.1,0.6-2.3,0.6-3.3,0l-3-1.7c-0.1,0-0.1-0.1-0.2-0.1l-2.8-1.6c-1-0.6-1.6-1.7-1.6-2.8l0,0V7c0-1.3,0.8-2.5,1.9-3l2.7-1.6
	l0,0l3-1.7C9,0.1,10.3,0.2,11.2,0.7L11.2,0.7z"/>
<path class="st1" d="M14.4,7.6H14V6.1c0-0.5-0.4-1-1-1H6.1c-0.5,0-1,0.4-1,1v1.5H4.7C4.2,7.6,3.9,8,3.9,8.4v1.5h0.5V8.4
	c0-0.1,0.1-0.3,0.3-0.3h0.5v6.4c0,0.3,0.2,0.6,0.5,0.7v0.4c0,0.4,0.3,0.7,0.7,0.7h1.1c0.4,0,0.7-0.3,0.7-0.7v-0.4H11v0.4
	c0,0.4,0.3,0.7,0.7,0.7h1.1c0.4,0,0.7-0.3,0.7-0.7v-0.4c0.3-0.1,0.5-0.3,0.5-0.7V8.2h0.5c0.1,0,0.3,0.1,0.3,0.3V10h0.5V8.4
	C15.2,8,14.9,7.6,14.4,7.6 M5.7,7.4h3.6v4H5.7V7.4z M7.6,15.7c0,0.1-0.1,0.2-0.2,0.2H6.3c-0.1,0-0.2-0.1-0.2-0.2v-0.4h1.5
	C7.6,15.3,7.6,15.7,7.6,15.7z M13,15.7c0,0.1-0.1,0.2-0.2,0.2h-1.1c-0.1,0-0.2-0.1-0.2-0.2v-0.4H13V15.7z M13.4,14.6
	c0,0.1-0.1,0.2-0.2,0.2H5.8c-0.1,0-0.2-0.1-0.2-0.2v-2.7h7.8C13.4,11.9,13.4,14.6,13.4,14.6z M13.4,11.3H9.8v-4h3.6V11.3z M13.4,6.8
	H5.7V6.1c0-0.2,0.2-0.4,0.4-0.4H13c0.2,0,0.4,0.2,0.4,0.4V6.8z"/>
</svg>
