<?xml version="1.0" encoding="utf-8"?>
<!-- Generator: Adobe Illustrator 28.0.0, SVG Export Plug-In . SVG Version: 6.00 Build 0)  -->
<svg version="1.1" id="Warstwa_1" xmlns="http://www.w3.org/2000/svg" xmlns:xlink="http://www.w3.org/1999/xlink" x="0px" y="0px"
	 viewBox="0 0 19.1 21" style="enable-background:new 0 0 19.1 21;" xml:space="preserve">
<style type="text/css">
	.st0{fill:#FFFFFF;stroke:#4FB15D;stroke-width:0.57;stroke-miterlimit:22.93;}
	.st1{fill:#4FB15D;}
</style>
<path class="st0" d="M11.2,0.7l3,1.7c0.1,0,0.1,0.1,0.2,0.1l2.8,1.6c0.5,0.3,1.6,2,1.6,2.8l0,0V14c0,1.3-0.8,2.5-1.9,3l-2.7,1.6l0,0
	l-3,1.7c-1.1,0.6-2.3,0.6-3.3,0l-3-1.7c-0.1,0-0.1-0.1-0.2-0.1l-2.8-1.6c-1-0.6-1.6-1.7-1.6-2.8l0,0V7c0-1.3,0.8-2.5,1.9-3l2.7-1.6
	l0,0l3-1.7C9,0.1,10.3,0.2,11.2,0.7L11.2,0.7z"/>
<g>
	<path class="st1" d="M6,13.9c0.4,0,0.8-0.4,0.8-0.8S6.4,12.3,6,12.3s-0.8,0.4-0.8,0.8S5.6,13.9,6,13.9"/>
	<path class="st1" d="M12.8,12.3c-0.4,0-0.8,0.4-0.8,0.8c0,0.4,0.4,0.8,0.8,0.8s0.8-0.4,0.8-0.8S13.2,12.3,12.8,12.3"/>
	<path class="st1" d="M15.7,9.9c-0.3-0.5-0.8-0.8-1.5-0.8h-1.8C12.1,8.4,10.8,5.8,9,5.8H3.3C3.2,5.8,3.1,5.9,3.1,6v5.3
		c0,1.4,0,1.9,0.9,2c0.1,1,1,1.8,2,1.8s1.9-0.8,2-1.8h1c0.1,0,0.2-0.1,0.2-0.2S9.1,12.9,9,12.9H8c-0.1-1-1-1.8-2-1.8s-1.9,0.8-2,1.8
		c-0.4,0-0.4-0.2-0.4-1.5v-0.8h3.3c0.1,0,0.2-0.1,0.2-0.2c0-0.1-0.1-0.2-0.2-0.2H3.6V9.6h10.7c0.5,0,0.8,0.2,1,0.5H8.9
		c-0.1,0-0.2,0.1-0.2,0.2c0,0.1,0.1,0.2,0.2,0.2h6.6c0,0.2,0.1,0.5,0.1,0.8c0,0.9,0,1.4-0.7,1.5c-0.1-1-1-1.7-2-1.7s-1.9,0.8-2,1.8
		h-1c-0.1,0-0.2,0.1-0.2,0.2c0,0.1,0.1,0.2,0.2,0.2h1c0.1,1,1,1.8,2,1.8s1.9-0.8,2-1.9c1.2-0.1,1.2-1.1,1.2-2
		C16,10.7,15.9,10.2,15.7,9.9 M6,11.6c0.9,0,1.6,0.7,1.6,1.6c0,0.9-0.7,1.6-1.6,1.6S4.4,14,4.4,13.1S5.1,11.6,6,11.6z M7.1,9.1H3.6
		V6.3h3.6L7.1,9.1L7.1,9.1z M7.6,9.1V6.3h1.3c1.3,0,2.5,2,2.9,2.9L7.6,9.1L7.6,9.1z M12.8,14.7c-0.9,0-1.6-0.7-1.6-1.6
		s0.7-1.6,1.6-1.6s1.6,0.7,1.6,1.6S13.7,14.7,12.8,14.7z"/>
	<path class="st1" d="M7.7,10.1c-0.1,0-0.2,0.1-0.2,0.2c0,0.1,0.1,0.2,0.2,0.2h0.5c0.1,0,0.2-0.1,0.2-0.2c0-0.1-0.1-0.2-0.2-0.2
		S7.7,10.1,7.7,10.1z"/>
</g>
</svg>
