<?xml version="1.0" encoding="utf-8"?>
<!-- Generator: Adobe Illustrator 28.0.0, SVG Export Plug-In . SVG Version: 6.00 Build 0)  -->
<svg version="1.1" id="Warstwa_1" xmlns="http://www.w3.org/2000/svg" xmlns:xlink="http://www.w3.org/1999/xlink" x="0px" y="0px"
	 width="19.1px" height="21px" viewBox="0 0 19.1 21" style="enable-background:new 0 0 19.1 21;" xml:space="preserve">
<style type="text/css">
	.st0{fill:#FFFFFF;stroke:#4FB15D;stroke-width:0.57;stroke-miterlimit:22.93;}
	.st1{fill:#4FB15D;}
</style>
<path class="st0" d="M11.2,0.7l3,1.7c0.1,0,0.1,0.1,0.2,0.1l2.8,1.6c1,0.6,1.6,1.7,1.6,2.8l0,0V14c0,1.3-0.8,2.5-1.9,3l-2.7,1.6l0,0
	l-3,1.7c-1.1,0.6-2.3,0.6-3.3,0l-3-1.7c-0.1,0-0.1-0.1-0.2-0.1l-2.8-1.6c-1-0.6-1.6-1.7-1.6-2.8l0,0V7c0-1.3,0.8-2.5,1.9-3l2.7-1.6
	l0,0l3-1.7C9,0.1,10.3,0.2,11.2,0.7L11.2,0.7z"/>
<g id="DjfjFP_00000141423938570545773710000007240864367112145282_">
	<g>
		<g>
			<path class="st1" d="M9.5,8.2c0.3,0,0.7,0,1,0c0.3,0,0.4,0.1,0.4,0.4c0,0.3,0,0.7,0,1c0,0.3,0,0.3,0.3,0.3c0.3,0,0.7,0,1,0
				c0.4,0,0.5,0.1,0.5,0.5c0,0.6,0,1.3,0,1.9c0,0.4-0.1,0.5-0.5,0.5c-0.3,0-0.6,0-0.9,0c-0.3,0-0.4,0-0.4,0.3c0,0.3,0,0.7,0,1
				c0,0.3,0,0.4-0.3,0.4c-0.7,0-1.4,0-2.2,0c-0.3,0-0.3,0-0.3-0.3c0-0.4,0-0.7,0-1.1c0-0.3,0-0.3-0.3-0.3c-0.4,0-0.7,0-1.1,0
				c-0.3,0-0.4-0.1-0.4-0.4c0-0.7,0-1.4,0-2.2c0-0.2,0.1-0.4,0.4-0.4c0.3,0,0.7,0,1,0c0.4,0,0.4,0,0.4-0.4c0-0.3,0-0.7,0-1
				c0-0.3,0.1-0.4,0.4-0.4C8.8,8.2,9.2,8.2,9.5,8.2z M11.9,11.4c0-0.2,0-0.4,0-0.6c0-0.2,0-0.3-0.3-0.3c-0.3,0-0.7,0-1,0
				c-0.3,0-0.3,0-0.3-0.3c0-0.3,0-0.6,0-1c0-0.2,0-0.2-0.3-0.2c-0.4,0-0.7,0-1.1,0c-0.2,0-0.3,0-0.3,0.3c0,0.3,0,0.6,0,0.9
				c0,0.3,0,0.3-0.3,0.3c-0.3,0-0.7,0-1,0c-0.2,0-0.2,0-0.2,0.2c0,0.4,0,0.8,0,1.2c0,0.2,0,0.2,0.2,0.2c0.3,0,0.6,0,0.9,0
				c0.4,0,0.4,0,0.4,0.4c0,0.3,0,0.6,0,0.9c0,0.2,0,0.2,0.2,0.2c0.3,0,0.7,0,1,0c0.3,0,0.3,0,0.3-0.3c0-0.3,0-0.6,0-0.8
				c0-0.3,0-0.4,0.4-0.4c0.3,0,0.6,0,0.9,0c0.3,0,0.3,0,0.3-0.3C11.9,11.7,11.9,11.6,11.9,11.4z"/>
			<path class="st1" d="M9.5,4.9C9.5,5,9.4,5,9.3,5.1c-2,1.1-4.1,2.2-6.1,3.3C3.1,8.5,3,8.5,2.9,8.6c-0.2,0.1-0.3,0-0.4-0.1
				c-0.1-0.2,0-0.3,0.2-0.4c0,0,0.1,0,0.1-0.1C4.9,6.8,7,5.6,9.2,4.4c0.3-0.2,0.5-0.1,0.8,0c2.1,1.2,4.3,2.4,6.4,3.5
				c0.1,0,0.2,0.1,0.2,0.2c0.1,0.1,0.1,0.2,0,0.3c-0.1,0.1-0.2,0.2-0.3,0.1c-0.1,0-0.2-0.1-0.4-0.2c-2-1.1-4.1-2.2-6.1-3.3
				C9.8,5,9.7,5,9.5,4.9z"/>
			<path class="st1" d="M4.9,14.1c0.7,0,1.3,0,1.9,0c0.1,0,0.2,0,0.3,0c0.1,0,0.3,0.1,0.2,0.3c0,0.1-0.1,0.2-0.2,0.3
				c-0.1,0-0.2,0-0.3,0c-0.7,0-1.4,0-2,0c-0.4,0-0.5-0.1-0.5-0.5c0-1.8,0-3.7,0-5.5c0-0.3,0.1-0.5,0.3-0.4c0.2,0,0.3,0.1,0.3,0.4
				c0,1.6,0,3.3,0,4.9C4.9,13.7,4.9,13.9,4.9,14.1z"/>
			<path class="st1" d="M14.2,14c0-0.2,0-0.3,0-0.4c0-1.6,0-3.2,0-4.8c0-0.1,0-0.2,0-0.3c0-0.1,0.1-0.2,0.3-0.2
				c0.2,0,0.3,0.1,0.3,0.2c0,0.1,0,0.2,0,0.3c0,1.8,0,3.6,0,5.4c0,0.5-0.1,0.5-0.5,0.5c-0.7,0-1.3,0-2,0c-0.3,0-0.5-0.1-0.5-0.3
				c0-0.2,0.1-0.3,0.5-0.3c0.5,0,1,0,1.5,0C14,14.1,14.1,14,14.2,14z"/>
		</g>
	</g>
</g>
</svg>
