<?xml version="1.0" encoding="utf-8"?>
<!-- Generator: Adobe Illustrator 28.0.0, SVG Export Plug-In . SVG Version: 6.00 Build 0)  -->
<svg version="1.1" id="Warstwa_1" xmlns="http://www.w3.org/2000/svg" xmlns:xlink="http://www.w3.org/1999/xlink" x="0px" y="0px"
	 viewBox="0 0 19.1 21" style="enable-background:new 0 0 19.1 21;" xml:space="preserve">
<style type="text/css">
	.st0{fill:#FFFFFF;stroke:#4FB15D;stroke-width:0.57;stroke-miterlimit:22.93;}
	.st1{fill:none;stroke:#4FB15D;stroke-width:0.4;stroke-miterlimit:22.93;}
	.st2{fill:#4FB15D;stroke:#4FB15D;stroke-width:0.3;stroke-miterlimit:10;}
	.st3{fill:#4FB15D;}
</style>
<path class="st0" d="M11.2,0.7l3,1.7c0.1,0,0.1,0.1,0.2,0.1l2.8,1.6c1,0.6,1.6,1.7,1.6,2.8l0,0V14c0,1.3-0.8,2.5-1.9,3l-2.7,1.6l0,0
	l-3,1.7c-1.1,0.6-2.3,0.6-3.3,0l-3-1.7c-0.1,0-0.1-0.1-0.2-0.1l-2.8-1.6c-1-0.6-1.6-1.7-1.6-2.8l0,0V7c0-1.3,0.8-2.5,1.9-3l2.7-1.6
	l0,0l3-1.7C9,0.1,10.3,0.2,11.2,0.7L11.2,0.7z"/>
<g>
	<g>
		<path class="st1" d="M13.5,10c0,1,0,1.9,0,2.9c0,0.9-0.7,1.5-1.5,1.5c-1.7,0-3.4,0-5.2,0c-0.9,0-1.5-0.7-1.5-1.5
			c0-1.9,0-3.8,0-5.8c0-0.9,0.7-1.5,1.5-1.5c1.7,0,3.4,0,5.2,0c0.9,0,1.5,0.7,1.5,1.5c0,0.5,0,1,0,1.4C13.5,9,13.5,9.5,13.5,10z
			 M12,12.4c0-0.6-1-0.6-1,0C11,13.1,12,13.1,12,12.4z M6.7,12.4c0,0.6,1,0.6,1,0C7.7,11.8,6.7,11.8,6.7,12.4z"/>
		<path class="st1" d="M7.9,15.1c-0.1,0.2-0.2,0.4-0.2,0.6c1.1,0,2.3,0,3.4,0c-0.1-0.2-0.2-0.4-0.2-0.6c0.2,0,0.5,0,0.7,0
			c0.1,0,0.1,0,0.2,0.1c0.1,0.1,0.1,0.3,0.2,0.4c0.1,0.2,0.2,0.5,0.3,0.7c0.1,0.2,0.2,0.5,0.3,0.7c-0.2,0-0.3,0-0.5,0
			c-0.1,0-0.3,0-0.4,0c-0.2-0.1-0.1-0.5-0.4-0.6c-0.3,0-0.7,0-1,0c-0.3,0-0.6,0-0.9,0c-0.6,0-1.3,0-1.9,0c-0.2,0-0.2,0.1-0.2,0.2
			c0,0.1-0.1,0.3-0.2,0.3C7,17,6.8,17,6.7,17c-0.1,0-0.3,0-0.4,0c0.2-0.5,0.4-1,0.6-1.4c0.1-0.2,0.1-0.5,0.3-0.5
			C7.4,15,7.7,15.1,7.9,15.1z"/>
	</g>
	<path class="st2" d="M2,9.8c0.1-2.4,1.2-4.5,3.5-6c1.3-0.8,2.7-1.2,4.2-1.1c2.3,0.1,4.1,1.1,5.5,2.9c1.1,1.4,1.6,3,1.5,4.8
		c-0.1,1.9-0.8,3.5-2.1,4.9c0,0,0,0,0,0c-0.1,0.1-0.2,0.1-0.3,0c-0.1-0.1-0.1-0.2,0-0.3c0.2-0.2,0.3-0.3,0.5-0.5
		c0.9-1.1,1.4-2.3,1.5-3.7c0.2-2.5-0.7-4.6-2.7-6.2c-1.1-0.9-2.4-1.3-3.8-1.4c-2.6-0.2-5,1.1-6.4,3.3c-0.9,1.4-1.2,3-0.9,4.6
		c0.2,1.5,0.9,2.8,1.9,3.9c0,0,0,0,0,0c0.1,0.1,0.1,0.2,0,0.3c-0.1,0.1-0.2,0.1-0.3,0c-0.2-0.2-0.3-0.3-0.5-0.5
		C2.6,13.3,2,11.8,2,9.8z"/>
</g>
<path class="st3" d="M9.4,6.6c0.3,0,0.6,0,0.9,0c0.2,0,0.5,0.1,0.5-0.2c0-0.3-0.5-0.2-0.6-0.2c-0.3,0-0.6,0-0.9,0
	c-0.3,0-0.6,0-0.9,0c-0.2,0-0.5-0.1-0.5,0.2c0,0.3,0.4,0.2,0.6,0.2C8.8,6.6,9.1,6.6,9.4,6.6z"/>
<path class="st3" d="M12.6,8.7c0-0.4,0-0.7,0-1.1c0-0.3-0.2-0.4-0.5-0.4c-0.5,0-1.1,0-1.6,0c-0.3,0-0.5,0.1-0.5,0.4
	c0,0.7,0,1.5,0,2.2c0,0.2,0.2,0.4,0.5,0.4c0.6,0,1.1,0,1.7,0c0.3,0,0.5-0.2,0.5-0.4C12.6,9.4,12.6,9.1,12.6,8.7z"/>
<path class="st3" d="M8.8,8.7c0-0.4,0-0.7,0-1.1c0-0.2-0.2-0.4-0.5-0.4c-0.6,0-1.1,0-1.7,0c-0.3,0-0.5,0.2-0.5,0.4
	c0,0.7,0,1.5,0,2.2c0,0.2,0.2,0.4,0.5,0.4c0.5,0,1.1,0,1.6,0c0.3,0,0.5-0.2,0.5-0.4C8.8,9.4,8.8,9.1,8.8,8.7z"/>
</svg>
