<svg width="81.5" height="104"
    xmlns="http://www.w3.org/2000/svg" xml:space="preserve" version="1.1">
    <defs>
        <filter height="200%" width="200%" y="-50%" x="-50%" id="svg_1_blur">
            <feGaussianBlur stdDeviation="8.5" in="SourceGraphic"/>
        </filter>
        <filter id="f_multiply" filterUnits="objectBoundingBox" y="-50%" x="-50%" width="100%" height="100%">
            <feBlend in="SourceGraphic" mode="multiply"/>
            <feBlend in="SourceGraphic" mode="multiply"/>
        </filter>
    </defs>
    <g>
        <title>Layer 1</title>
        <g stroke="null" filter="url(#svg_1_blur)" id="svg_1" >
            <g stroke="null" id="svg_2" >
                <g stroke="null" id="svg_4">
                    <path stroke="null" id="svg_5" fill="#e23f" d="m47.29246,3.99098l12.47859,7.11889c0.27325,0.18023 0.45542,0.27034 0.72868,0.45056l11.841,6.75844c4.37206,2.52315 6.83134,7.02878 6.83134,11.71463l0.09108,0l0,28.836c0,5.49686 -3.27905,10.18271 -8.01544,12.34541l-11.47666,6.57821l0,0l-12.47859,7.11889l-7.19568,18.0225l-7.28677,-18.20273l-12.02317,-6.84855c-0.27325,-0.18023 -0.45542,-0.27034 -0.72868,-0.45056l-11.841,-6.75844c-4.37206,-2.52315 -6.83134,-7.02878 -6.83134,-11.71463l-0.09108,0l0,-28.836c0,-5.49686 3.27905,-10.18271 8.01544,-12.34541l11.47666,-6.57821l0,0l12.66076,-7.209c4.37206,-2.61326 9.65497,-2.43304 13.84486,0z" class="st0"/>
                </g>
            </g>
            <path stroke="#0FCF5E" id="svg_6" stroke-miterlimit="22.9256" stroke-width="0.5669" fill="none" d="m47.29246,3.99098l12.47859,7.11889c0.27325,0.18023 0.45542,0.27034 0.72868,0.45056l11.841,6.75844c4.37206,2.52315 6.83134,7.02878 6.83134,11.71463l0.09108,0l0,28.836c0,5.49686 -3.27905,10.18271 -8.01544,12.34541l-11.47666,6.57821l0,0l-12.47859,7.11889l-7.19568,18.0225l-7.28677,-18.20273l-12.02317,-6.84855c-0.27325,-0.18023 -0.45542,-0.27034 -0.72868,-0.45056l-11.841,-6.75844c-4.37206,-2.52315 -6.83134,-7.02878 -6.83134,-11.71463l-0.09108,0l0,-28.836c0,-5.49686 3.27905,-10.18271 8.01544,-12.34541l11.47666,-6.57821l0,0l12.66076,-7.209c4.37206,-2.61326 9.65497,-2.43304 13.84486,0z" class="st1"/>
            <g stroke="null" id="Warstwa_x0020_1_00000015356525321727355720000013085500051422461322_">
                <polygon stroke="null" id="svg_7" fill="#FFFFFF" points="49.29631805419922,48.776892037355935 49.29631805419922,59.32005675589647 57.58500671386719,64.00591090715255 57.58500671386719,44.0009289845529 " class="st0"/>
                <polygon stroke="null" id="svg_8" fill="#30CF79" points="40.2789421081543,74.0083855900852 49.29631805419922,68.78187395995559 49.29631805419922,48.776892037355935 57.58500671386719,44.0009289845529 57.58500671386719,64.00591090715255 65.96480560302734,59.32005675589647 65.96480560302734,29.943378739560046 54.67031478881836,36.34137120326881 40.2789421081543,44.63171978252416 " class="st2"/>
                <polygon stroke="null" id="svg_9" fill="#30CF79" points="22.881784439086914,44.0009289845529 22.881784439086914,64.00591090715255 31.26156997680664,59.32005675589647 31.26156997680664,48.776892037355935 " class="st2"/>
                <polygon stroke="null" id="svg_10" fill="#FFFFFF" points="22.881784439086914,44.0009289845529 31.26156997680664,48.776892037355935 31.26156997680664,68.78187395995559 40.2789421081543,74.0083855900852 40.2789421081543,44.63171978252416 14.593090057373047,29.943378739560046 14.593090057373047,59.32005675589647 22.881784439086914,64.00591090715255 " class="st0"/>
                <path stroke="null" id="svg_11" fill="#58F9A2" d="m31.35266,29.94338l8.83521,-5.0463l8.83521,5.0463l-8.83521,5.0463l-8.83521,-5.0463zm34.61215,0l0,0l-25.68586,-14.59823l-25.68586,14.59823l25.68586,14.68834l14.39137,-8.29035l11.29449,-6.39799z" class="st3"/>
                <polygon stroke="null" id="svg_12" fill="#30CF79" points="40.2789421081543,24.897078808136655 31.352649688720703,29.943378739560046 40.2789421081543,34.98968477537113 " class="st2"/>
                <polygon stroke="null" id="svg_13" fill="#FFFFFF" points="49.11415100097656,29.943378739560046 40.2789421081543,24.897078808136655 40.2789421081543,34.98968477537113 " class="st0"/>
            </g>
        </g>
        <g stroke="null" id="svg_26">
            <g stroke="null" id="svg_16">
                <g stroke="null" id="svg_15">
                    <path stroke="null" id="svg_14" fill="#FFFFFF" d="m46.36772,16.06504l7.08754,4.08697c0.1552,0.10347 0.25867,0.15521 0.41387,0.25868l6.7254,3.88003c2.48323,1.44855 3.88004,4.03525 3.88004,6.72541l0.05174,0l0,16.55484c0,3.15577 -1.86242,5.84593 -4.55258,7.08754l-6.51847,3.77657l0,0l-7.08754,4.08698l-4.08698,10.34678l-4.13871,-10.45025l-6.82887,-3.93177c-0.1552,-0.10347 -0.25867,-0.15521 -0.41387,-0.25868l-6.7254,-3.88004c-2.48323,-1.44855 -3.88004,-4.03524 -3.88004,-6.7254l-0.05173,0l0,-16.55484c0,-3.15577 1.86242,-5.84593 4.55258,-7.08754l6.51847,-3.77657l0,0l7.19101,-4.13871c2.48323,-1.50028 5.48379,-1.39682 7.86355,0z" class="st0"/>
                </g>
            </g>
            <path stroke="#0FCF5E" id="svg_17" stroke-miterlimit="22.9256" stroke-width="0.5669" fill="none" d="m46.36772,16.06504l7.08754,4.08697c0.1552,0.10347 0.25867,0.15521 0.41387,0.25868l6.7254,3.88003c2.48323,1.44855 3.88004,4.03525 3.88004,6.72541l0.05174,0l0,16.55484c0,3.15577 -1.86242,5.84593 -4.55258,7.08754l-6.51847,3.77657l0,0l-7.08754,4.08698l-4.08698,10.34678l-4.13871,-10.45025l-6.82887,-3.93177c-0.1552,-0.10347 -0.25867,-0.15521 -0.41387,-0.25868l-6.7254,-3.88004c-2.48323,-1.44855 -3.88004,-4.03524 -3.88004,-6.7254l-0.05173,0l0,-16.55484c0,-3.15577 1.86242,-5.84593 4.55258,-7.08754l6.51847,-3.77657l0,0l7.19101,-4.13871c2.48323,-1.50028 5.48379,-1.39682 7.86355,0z" class="st1"/>
            <g stroke="null" id="svg_25">
                <polygon stroke="null" id="svg_18" fill="#FFFFFF" points="47.50586134195328,41.77677607536316 47.50586134195328,47.82964015007019 52.21364027261734,50.51980662345886 52.21364027261734,39.03487849235535 " class="st0"/>
                <polygon stroke="null" id="svg_19" fill="#30CF79" points="42.38420683145523,56.262261152267456 47.50586134195328,53.26170039176941 47.50586134195328,41.77677607536316 52.21364027261734,39.03487849235535 52.21364027261734,50.51980662345886 56.973165571689606,47.82964015007019 56.973165571689606,30.964394330978394 50.55816465616226,34.63750147819519 42.38420683145523,39.397019147872925 " class="st2"/>
                <polygon stroke="null" id="svg_20" fill="#30CF79" points="32.50303465127945,39.03487849235535 32.50303465127945,50.51980662345886 37.262552320957184,47.82964015007019 37.262552320957184,41.77677607536316 " class="st2"/>
                <polygon stroke="null" id="svg_21" fill="#FFFFFF" points="32.50303465127945,39.03487849235535 37.262552320957184,41.77677607536316 37.262552320957184,53.26170039176941 42.38420683145523,56.262261152267456 42.38420683145523,39.397019147872925 27.79525190591812,30.964394330978394 27.79525190591812,47.82964015007019 32.50303465127945,50.51980662345886 " class="st0"/>
                <path stroke="null" id="svg_22" fill="#58F9A2" d="m37.31429,30.9644l5.01818,-2.8971l5.01819,2.8971l-5.01819,2.8971l-5.01818,-2.8971zm19.65888,0l0,0l-14.58896,-8.38089l-14.58896,8.38089l14.58896,8.43263l8.17395,-4.75952l6.41501,-3.6731z" class="st3"/>
                <polygon stroke="null" id="svg_23" fill="#30CF79" points="42.38420683145523,28.06729769706726 37.31428724527359,30.964394330978394 42.38420683145523,33.861496686935425 " class="st2"/>
                <polygon stroke="null" id="svg_24" fill="#FFFFFF" points="47.40239530801773,30.964394330978394 42.38420683145523,28.06729769706726 42.38420683145523,33.861496686935425 " class="st0"/>
            </g>
        </g>
    </g>
</svg>