<?xml version="1.0" encoding="utf-8"?>
<!-- Generator: Adobe Illustrator 28.0.0, SVG Export Plug-In . SVG Version: 6.00 Build 0)  -->
<svg version="1.1" id="Warstwa_1" xmlns="http://www.w3.org/2000/svg" xmlns:xlink="http://www.w3.org/1999/xlink" x="0px" y="0px"
	 viewBox="0 0 19.1 21" style="enable-background:new 0 0 19.1 21;" xml:space="preserve">
<style type="text/css">
	.st0{fill:#FFFFFF;stroke:#4FB15D;stroke-width:0.57;stroke-miterlimit:22.93;}
	.st1{fill:#4FB15D;}
</style>
<path class="st0" d="M11.2,0.7l3,1.7c0.1,0,0.1,0.1,0.2,0.1l2.8,1.6c1,0.6,1.6,1.7,1.6,2.8l0,0V14c0,1.3-0.8,2.5-1.9,3l-2.7,1.6l0,0
	l-3,1.7c-1.1,0.6-2.3,0.6-3.3,0l-3-1.7c-0.1,0-0.1-0.1-0.2-0.1l-2.8-1.6c-1-0.6-1.6-1.7-1.6-2.8l0,0V7c0-1.3,0.8-2.5,1.9-3l2.7-1.6
	l0,0l3-1.7C9,0.1,10.3,0.2,11.2,0.7L11.2,0.7z"/>
<path class="st1" d="M14.3,14.5h-2.6v-2.3h2.2H14c0,0,0.1,0,0.1-0.1V12v-0.1L13,10.3h0.5h0.1c0,0,0.1,0,0.1-0.1v-0.1V10l-1-1.6h0.6
	h0.1c0,0,0.1,0,0.1-0.1V8.2V8.1l-2.2-3.6c0,0,0-0.1-0.1-0.1h-0.1H11c0,0-0.1,0-0.1,0.1L9.6,6.6L8.3,4.5c0,0,0-0.1-0.1-0.1H8.1L8,4.5
	c0,0-0.1,0-0.1,0.1L5.7,8.1v0.1v0.1c0,0,0,0.1,0.1,0.1h0.1h0.6l-1,1.6v0.1v0.1c0,0,0,0.1,0.1,0.1h0.1h0.5L5,11.9V12v0.1
	c0,0,0,0.1,0.1,0.1h0.1h2.2v2.3H4.8c0,0-0.1,0-0.1,0.1s-0.1,0.1-0.1,0.1s0,0.1,0.1,0.1s0.1,0.1,0.1,0.1h9.5c0,0,0.1,0,0.1-0.1
	s0.1-0.1,0.1-0.1S14.4,14.6,14.3,14.5L14.3,14.5 M9.8,6.9L11,5l1.9,3h-0.6h-0.1c0,0-0.1,0-0.1,0.1v0.1v0.1l1,1.6h-0.5h-0.1
	c0,0-0.1,0-0.1,0.1v0.1v0.1l1.1,1.7H11l-1-1.6h0.5h0.1c0,0,0.1,0,0.1-0.1v-0.1V10l-1-1.6c0.2,0,0.4,0,0.6,0h0.1c0,0,0,0,0.1-0.1V8.2
	V8.1L9.8,6.9C9.7,6.9,9.8,6.9,9.8,6.9z M6.6,10.2C6.6,10.2,6.6,10.1,6.6,10.2c0-0.1,0-0.2,0-0.2s0-0.1-0.1-0.1H6.4H5.9l1-1.6V8.2
	V8.1c0,0,0-0.1-0.1-0.1H6.7H6.2c0.6-1,1.3-2,1.9-3L10,8H9.4H9.3c0,0-0.1,0-0.1,0.1v0.1v0.1l1,1.6H9.7H9.6l0,0.1v0.1v0.1l1.1,1.7H5.5
	L6.6,10.2L6.6,10.2z M10.3,12.3v2.2H8.7v-2.3L10.3,12.3L10.3,12.3L10.3,12.3z M7.8,14.4v-2.2h0.6v2.3L7.8,14.4L7.8,14.4L7.8,14.4z
	 M10.7,14.4v-2.2h0.6v2.3L10.7,14.4L10.7,14.4L10.7,14.4z"/>
</svg>
