<?xml version="1.0" encoding="utf-8"?>
<!-- Generator: Adobe Illustrator 28.0.0, SVG Export Plug-In . SVG Version: 6.00 Build 0)  -->
<svg version="1.1" id="Warstwa_1" xmlns="http://www.w3.org/2000/svg" xmlns:xlink="http://www.w3.org/1999/xlink" x="0px" y="0px"
	 viewBox="0 0 19.1 21" style="enable-background:new 0 0 19.1 21;" xml:space="preserve">
<style type="text/css">
	.st0{fill:#FFFFFF;stroke:#4FB15D;stroke-width:0.57;stroke-miterlimit:22.93;}
	.st1{fill:#4FB15D;}
</style>
<path class="st0" d="M11.2,0.7l3,1.7c0.1,0,0.1,0.1,0.2,0.1l2.8,1.6c1,0.6,1.6,1.7,1.6,2.8l0,0V14c0,1.3-0.8,2.5-1.9,3l-2.7,1.6l0,0
	l-3,1.7c-1.1,0.6-2.3,0.6-3.3,0l-3-1.7c-0.1,0-0.1-0.1-0.2-0.1l-2.8-1.6c-1-0.6-1.6-1.7-1.6-2.8l0,0V7c0-1.3,0.8-2.5,1.9-3l2.7-1.6
	l0,0l3-1.7C9,0.1,10.3,0.2,11.2,0.7L11.2,0.7z"/>
<g>
	<path class="st1" d="M7.2,9.8h4.7c0.1,0,0.2-0.1,0.2-0.2V4.8c0-0.1-0.1-0.2-0.2-0.2H7.2C7.1,4.6,7,4.7,7,4.8v4.7
		C7,9.7,7.1,9.8,7.2,9.8 M7.4,5.1h4.3v4.3H7.4V5.1z"/>
	<path class="st1" d="M9.3,5.4L8,9h0.5l0.4-1.1h1.3L10.6,9h0.5L9.8,5.4H9.3z M9,7.5l0.4-1c0-0.2,0.1-0.5,0.1-0.7l0,0
		C9.6,6,9.6,6.2,9.7,6.5l0.4,1H9z"/>
	<path class="st1" d="M8.9,10.1H4.2c-0.1,0-0.2,0.1-0.2,0.2V15c0,0.1,0.1,0.2,0.2,0.2h4.7c0.1,0,0.2-0.1,0.2-0.2v-4.7
		C9.2,10.2,9.1,10.1,8.9,10.1 M8.7,14.8H4.4v-4.3h4.3C8.7,10.5,8.7,14.8,8.7,14.8z"/>
	<path class="st1" d="M14.9,10.1h-4.7c-0.1,0-0.2,0.1-0.2,0.2V15c0,0.1,0.1,0.2,0.2,0.2h4.7c0.1,0,0.2-0.1,0.2-0.2v-4.7
		C15.1,10.2,15,10.1,14.9,10.1 M14.7,14.8h-4.3v-4.3h4.3V14.8z"/>
	<path class="st1" d="M7.3,14.2c0.2-0.2,0.3-0.4,0.3-0.7c0-0.5-0.4-0.8-0.7-0.9l0,0c0.4-0.1,0.6-0.4,0.6-0.8c0-0.3-0.1-0.5-0.3-0.6
		c-0.2-0.2-0.5-0.3-1-0.3c-0.3,0-0.7,0-0.9,0.1v3.6c0.2,0,0.4,0,0.7,0C6.6,14.5,7.1,14.4,7.3,14.2 M5.8,11.2c0.1,0,0.2,0,0.4,0
		c0.5,0,0.8,0.2,0.8,0.6c0,0.3-0.3,0.6-0.8,0.6H5.8V11.2z M5.8,12.8h0.4c0.5,0,0.9,0.2,0.9,0.7s-0.4,0.7-0.9,0.7c-0.2,0-0.3,0-0.4,0
		V12.8z"/>
	<path class="st1" d="M12.9,14.6c0.4,0,0.8-0.1,1-0.2L13.8,14c-0.2,0.1-0.5,0.2-0.8,0.2c-0.9,0-1.4-0.6-1.4-1.5c0-1,0.6-1.5,1.4-1.5
		c0.3,0,0.6,0.1,0.7,0.2l0.1-0.4c-0.1-0.1-0.4-0.2-0.9-0.2c-1.1,0-1.9,0.8-1.9,1.9C11.1,13.9,11.9,14.6,12.9,14.6"/>
</g>
</svg>
