<?xml version="1.0" encoding="utf-8"?>
<!-- Generator: Adobe Illustrator 28.0.0, SVG Export Plug-In . SVG Version: 6.00 Build 0)  -->
<svg version="1.1" id="Warstwa_1" xmlns="http://www.w3.org/2000/svg" xmlns:xlink="http://www.w3.org/1999/xlink" x="0px" y="0px"
	 viewBox="0 0 19.1 21" style="enable-background:new 0 0 19.1 21;" xml:space="preserve">
<style type="text/css">
	.st0{fill:#FFFFFF;stroke:#4FB15D;stroke-width:0.57;stroke-miterlimit:22.93;}
	.st1{fill:#4FB15D;}
</style>
<path class="st0" d="M11.2,0.7l3,1.7c0.1,0,0.1,0.1,0.2,0.1l2.8,1.6c1,0.6,1.6,1.7,1.6,2.8l0,0V14c0,1.3-0.8,2.5-1.9,3l-2.7,1.6l0,0
	l-3,1.7c-1.1,0.6-2.3,0.6-3.3,0l-3-1.7c-0.1,0-0.1-0.1-0.2-0.1l-2.8-1.6c-1-0.6-1.6-1.7-1.6-2.8l0,0V7c0-1.3,0.8-2.5,1.9-3l2.7-1.6
	l0,0l3-1.7C9,0.1,10.3,0.2,11.2,0.7L11.2,0.7z"/>
<path class="st1" d="M13.9,10.9V9c0-0.6-0.2-1-0.6-1.4C13,7.3,12.5,7,11.9,7s-1.1,0.2-1.4,0.6C10.1,8,9.9,8.5,9.9,9v4.9
	c0,0.4-0.2,0.8-0.4,1.1c-0.3,0.3-0.7,0.4-1.1,0.4c-0.4,0-0.8-0.1-1.1-0.4s-0.4-0.6-0.5-1v-0.1h0.5v-1.3h0.4c0.3,0,0.6-0.1,0.8-0.3
	s0.3-0.5,0.3-0.8V9.8H8.4V5.9c0-0.2-0.1-0.3-0.2-0.4S8,5.3,7.8,5.3l0,0l0,0c0-0.1-0.1-0.1-0.2-0.1s-0.1,0-0.2,0
	C7.2,5.1,7.1,5.1,7,5.2c0,0.1-0.1,0.2-0.1,0.3S7,5.7,7,5.8C7.1,5.9,7.2,6,7.4,6c0.1,0,0.1,0,0.2,0s0.1-0.1,0.2-0.1l0.1-0.1L8,6v3.9
	H7.4v1.3H5.8V9.8H5.3V5.9V5.8c0,0,0.1,0,0.1-0.1h0.1v0.1c0,0.1,0.1,0.1,0.2,0.1s0.1,0,0.2,0C6,6,6.1,5.9,6.2,5.8s0.1-0.2,0.1-0.3
	s0-0.2-0.1-0.3C6.1,5.1,6,5.1,5.9,5.1s-0.1,0-0.2,0S5.6,5.2,5.5,5.2l0,0l0,0C5.3,5.3,5.1,5.3,5,5.5C4.9,5.6,4.8,5.7,4.8,5.9v3.9H4.3
	v1.6c0,0.3,0.1,0.6,0.3,0.8c0.2,0.2,0.5,0.3,0.8,0.3h0.4v1.3h0.5v0.1c0,0.5,0.2,1,0.6,1.4s0.9,0.6,1.4,0.6c0.5,0,1.1-0.2,1.4-0.6
	c0.4-0.4,0.6-0.9,0.6-1.4V9c0-0.4,0.2-0.8,0.4-1.1c0.2-0.3,0.7-0.4,1.1-0.4S12.7,7.7,13,8c0.3,0.3,0.4,0.7,0.4,1.1v2h-0.1
	c-0.2,0.1-0.4,0.2-0.6,0.4c-0.1,0.2-0.2,0.4-0.2,0.6c0,0.3,0.1,0.6,0.3,0.7c0.2,0.2,0.5,0.3,0.8,0.3s0.6-0.1,0.8-0.3
	s0.3-0.4,0.3-0.7c0-0.2-0.1-0.4-0.2-0.6S14.2,11.1,13.9,10.9L13.9,10.9L13.9,10.9L13.9,10.9z M5.5,12.1c-0.2,0-0.3-0.1-0.5-0.2
	c-0.1-0.1-0.2-0.3-0.2-0.5v-1.1h0.5v1.1c0,0.1,0,0.1,0.1,0.1l0.1,0.1h2.2c0.1,0,0.1,0,0.1-0.1s0.1-0.1,0.1-0.1v-1.1h0.5v1.1
	c0,0.2-0.1,0.4-0.2,0.5s-0.3,0.2-0.5,0.2H6.9v1.3H6.4v-1.3H5.5L5.5,12.1z M13.7,12.6c-0.2,0-0.3-0.1-0.4-0.2
	c-0.1-0.1-0.2-0.2-0.2-0.4s0.1-0.3,0.2-0.4c0.1-0.1,0.2-0.2,0.4-0.2s0.3,0.1,0.4,0.2c0.1,0.1,0.2,0.2,0.2,0.4s-0.1,0.3-0.2,0.4
	S13.9,12.6,13.7,12.6z"/>
</svg>
