<?xml version="1.0" encoding="UTF-8"?>
<svg id="Warstwa_1" data-name="Warstwa 1" xmlns="http://www.w3.org/2000/svg" viewBox="0 0 17.76 10.62">
  <defs>
    <style>
      .cls-1 {
        fill: #0c4b96;
        stroke-width: 0px;
      }
    </style>
  </defs>
  <path class="cls-1" d="m14.62,4.53v-1.75c0-.64-.52-1.17-1.17-1.17H2.2c-.18,0-.33.15-.33.33v2.58c0,.18.15.33.33.33h12.09c.18,0,.33-.15.33-.33m-9.94-.33h-2.15v-1.92h2.15v1.92Zm4.12,0h-3.46v-1.92h3.46v1.92Zm5.15,0h-4.48v-1.92h3.98c.28,0,.5.22.5.5v1.41Z"/>
  <path class="cls-1" d="m17.63,3.81l-1.15-.93c-.08-1.6-1.41-2.87-3.03-2.87H.33c-.18,0-.33.15-.33.33v8.56c0,.18.15.33.33.33h1.56c.16.8.86,1.4,1.7,1.4s1.54-.6,1.7-1.4h3.58c.18,0,.33-.15.33-.33s-.15-.33-.33-.33h-3.58c-.16-.8-.86-1.4-1.7-1.4s-1.54.6-1.7,1.4H.67v-2.09h3.8c.18,0,.33-.15.33-.33s-.15-.33-.33-.33H.67V.67h12.79c1.3,0,2.36,1.06,2.36,2.36,0,.1.05.2.12.26l1.14.93v1.58H7.64c-.18,0-.33.15-.33.33s.15.33.33.33h9.45v2.09h-2.77c-.16-.8-.86-1.4-1.7-1.4s-1.54.6-1.7,1.4h-.84c-.18,0-.33.15-.33.33s.15.33.33.33h.84c.16.8.86,1.4,1.7,1.4s1.54-.6,1.7-1.4h3.1c.18,0,.33-.15.33-.33v-4.83c0-.1-.05-.2-.12-.26M2.53,8.89c0-.59.48-1.06,1.06-1.06s1.06.48,1.06,1.06-.48,1.06-1.06,1.06-1.06-.48-1.06-1.06h0Zm10.09,1.06c-.59,0-1.06-.48-1.06-1.06s.48-1.06,1.06-1.06,1.06.48,1.06,1.06-.48,1.06-1.06,1.06Z"/>
  <path class="cls-1" d="m5.62,5.8c-.18,0-.33.15-.33.33s.15.33.33.33h.93c.18,0,.33-.15.33-.33s-.15-.33-.33-.33h-.93Z"/>
  <path class="cls-1" d="m3.6,9.22c.09,0,.17-.04.24-.1.06-.06.1-.15.1-.24s-.04-.17-.1-.24c-.06-.06-.15-.1-.24-.1s-.17.04-.24.1c-.06.06-.1.15-.1.24s.04.17.1.24c.06.06.15.1.24.1"/>
  <path class="cls-1" d="m12.62,8.56c-.09,0-.17.04-.24.1-.06.06-.1.15-.1.24s.04.17.1.24c.06.06.15.1.24.1s.17-.04.24-.1c.06-.06.1-.15.1-.24s-.04-.17-.1-.24c-.06-.06-.15-.1-.24-.1"/>
</svg>