<?xml version="1.0" encoding="UTF-8"?>
<svg id="Warstwa_1" data-name="Warstwa 1" xmlns="http://www.w3.org/2000/svg" viewBox="0 0 13.97 10.14">
  <defs>
    <style>
      .cls-1 {
        fill: #0599a6;
        stroke-width: 0px;
      }
    </style>
  </defs>
  <path class="cls-1" d="m3.14,8.79c.47,0,.85-.38.85-.85s-.38-.85-.85-.85-.85.38-.85.85.38.85.85.85m0-1.18c.18,0,.33.15.33.33s-.15.33-.33.33-.33-.15-.33-.33.15-.33.33-.33Z"/>
  <path class="cls-1" d="m10.49,7.08c-.47,0-.85.38-.85.85s.38.85.85.85.85-.38.85-.85-.38-.85-.85-.85m0,1.18c-.18,0-.33-.15-.33-.33s.15-.33.33-.33.33.15.33.33-.15.33-.33.33Z"/>
  <path class="cls-1" d="m13.63,4.41c-.32-.54-.85-.81-1.58-.81h-1.94c-.34-.72-1.84-3.6-3.77-3.6H.26c-.15,0-.26.12-.26.26v5.75c0,1.46,0,2.02.94,2.15.12,1.11,1.06,1.98,2.2,1.98s2.07-.85,2.2-1.95h1.02c.15,0,.26-.12.26-.26s-.12-.26-.26-.26h-1.02c-.13-1.1-1.07-1.95-2.2-1.95s-2.05.84-2.19,1.92c-.41-.05-.42-.26-.42-1.62v-.83h3.57c.15,0,.26-.12.26-.26s-.12-.26-.26-.26H.52v-.53h11.52c.53,0,.9.17,1.12.53h-6.92c-.15,0-.26.12-.26.26s.12.26.26.26h7.12c.05.23.08.51.08.83,0,1.01-.03,1.51-.76,1.59-.16-1.06-1.08-1.88-2.19-1.88s-2.07.85-2.2,1.95h-1.07c-.14,0-.26.12-.26.26s.12.26.26.26h1.07c.13,1.1,1.07,1.95,2.2,1.95s2.1-.89,2.2-2.02c1.27-.12,1.27-1.18,1.27-2.11,0-.7-.11-1.21-.34-1.6m-10.49,1.83c.93,0,1.69.76,1.69,1.69s-.76,1.69-1.69,1.69-1.69-.76-1.69-1.69.76-1.69,1.69-1.69Zm1.23-2.64H.52V.52h3.85v3.08Zm.53,0V.52h1.43c1.45,0,2.73,2.19,3.18,3.08h-4.62Zm5.59,6.02c-.93,0-1.69-.76-1.69-1.69s.76-1.69,1.69-1.69,1.69.76,1.69,1.69-.76,1.69-1.69,1.69Z"/>
  <path class="cls-1" d="m4.94,4.66c-.15,0-.26.12-.26.26s.12.26.26.26h.5c.15,0,.26-.12.26-.26s-.12-.26-.26-.26h-.5Z"/>
</svg>