<?xml version="1.0" encoding="utf-8"?>
<!-- Generator: Adobe Illustrator 28.0.0, SVG Export Plug-In . SVG Version: 6.00 Build 0)  -->
<svg version="1.1" id="Warstwa_1" xmlns="http://www.w3.org/2000/svg" xmlns:xlink="http://www.w3.org/1999/xlink" x="0px" y="0px"
	 viewBox="0 0 19.1 21.4" style="enable-background:new 0 0 19.1 21.4;" xml:space="preserve">
<style type="text/css">
	.st0{fill:#FFFFFF;stroke:#4FB15D;stroke-width:0.57;stroke-miterlimit:22.93;}
	.st1{fill:#4FB15D;}
</style>
<path class="st0" d="M11.2,0.9l3,1.7c0.1,0,0.1,0.1,0.2,0.1l2.8,1.6c1,0.6,1.6,1.7,1.6,2.8l0,0v7.1c0,1.3-0.8,2.5-1.9,3l-2.7,1.6
	l0,0l-3,1.7c-1.1,0.6-2.3,0.6-3.3,0l-3-1.7c-0.1,0-0.1-0.1-0.2-0.1l-2.8-1.6c-1-0.6-1.6-1.7-1.6-2.8l0,0V7.2c0-1.3,0.8-2.5,1.9-3
	l2.7-1.6l0,0l3-1.7C9,0.3,10.3,0.4,11.2,0.9L11.2,0.9z"/>
<path class="st1" d="M13.6,8.3c0-0.1-0.1-0.2-0.2-0.2h-1.7V7.4c0-1.2-0.9-2.1-2.1-2.1S7.4,6.2,7.4,7.4v0.7H5.8
	c-0.1,0-0.2,0.1-0.3,0.2l-1.1,7.6c0,0.1,0,0.1,0.1,0.2c0,0.1,0.1,0.1,0.2,0.1h9.8c0.1,0,0.1,0,0.2-0.1c0-0.1,0.1-0.1,0.1-0.2
	L13.6,8.3L13.6,8.3z M7.9,7.4c0-0.9,0.7-1.7,1.7-1.7s1.7,0.7,1.7,1.7v0.7H7.9C7.9,8.1,7.9,7.4,7.9,7.4z M4.9,15.7l1-7.1h1.5v1.3H7.2
	C7.1,9.8,7,9.9,7,10.1s0.1,0.2,0.2,0.2h0.9c0.1,0,0.2-0.1,0.2-0.2s0-0.3-0.2-0.3H7.9V8.6h3.3v1.3H11c-0.1,0-0.2,0.1-0.2,0.2
	s0.1,0.2,0.2,0.2h0.9c0.1,0,0.2-0.1,0.2-0.2S12,9.9,11.9,9.9h-0.2V8.6h1.5l1,7.1H4.9L4.9,15.7z"/>
</svg>
