<?xml version="1.0" encoding="utf-8"?>
<!-- Generator: Adobe Illustrator 28.0.0, SVG Export Plug-In . SVG Version: 6.00 Build 0)  -->
<svg version="1.1" id="Warstwa_1" xmlns="http://www.w3.org/2000/svg" xmlns:xlink="http://www.w3.org/1999/xlink" x="0px" y="0px"
	 viewBox="0 0 19.1 21.8" style="enable-background:new 0 0 19.1 21.8;" xml:space="preserve">
<style type="text/css">
	.st0{fill:#FFFFFF;stroke:#4FB15D;stroke-width:0.57;stroke-miterlimit:22.93;}
	.st1{fill:#4FB15D;}
</style>
<path class="st0" d="M11.2,1.2l3,1.7c0.1,0,0.1,0.1,0.2,0.1l2.8,1.6c1,0.6,1.6,1.7,1.6,2.8l0,0v7.1c0,1.3-0.8,2.5-1.9,3l-2.7,1.6
	l0,0l-3,1.7c-1.1,0.6-2.3,0.6-3.3,0l-3-1.7c-0.1,0-0.1-0.1-0.2-0.1l-2.8-1.6c-1-0.6-1.6-1.7-1.6-2.8l0,0V7.5c0-1.3,0.8-2.5,1.9-3
	l2.7-1.6l0,0l3-1.7C9,0.6,10.3,0.7,11.2,1.2L11.2,1.2z"/>
<g>
	<path class="st1" d="M15.3,8l-6-3.6H9.2H9.1L3.1,8L3,8.1v0.1v0.1c0,0,0,0.1,0.1,0.1l6,4c0,0,0,0,0.1,0c0,0,0,0,0.1,0h0.1l2.7-1.8
		v1.8H12c-0.2,0.1-0.3,0.2-0.4,0.3c-0.1,0.1-0.1,0.3-0.1,0.5s0,0.3,0.1,0.4c0.1,0.1,0.2,0.2,0.3,0.3H12l-0.5,2V16v0.1l0.1,0.1h0.1
		h1.2H13c0,0,0.1,0,0.1-0.1V16v-0.1l-0.5-2h0.1c0.1-0.1,0.3-0.2,0.3-0.3c0.1-0.1,0.1-0.3,0.1-0.5S13,12.8,13,12.6
		c-0.1-0.1-0.2-0.3-0.4-0.3h-0.1v-2.1l2.8-1.8l0.1-0.1V8.2C15.5,8.1,15.4,8.1,15.3,8C15.4,8,15.4,8,15.3,8 M12.7,13.2
		c0,0.1,0,0.2-0.1,0.2c-0.1,0.1-0.2,0.1-0.3,0.1c-0.1,0-0.2,0-0.2-0.1c-0.1,0-0.1-0.1-0.1-0.2s0-0.2,0.1-0.2
		c0.1-0.1,0.1-0.1,0.2-0.1h0.1c0.1,0,0.2,0,0.2,0.1C12.6,13,12.7,13.1,12.7,13.2z M12.1,15.6l0.2-0.9l0.3,1h-0.5V15.6z M12.3,9.7
		l-2.2-1.4c-0.1,0-0.1,0-0.2,0c-0.1,0-0.1,0.1-0.2,0.1c0,0.1,0,0.1,0,0.2s0.1,0.1,0.1,0.2l2.1,1.3c-0.9,0.6-1.8,1.2-2.7,1.8L3.7,8.2
		C5.5,7.1,7.4,6,9.2,4.9l5.5,3.3C13.9,8.7,13.2,9.3,12.3,9.7L12.3,9.7z"/>
	<path class="st1" d="M13.7,10.5c-0.1,0-0.1,0-0.2,0.1c0,0-0.1,0.1-0.1,0.2v1.3c0,0.1,0,0.1,0.1,0.2c0,0,0.1,0.1,0.2,0.1
		c0.1,0,0.1,0,0.2-0.1c0,0,0.1-0.1,0.1-0.2v-1.3c0-0.1,0-0.1-0.1-0.2C13.8,10.5,13.8,10.5,13.7,10.5"/>
	<path class="st1" d="M10.9,14.5H7.4c-0.6,0-1.2-0.2-1.7-0.6C5.3,13.5,5,13,5,12.4v-1.6c0-0.1,0-0.1-0.1-0.2c0,0-0.1-0.1-0.2-0.1
		s-0.1,0-0.2,0.1c0,0-0.1,0.1-0.1,0.2v1.6c0,0.7,0.3,1.4,0.8,1.9s1.2,0.8,2,0.8h3.5c0.1,0,0.1,0,0.2-0.1c0,0,0.1-0.1,0.1-0.2
		C11,14.7,11,14.7,10.9,14.5C11,14.6,11,14.5,10.9,14.5"/>
</g>
</svg>
