<?xml version="1.0" encoding="UTF-8"?>
<svg id="Warstwa_1" data-name="Warstwa 1" xmlns="http://www.w3.org/2000/svg" viewBox="0 0 54.61 59.88">
  <defs>
    <style>
      .cls-1 {
        fill-rule: evenodd;
      }

      .cls-1, .cls-2 {
        fill: #0fcf5e;
      }

      .cls-1, .cls-2, .cls-3 {
        stroke-width: 0px;
      }

      .cls-3 {
        fill: #fff;
      }
    </style>
  </defs>
  <path class="cls-3" d="m32.08,2.06l8.5,4.91c.16.1.32.19.48.3l8.09,4.67c2.99,1.72,4.67,4.85,4.67,8.07h.04v19.87c0,3.78-2.24,7.03-5.46,8.51l-7.82,4.52v.02s-8.59,4.97-8.59,4.97c-3.03,1.76-6.64,1.61-9.45-.06l-8.5-4.91c-.16-.09-.32-.19-.48-.3l-8.09-4.67c-2.99-1.72-4.67-4.85-4.67-8.07h-.04v-19.87c0-3.78,2.24-7.03,5.46-8.51l7.82-4.52v-.02s8.59-4.97,8.59-4.97c3.03-1.76,6.64-1.61,9.45.06Z"/>
  <path class="cls-2" d="m27.31,59.88c-1.79,0-3.57-.47-5.16-1.42l-8.49-4.9c-.18-.1-.35-.21-.52-.32l-8.05-4.65c-2.89-1.66-4.77-4.67-5.02-7.97h-.03l-.04-.75v-19.86c0-3.94,2.32-7.55,5.9-9.19L22.25,1.35c3.15-1.83,7.07-1.81,10.2.06l8.5,4.91c.18.1.35.21.52.32l8.05,4.65c2.89,1.66,4.77,4.67,5.02,7.97h.03l.04.75v19.86c0,3.94-2.32,7.55-5.9,9.19l-16.35,9.47c-1.56.9-3.3,1.35-5.05,1.35ZM1.5,39.14l.04.74c0,3.06,1.65,5.9,4.3,7.42l8.09,4.67c.18.12.33.21.48.3l8.5,4.91c2.68,1.59,6.01,1.61,8.7.06l16.42-9.5c3.12-1.43,5.09-4.5,5.09-7.86l-.04-19.86c0-3.06-1.65-5.9-4.3-7.42l-8.09-4.67c-.18-.12-.33-.21-.48-.3l-8.51-4.91c-2.67-1.59-6-1.61-8.69-.05L6.59,12.15c-3.12,1.43-5.09,4.5-5.09,7.86v19.13Z"/>
  <polygon class="cls-1" points="27.3 10.4 32.35 20.6 43.51 23.31 36.22 31.73 37.32 44.2 27.77 39.2 17.29 44.2 18.67 32.7 11.09 23.31 21.5 21.2 27.3 10.4"/>
</svg>