<?xml version="1.0" encoding="UTF-8"?>
<svg id="Tryb_izolacji" data-name="Tryb izolacji" xmlns="http://www.w3.org/2000/svg" viewBox="0 0 45.22 47.75">
  <defs>
    <style>
      .cls-1 {
        fill: none;
        stroke: #2181b3;
        stroke-miterlimit: 22.93;
        stroke-width: 1.42px;
      }

      .cls-2 {
        fill: #2181b3;
        fill-rule: evenodd;
        stroke-width: 0px;
      }
    </style>
  </defs>
  <path class="cls-1" d="m2.81,6.01L22.4.73l19.87,5.24c2.26.68,2.45,2.29,2.1,4.71-2.07,14.35-3.35,21.4-6.12,26.32-2.27,4.03-4.82,5.97-15.74,9.99-10.8-4.02-13.31-5.99-15.57-10.03-2.76-4.94-4.05-11.97-6.09-26.17-.35-2.4-.22-4.12,1.96-4.79Z"/>
  <path class="cls-2" d="m8.2,10.87l14.25-3.84,14.46,3.82c1.64.5,1.79,1.66,1.53,3.43-1.51,10.44-2.44,15.58-4.45,19.16-1.65,2.93-3.51,4.34-11.45,7.27-7.86-2.92-9.69-4.36-11.33-7.3-2.01-3.59-2.95-8.71-4.43-19.04-.25-1.75-.16-3,1.43-3.49Z"/>
</svg>