<?xml version="1.0" encoding="utf-8"?>
<!-- Generator: Adobe Illustrator 28.0.0, SVG Export Plug-In . SVG Version: 6.00 Build 0)  -->
<svg version="1.1" id="Warstwa_1" xmlns="http://www.w3.org/2000/svg" xmlns:xlink="http://www.w3.org/1999/xlink" x="0px" y="0px"
	 viewBox="0 0 21.2 19.6" style="enable-background:new 0 0 21.2 19.6;" xml:space="preserve">
<style type="text/css">
	.st0{fill:#60CF5E;}
	.st1{fill:#1F2837;}
</style>
<path class="st0" d="M15,0.5c-3.1,0-5.7,2.6-5.7,5.7s2.6,5.7,5.7,5.7s5.7-2.6,5.7-5.7S18.1,0.5,15,0.5z M17.6,6.9h-1.9v1.8
	c0,0.4-0.4,0.7-0.7,0.7c-0.4,0-0.6-0.4-0.6-0.7V6.9h-1.9c-0.4,0-0.7-0.4-0.7-0.7s0.4-0.7,0.7-0.7h1.9V3.8c0-0.4,0.4-0.7,0.7-0.7
	c0.4,0,0.7,0.4,0.7,0.7v1.9h1.9c0.4,0,0.7,0.4,0.7,0.7C18.1,6.8,17.9,6.9,17.6,6.9z"/>
<path class="st1" d="M15.9,13.3V18c0,0.2-0.2,0.4-0.4,0.4H12V14c0-0.9-0.7-1.6-1.6-1.6h-2c-0.9,0-1.6,0.7-1.6,1.6v4.4H3.4
	C3.2,18.4,3,18.2,3,18V8.2l6.4-6.4l0,0c0.2-0.3,0.5-0.6,0.8-0.9L9.9,0.6c-0.2-0.2-0.6-0.2-0.8,0l-7,7l-2,2c-0.2,0.2-0.2,0.6,0,0.8
	s0.6,0.2,0.8,0l1-1V18c0,0.9,0.7,1.6,1.6,1.6h4c0.3,0,0.6-0.3,0.6-0.6v-5c0-0.2,0.2-0.4,0.4-0.4h2c0.2,0,0.4,0.2,0.4,0.4v5
	c0,0.3,0.3,0.6,0.6,0.6h4c0.9,0,1.6-0.7,1.6-1.6v-5C16.7,13.1,16.3,13.2,15.9,13.3z"/>
</svg>
