<?xml version="1.0" encoding="utf-8"?>
<!-- Generator: Adobe Illustrator 28.0.0, SVG Export Plug-In . SVG Version: 6.00 Build 0)  -->
<svg version="1.1" id="Warstwa_1" xmlns="http://www.w3.org/2000/svg" xmlns:xlink="http://www.w3.org/1999/xlink" x="0px" y="0px"
	 viewBox="0 0 23.2 19.3" style="enable-background:new 0 0 23.2 19.3;" xml:space="preserve">
<style type="text/css">
	.st0{fill:#DD1D1D;}
	.st1{fill:#1F2837;}
</style>
<path class="st0" d="M11.8,3c-1.7,1.7-1.7,4.6,0,6.4s4.6,1.7,6.4,0c1.7-1.7,1.7-4.6,0-6.4C16.4,1.3,13.6,1.3,11.8,3z M17.5,4.9
	L16,6.4l1.4,1.4c0.3,0.3,0.3,0.8,0,1.1c-0.3,0.3-0.7,0.1-1-0.1L15,7.4l-1.5,1.5c-0.3,0.3-0.8,0.3-1.1,0c-0.3-0.3-0.3-0.8,0-1.1
	l1.5-1.5L12.6,5c-0.3-0.3-0.3-0.8,0-1.1c0.3-0.3,0.8-0.3,1.1,0l1.5,1.5l1.5-1.5c0.3-0.3,0.8-0.3,1.1,0C17.8,4.3,17.8,4.6,17.5,4.9z"
	/>
<path class="st1" d="M15.9,12.9v4.7c0,0.2-0.2,0.4-0.4,0.4H12v-4.4c0-0.9-0.7-1.6-1.6-1.6h-2c-0.9,0-1.6,0.7-1.6,1.6V18H3.4
	C3.2,18,3,17.8,3,17.6V7.8l6.4-6.4l0,0c0.2-0.3,0.5-0.6,0.8-0.9L9.9,0.2C9.7,0,9.3,0,9.1,0.2l-7,7l-2,2c-0.2,0.2-0.2,0.6,0,0.8
	s0.6,0.2,0.8,0l1-1v8.6c0,0.9,0.7,1.6,1.6,1.6h4c0.3,0,0.6-0.3,0.6-0.6v-5c0-0.2,0.2-0.4,0.4-0.4h2c0.2,0,0.4,0.2,0.4,0.4v5
	c0,0.3,0.3,0.6,0.6,0.6h4c0.9,0,1.6-0.7,1.6-1.6v-5C16.7,12.7,16.3,12.8,15.9,12.9z"/>
</svg>
