<?xml version="1.0" encoding="utf-8"?>
<!-- Generator: Adobe Illustrator 28.0.0, SVG Export Plug-In . SVG Version: 6.00 Build 0)  -->
<svg version="1.1" id="Warstwa_1" xmlns="http://www.w3.org/2000/svg" xmlns:xlink="http://www.w3.org/1999/xlink" x="0px" y="0px"
	 viewBox="0 0 23.2 19.3" style="enable-background:new 0 0 23.2 19.3;" xml:space="preserve">
<style type="text/css">
	.st0{fill:#60CF5E;}
	.st1{fill:#1F2837;}
</style>
<g>
	<path class="st0" d="M18.2,4.3l0.3-0.3c0.6-0.6,0.6-1.6,0-2.3c-0.6-0.6-1.6-0.6-2.3,0L15.9,2L18.2,4.3L18.2,4.3z"/>
	<path class="st0" d="M15,3l-3.8,3.8c0,0-0.1,0.1-0.1,0.2l-0.5,2.3c0,0.2,0.1,0.3,0.2,0.4h0.1l2.3-0.5c0.1,0,0.1,0,0.2-0.1l3.9-3.8
		L15,3z"/>
</g>
<path class="st1" d="M15.9,13v4.7c0,0.2-0.2,0.4-0.4,0.4H12v-4.4c0-0.9-0.7-1.6-1.6-1.6h-2c-0.9,0-1.6,0.7-1.6,1.6v4.4H3.4
	c-0.2,0-0.4-0.2-0.4-0.4V7.9l6.4-6.4l0,0c0.2-0.3,0.5-0.6,0.8-0.9L9.9,0.3c-0.2-0.2-0.6-0.2-0.8,0l-7,7l-2,2c-0.2,0.2-0.2,0.6,0,0.8
	s0.6,0.2,0.8,0l1-1v8.6c0,0.9,0.7,1.6,1.6,1.6h4c0.3,0,0.6-0.3,0.6-0.6v-5c0-0.2,0.2-0.4,0.4-0.4h2c0.2,0,0.4,0.2,0.4,0.4v5
	c0,0.3,0.3,0.6,0.6,0.6h4c0.9,0,1.6-0.7,1.6-1.6v-5C16.7,12.8,16.3,12.9,15.9,13z"/>
</svg>
