<?xml version="1.0" encoding="UTF-8"?>
<svg id="Warstwa_1" data-name="Warstwa 1" xmlns="http://www.w3.org/2000/svg" viewBox="0 0 473.5 376">
  <defs>
    <style>
      .cls-1, .cls-2 {
        stroke: #000;
        stroke-linecap: round;
        stroke-miterlimit: 10;
        stroke-width: 25px;
      }

      .cls-2 {
        fill: none;
      }

      .cls-3, .cls-4 {
        stroke-width: 0px;
      }

      .cls-4 {
        fill: #fff;
      }
    </style>
  </defs>
  <g>
    <line class="cls-1" x1="16.84" y1="60.86" x2="461" y2="60.86"/>
    <g>
      <circle class="cls-4" cx="297" cy="61" r="50.5"/>
      <path class="cls-3" d="m297,21c22.06,0,40,17.94,40,40s-17.94,40-40,40-40-17.94-40-40,17.94-40,40-40m0-21c-33.69,0-61,27.31-61,61s27.31,61,61,61,61-27.31,61-61S330.69,0,297,0h0Z"/>
    </g>
  </g>
  <g>
    <line class="cls-1" x1="461" y1="315.14" x2="16.84" y2="315.14"/>
    <g>
      <circle class="cls-4" cx="348" cy="315" r="50.5"/>
      <path class="cls-3" d="m348,275c22.06,0,40,17.94,40,40s-17.94,40-40,40-40-17.94-40-40,17.94-40,40-40m0-21c-33.69,0-61,27.31-61,61s27.31,61,61,61,61-27.31,61-61-27.31-61-61-61h0Z"/>
    </g>
  </g>
  <path class="cls-2" d="m12.5,187.5h65.98s3.71-21.46,13.52-32.5c8-9,21.96-18,36-18s28.71,2.95,42,20c6.65,8.52,9.9,19.52,10.11,30.27.21,10.74-2.61,21.23-8.11,28.73-11,15-24.7,24.59-47,23-14-1-23-8-23-8"/>
  <line class="cls-2" x1="461" y1="188.09" x2="180.11" y2="188.09"/>
</svg>