<?xml version="1.0" encoding="utf-8"?>
<!-- Generator: Adobe Illustrator 28.0.0, SVG Export Plug-In . SVG Version: 6.00 Build 0)  -->
<svg version="1.1" id="Warstwa_1" xmlns="http://www.w3.org/2000/svg" xmlns:xlink="http://www.w3.org/1999/xlink" x="0px" y="0px"
	 viewBox="0 0 86.43 85.93" style="enable-background:new 0 0 86.43 85.93;" xml:space="preserve">
<style type="text/css">
	.st0{fill:#FFFFFF;stroke:#575756;stroke-width:1.4;stroke-miterlimit:10;}
	.st1{fill:#FFFFFF;}
	.st2{fill:#55B474;}
	.st3{fill:#81C38E;}
	.st4{fill:#1E3867;}
</style>
<g>
	
		<ellipse transform="matrix(0.9894 -0.1452 0.1452 0.9894 -5.7812 6.7309)" class="st0" cx="43.22" cy="42.97" rx="41.02" ry="41.02"/>
	<g id="Warstwa_x0020_1_00000008871086766372300670000001342146790624325504_">
		<polygon class="st1" points="47.92,32.92 47.92,38.78 52.51,41.42 52.51,30.28 		"/>
		<polygon class="st2" points="42.95,46.94 47.92,44.07 47.92,32.92 52.51,30.28 52.51,41.42 57.09,38.78 57.09,22.46 50.91,26.03 
			42.95,30.62 		"/>
		<polygon class="st2" points="33.4,30.28 33.4,41.42 37.98,38.78 37.98,32.92 		"/>
		<polygon class="st1" points="33.4,30.28 37.98,32.92 37.98,44.07 42.95,46.94 42.95,30.62 28.82,22.46 28.82,38.78 33.4,41.42 		
			"/>
		<path class="st3" d="M38.08,22.46l4.88-2.82l4.88,2.82l-4.88,2.82L38.08,22.46z M57.09,22.46L57.09,22.46l-14.13-8.16l-14.13,8.16
			l14.13,8.16l7.95-4.59L57.09,22.46z"/>
		<polygon class="st2" points="42.95,19.65 38.08,22.46 42.95,25.28 		"/>
		<polygon class="st1" points="47.83,22.46 42.95,19.65 42.95,25.28 		"/>
		<path class="st4" d="M14.85,57.96v3.6h-2.04V52.6h2.04v3.57h2.89V52.6h2.04v8.95h-2.04v-3.6H14.85z M21.6,60.89
			c-0.62-0.55-0.93-1.26-0.93-2.12s0.32-1.57,0.97-2.13c0.65-0.55,1.44-0.83,2.39-0.83c0.93,0,1.72,0.28,2.36,0.84
			s0.96,1.27,0.96,2.12s-0.31,1.56-0.94,2.11c-0.63,0.55-1.42,0.83-2.38,0.83C23.03,61.71,22.22,61.44,21.6,60.89z M23.08,57.83
			c-0.25,0.25-0.37,0.56-0.37,0.95s0.12,0.7,0.36,0.94c0.24,0.24,0.55,0.36,0.95,0.36c0.38,0,0.68-0.12,0.93-0.37
			c0.24-0.25,0.36-0.56,0.36-0.93c0-0.39-0.12-0.7-0.37-0.95c-0.25-0.25-0.55-0.37-0.92-0.37C23.65,57.46,23.35,57.58,23.08,57.83
			L23.08,57.83z M28.24,61.55v-5.57h1.92v0.59h0.02c0.5-0.5,1.03-0.75,1.59-0.75c0.41,0,0.79,0.08,1.14,0.25
			c0.36,0.17,0.63,0.42,0.8,0.77c0.57-0.68,1.18-1.02,1.85-1.02c0.6,0,1.11,0.17,1.53,0.5c0.43,0.33,0.64,0.85,0.64,1.56v3.67h-1.92
			v-3.15c0-0.3-0.08-0.55-0.25-0.74c-0.16-0.2-0.41-0.3-0.74-0.3c-0.28,0-0.49,0.09-0.65,0.25c-0.15,0.17-0.23,0.37-0.25,0.61v3.32
			h-1.92V58.4c0-0.3-0.08-0.55-0.25-0.74c-0.16-0.2-0.41-0.3-0.74-0.3c-0.3,0-0.52,0.09-0.67,0.28c-0.15,0.18-0.23,0.4-0.23,0.66
			v3.25h-1.92L28.24,61.55z M44.57,59.04h-4.04c0,0.39,0.12,0.68,0.38,0.87c0.25,0.19,0.53,0.28,0.82,0.28
			c0.31,0,0.56-0.04,0.74-0.12c0.18-0.08,0.39-0.25,0.62-0.49l1.39,0.69c-0.58,0.97-1.54,1.46-2.89,1.46
			c-0.84,0-1.56-0.29-2.16-0.87c-0.6-0.57-0.9-1.27-0.9-2.08c0-0.81,0.3-1.51,0.9-2.08c0.6-0.58,1.32-0.87,2.16-0.87
			c0.88,0,1.6,0.25,2.15,0.76s0.83,1.24,0.83,2.19C44.57,58.9,44.56,58.99,44.57,59.04L44.57,59.04z M40.59,57.97h2.12
			c-0.04-0.29-0.16-0.51-0.34-0.67c-0.18-0.15-0.42-0.23-0.71-0.23c-0.32,0-0.57,0.08-0.76,0.25C40.7,57.49,40.6,57.7,40.59,57.97
			L40.59,57.97z M48.45,52.6h3.2c0.86,0,1.56,0.23,2.1,0.69c0.55,0.46,0.82,1.11,0.82,1.97c0,0.65-0.17,1.21-0.49,1.65
			c-0.33,0.44-0.78,0.76-1.34,0.94l3.09,3.7h-2.59l-2.74-3.54v3.54h-2.04L48.45,52.6L48.45,52.6z M50.49,56.58h0.24
			c0.19,0,0.35-0.01,0.48-0.01c0.13-0.01,0.28-0.03,0.44-0.07s0.3-0.1,0.4-0.18c0.1-0.08,0.19-0.2,0.26-0.35
			c0.07-0.15,0.11-0.33,0.11-0.55s-0.04-0.4-0.11-0.55c-0.07-0.15-0.16-0.27-0.26-0.35c-0.1-0.08-0.23-0.14-0.4-0.18
			s-0.31-0.07-0.44-0.07c-0.13-0.01-0.29-0.01-0.48-0.01h-0.24V56.58L50.49,56.58z M56.6,60.87c-0.52-0.57-0.78-1.27-0.78-2.09
			s0.26-1.52,0.78-2.1c0.52-0.57,1.19-0.86,1.99-0.86c0.74,0,1.35,0.23,1.83,0.69v-0.53h1.92v5.57h-1.9v-0.63h-0.02
			c-0.48,0.53-1.08,0.79-1.83,0.79C57.79,61.71,57.12,61.43,56.6,60.87L56.6,60.87z M58.23,57.83c-0.25,0.25-0.37,0.56-0.37,0.95
			s0.12,0.7,0.36,0.94c0.24,0.24,0.55,0.36,0.95,0.36c0.38,0,0.68-0.12,0.93-0.37c0.24-0.25,0.36-0.56,0.36-0.93
			c0-0.39-0.12-0.7-0.37-0.95c-0.25-0.25-0.55-0.37-0.92-0.37C58.8,57.46,58.49,57.59,58.23,57.83L58.23,57.83z M63.96,55.99v-2.07
			h1.92v2.07h1.17v1.46h-1.17v1.77c0,0.52,0.15,0.77,0.44,0.77c0.07,0,0.15-0.01,0.23-0.04c0.08-0.03,0.14-0.06,0.18-0.09l0.07-0.04
			l0.48,1.55c-0.41,0.23-0.88,0.35-1.41,0.35c-0.36,0-0.67-0.07-0.93-0.19c-0.26-0.12-0.46-0.3-0.59-0.51
			c-0.13-0.21-0.23-0.44-0.29-0.67c-0.06-0.23-0.09-0.49-0.09-0.76v-2.14h-0.8v-1.46H63.96z M73.55,59.04h-4.04
			c0,0.39,0.12,0.68,0.38,0.87c0.25,0.19,0.53,0.28,0.82,0.28c0.31,0,0.56-0.04,0.74-0.12c0.18-0.08,0.39-0.25,0.62-0.49l1.39,0.69
			c-0.58,0.97-1.54,1.46-2.89,1.46c-0.84,0-1.56-0.29-2.16-0.87c-0.6-0.57-0.9-1.27-0.9-2.08c0-0.81,0.3-1.51,0.9-2.08
			c0.6-0.58,1.32-0.87,2.16-0.87c0.88,0,1.6,0.25,2.15,0.76c0.55,0.51,0.83,1.24,0.83,2.19C73.55,58.9,73.54,58.99,73.55,59.04
			L73.55,59.04z M69.57,57.97h2.12c-0.04-0.29-0.16-0.51-0.34-0.67c-0.18-0.15-0.42-0.23-0.71-0.23c-0.32,0-0.57,0.08-0.76,0.25
			C69.68,57.49,69.58,57.7,69.57,57.97L69.57,57.97z"/>
		<path class="st2" d="M26.79,66.78v2.85h-0.17l-1.94-2.47v2.47h-0.21v-2.85h0.17l1.94,2.47v-2.47H26.79L26.79,66.78z M27.78,66.78
			h0.21v2.85h-0.21V66.78z M30.94,69.44v0.19h-1.97v-2.85h1.91v0.19h-1.7v1.12h1.52v0.18h-1.52v1.17H30.94L30.94,69.44z
			 M33.68,69.63L33,68.68c-0.1,0.01-0.19,0.02-0.28,0.02h-0.82v0.93H31.7v-2.85h1.02c0.36,0,0.64,0.09,0.84,0.25
			s0.31,0.41,0.31,0.71c0,0.23-0.06,0.41-0.17,0.57s-0.28,0.26-0.49,0.32l0.71,1L33.68,69.63L33.68,69.63z M32.73,68.52
			c0.31,0,0.54-0.07,0.7-0.2c0.16-0.13,0.24-0.33,0.24-0.57s-0.08-0.44-0.24-0.57c-0.16-0.13-0.39-0.2-0.7-0.2h-0.82v1.55
			L32.73,68.52L32.73,68.52z M35.76,69.65c-0.36,0-0.64-0.1-0.84-0.31c-0.2-0.21-0.3-0.52-0.3-0.92v-1.64h0.21v1.63
			c0,0.35,0.08,0.61,0.24,0.79s0.39,0.26,0.7,0.26c0.3,0,0.53-0.09,0.69-0.26c0.16-0.17,0.24-0.44,0.24-0.79v-1.63h0.21v1.64
			c0,0.4-0.1,0.71-0.3,0.92C36.4,69.55,36.13,69.65,35.76,69.65L35.76,69.65z M39.07,69.65c-0.28,0-0.53-0.07-0.76-0.19
			c-0.23-0.12-0.4-0.3-0.53-0.52c-0.13-0.22-0.2-0.47-0.2-0.74c0-0.28,0.07-0.52,0.2-0.74s0.31-0.39,0.53-0.52
			c0.23-0.12,0.47-0.19,0.76-0.19c0.2,0,0.39,0.04,0.57,0.1s0.32,0.17,0.44,0.3l-0.13,0.13c-0.23-0.23-0.52-0.33-0.87-0.33
			c-0.24,0-0.46,0.05-0.65,0.16c-0.2,0.11-0.35,0.26-0.46,0.45c-0.11,0.19-0.17,0.41-0.17,0.64c0,0.23,0.06,0.45,0.17,0.64
			c0.11,0.19,0.26,0.34,0.46,0.45c0.2,0.11,0.41,0.16,0.65,0.16c0.35,0,0.65-0.12,0.87-0.34l0.13,0.13
			c-0.12,0.13-0.27,0.23-0.44,0.3C39.47,69.61,39.28,69.65,39.07,69.65L39.07,69.65z M43.11,66.79v2.85H42.9v-1.35h-1.91v1.35h-0.21
			v-2.85h0.21v1.31h1.91v-1.31H43.11z M45.31,69.65c-0.28,0-0.53-0.07-0.76-0.19c-0.23-0.12-0.4-0.3-0.53-0.52
			c-0.13-0.22-0.2-0.47-0.2-0.74s0.07-0.52,0.2-0.74c0.13-0.22,0.31-0.39,0.53-0.52c0.23-0.12,0.48-0.19,0.76-0.19
			c0.28,0,0.53,0.07,0.76,0.19c0.23,0.12,0.4,0.3,0.53,0.52c0.13,0.22,0.2,0.47,0.2,0.74s-0.07,0.52-0.2,0.74
			c-0.13,0.22-0.31,0.39-0.53,0.52c-0.23,0.12-0.48,0.19-0.76,0.19V69.65z M45.31,69.46c0.24,0,0.45-0.05,0.65-0.16
			c0.19-0.11,0.34-0.26,0.46-0.45c0.11-0.19,0.17-0.41,0.17-0.64s-0.06-0.45-0.17-0.64c-0.11-0.19-0.26-0.34-0.46-0.45
			c-0.19-0.11-0.41-0.16-0.65-0.16s-0.46,0.05-0.65,0.16c-0.2,0.11-0.35,0.26-0.46,0.45c-0.11,0.19-0.17,0.41-0.17,0.64
			s0.06,0.45,0.17,0.64c0.11,0.19,0.26,0.34,0.46,0.45C44.86,69.41,45.07,69.46,45.31,69.46z M50.21,69.63l-0.01-2.44l-1.19,2.06
			h-0.1l-1.19-2.05v2.43h-0.2v-2.85h0.17l1.27,2.21l1.27-2.21h0.17l0.01,2.85H50.21L50.21,69.63z M52.62,69.65
			c-0.28,0-0.53-0.07-0.76-0.19c-0.23-0.12-0.4-0.3-0.53-0.52c-0.13-0.22-0.2-0.47-0.2-0.74s0.07-0.52,0.2-0.74
			c0.13-0.22,0.31-0.39,0.53-0.52c0.23-0.12,0.48-0.19,0.76-0.19c0.28,0,0.53,0.07,0.76,0.19c0.23,0.12,0.4,0.3,0.53,0.52
			c0.13,0.22,0.2,0.47,0.2,0.74s-0.07,0.52-0.2,0.74c-0.13,0.22-0.31,0.39-0.53,0.52c-0.23,0.12-0.48,0.19-0.76,0.19V69.65z
			 M52.62,69.46c0.24,0,0.45-0.05,0.65-0.16c0.19-0.11,0.34-0.26,0.46-0.45c0.11-0.19,0.17-0.41,0.17-0.64s-0.06-0.45-0.17-0.64
			c-0.11-0.19-0.26-0.34-0.46-0.45c-0.19-0.11-0.41-0.16-0.65-0.16c-0.24,0-0.46,0.05-0.65,0.16c-0.2,0.11-0.35,0.26-0.46,0.45
			c-0.11,0.19-0.17,0.41-0.17,0.64s0.06,0.45,0.17,0.64c0.11,0.19,0.26,0.34,0.46,0.45C52.17,69.41,52.38,69.46,52.62,69.46z
			 M55.57,69.65c-0.21,0-0.41-0.04-0.6-0.11c-0.19-0.07-0.33-0.17-0.44-0.28l0.09-0.15c0.1,0.11,0.23,0.19,0.41,0.26
			c0.17,0.07,0.35,0.1,0.54,0.1c0.27,0,0.47-0.05,0.61-0.15c0.14-0.1,0.21-0.24,0.21-0.4c0-0.13-0.04-0.23-0.11-0.31
			c-0.07-0.07-0.17-0.13-0.27-0.17c-0.11-0.04-0.25-0.08-0.44-0.12c-0.21-0.05-0.38-0.1-0.5-0.15c-0.12-0.05-0.23-0.12-0.32-0.23
			c-0.09-0.1-0.13-0.24-0.13-0.41c0-0.14,0.04-0.26,0.11-0.38c0.07-0.12,0.18-0.2,0.33-0.28c0.15-0.07,0.34-0.1,0.56-0.1
			c0.16,0,0.31,0.02,0.47,0.07c0.15,0.04,0.28,0.11,0.39,0.19l-0.08,0.17c-0.12-0.08-0.24-0.14-0.38-0.18
			c-0.14-0.04-0.27-0.06-0.41-0.06c-0.26,0-0.47,0.05-0.6,0.16c-0.14,0.11-0.2,0.24-0.2,0.41c0,0.13,0.04,0.23,0.11,0.31
			c0.07,0.07,0.17,0.13,0.27,0.17c0.11,0.04,0.25,0.09,0.44,0.13c0.21,0.05,0.38,0.1,0.5,0.15c0.12,0.05,0.23,0.12,0.32,0.22
			c0.09,0.1,0.13,0.23,0.13,0.4c0,0.14-0.04,0.26-0.11,0.38c-0.07,0.12-0.19,0.2-0.34,0.27c-0.15,0.07-0.34,0.1-0.57,0.1
			L55.57,69.65z M55.97,66.07h0.29l-0.64,0.48H55.4L55.97,66.07z M58.51,69.65c-0.28,0-0.53-0.07-0.76-0.19
			c-0.23-0.12-0.4-0.3-0.53-0.52c-0.13-0.22-0.2-0.47-0.2-0.74c0-0.28,0.07-0.52,0.2-0.74s0.31-0.39,0.53-0.52
			c0.23-0.12,0.47-0.19,0.76-0.19c0.2,0,0.39,0.04,0.57,0.1c0.17,0.07,0.32,0.17,0.44,0.3l-0.13,0.13
			c-0.23-0.23-0.52-0.33-0.87-0.33c-0.24,0-0.46,0.05-0.65,0.16c-0.2,0.11-0.35,0.26-0.46,0.45c-0.11,0.19-0.17,0.41-0.17,0.64
			c0,0.23,0.06,0.45,0.17,0.64c0.11,0.19,0.26,0.34,0.46,0.45c0.2,0.11,0.41,0.16,0.65,0.16c0.35,0,0.65-0.12,0.87-0.34l0.13,0.13
			c-0.12,0.13-0.27,0.23-0.44,0.3C58.91,69.61,58.72,69.65,58.51,69.65L58.51,69.65z M60.22,66.79h0.21v2.85h-0.21V66.79z"/>
	</g>
</g>
</svg>
