<?xml version="1.0" encoding="UTF-8"?>
<svg id="Warstwa_1" data-name="Warstwa 1" xmlns="http://www.w3.org/2000/svg" viewBox="0 0 25.8 28.31">
  <defs>
    <style>
      .cls-1 {
        fill: #58f9a2;
      }

      .cls-1, .cls-2, .cls-3, .cls-4 {
        stroke-width: 0px;
      }

      .cls-2 {
        fill: #0fcf5e;
      }

      .cls-3 {
        fill: #30cf79;
      }

      .cls-4 {
        fill: #fff;
      }
    </style>
  </defs>
  <g>
    <path class="cls-2" d="m12.9,28.31c-.84,0-1.67-.22-2.42-.66l-4.04-2.33c-.08-.05-.16-.1-.24-.15l-3.83-2.21C1.01,22.17.12,20.73.03,19.16h0l-.02-.28v-9.44c0-1.84,1.08-3.53,2.76-4.3L10.54.63c1.48-.85,3.3-.85,4.78.03l4.04,2.33c.08.05.16.1.24.15l3.83,2.21c1.37.79,2.26,2.23,2.35,3.8h0l.02.28v9.44c0,1.84-1.08,3.53-2.76,4.3l-7.78,4.5c-.73.42-1.55.63-2.36.63ZM.57,18.6l.02.28c0,1.48.8,2.85,2.08,3.59l3.84,2.22c.08.05.15.1.23.14l4.04,2.33c1.3.77,2.91.78,4.21.03l7.8-4.51c1.5-.69,2.46-2.17,2.46-3.8l-.02-9.44c0-1.48-.8-2.85-2.08-3.59l-3.84-2.22c-.08-.06-.15-.1-.23-.14l-4.04-2.33c-1.29-.77-2.9-.78-4.2-.03L3.02,5.64c-1.5.69-2.45,2.17-2.45,3.8v9.16Z"/>
    <path class="cls-4" d="m.57,18.59l.02.28c0,1.48.8,2.85,2.08,3.59l3.84,2.22c.08.05.15.1.23.14l4.04,2.33c1.3.77,2.91.78,4.21.03l7.8-4.51c1.5-.69,2.46-2.17,2.46-3.8l-.02-9.44c0-1.48-.8-2.85-2.08-3.59l-3.84-2.22c-.08-.06-.15-.1-.23-.14l-4.04-2.33c-1.29-.77-2.9-.78-4.2-.03L3.02,5.64c-1.5.69-2.45,2.17-2.45,3.8v9.16Z"/>
  </g>
  <g id="Warstwa_1-2" data-name="Warstwa_1">
    <polygon class="cls-4" points="15.75 15.47 15.75 18.83 18.37 20.34 18.37 13.96 15.75 15.47"/>
    <polygon class="cls-3" points="12.9 23.5 15.75 21.86 15.75 15.47 18.37 13.96 18.37 20.34 21 18.83 21 9.48 17.46 11.53 12.9 14.16 12.9 23.5"/>
    <polygon class="cls-3" points="7.43 13.96 7.43 20.34 10.06 18.83 10.06 15.47 7.43 13.96"/>
    <polygon class="cls-4" points="7.43 13.96 10.06 15.47 10.06 21.86 12.9 23.5 12.9 14.16 4.81 9.48 4.81 18.83 7.43 20.34 7.43 13.96"/>
    <path class="cls-1" d="m10.11,9.48l2.79-1.61,2.79,1.61-2.79,1.61-2.79-1.61Zm10.88,0h0l-8.09-4.67-8.09,4.67,8.09,4.67,4.55-2.63,3.54-2.04Z"/>
    <polygon class="cls-3" points="12.9 7.87 10.11 9.48 12.9 11.1 12.9 7.87"/>
    <polygon class="cls-4" points="15.69 9.48 12.9 7.87 12.9 11.1 15.69 9.48"/>
  </g>
</svg>