
<svg id="" data-name="" xmlns="http://www.w3.org/2000/svg" viewBox="0 0 56.96 63.43">
  <defs>
    <style>
      .cls-1 {
        fill: #2181b3;
        stroke-width: 0px;
      }
    </style>
  </defs>
  <polygon class="cls-1" points="53.4 36.12 52.44 35.26 44.12 35.26 43.16 36.12 42.74 39.24 43.58 40.33 44.66 39.5 44.97 37.2 51.59 37.2 52.25 42.03 45.15 42.03 44.18 43 45.15 43.98 52.52 43.98 54.9 61.5 48.28 61.5 47.33 62.49 48.28 63.43 56 63.43 56.74 63.11 56.96 62.34 53.4 36.12"/>
  <path class="cls-1" d="m38.78,27.07h-10.92l-.96.82-1.47,10.86.83,1.09,1.07-.82.45-3.24h11.07l3.5,25.72h-11.44l-.97.98.97.95h12.55l.72-.32.23-.77-4.69-34.45-.94-.82Zm-10.73,6.76l.65-4.82h9.23l.66,4.82h-10.54Z"/>
  <path class="cls-1" d="m20.28,18.86H6.78l-.97.84L0,62.34l.23.77.73.32h25.11l.73-.32.23-.77-5.79-42.64-.96-.84Zm-.85,1.93l.79,5.82H6.82l.78-5.82h11.83ZM2.06,61.5L6.56,28.53h13.93l4.48,32.98H2.06Z"/>
  <polygon class="cls-1" points="10.69 11.52 9.47 14.48 9.47 15.86 10.13 16.11 10.82 15.86 12.61 11.52 10.82 7.22 9.61 4.3 10.82 1.36 10.82 0 9.47 0 7.67 4.3 9.47 8.61 10.69 11.52"/>
  <polygon class="cls-1" points="17.44 11.52 16.24 14.48 16.24 15.86 16.9 16.11 17.59 15.86 19.37 11.52 17.59 7.22 16.37 4.3 17.59 1.36 17.59 0 16.24 0 14.43 4.3 16.24 8.61 17.44 11.52"/>
  <polygon class="cls-1" points="30.71 19.76 29.69 22.2 29.69 23.58 30.39 23.85 31.07 23.58 32.65 19.76 31.07 15.95 30.07 13.47 31.07 11.01 31.07 9.67 29.69 9.67 28.12 13.47 29.69 17.29 30.71 19.76"/>
  <polygon class="cls-1" points="36.57 19.76 35.56 22.2 35.56 23.58 36.25 23.85 36.94 23.58 38.51 19.76 36.94 15.95 35.92 13.47 36.94 11.01 36.94 9.67 35.56 9.67 33.98 13.47 35.56 17.29 36.57 19.76"/>
  <polygon class="cls-1" points="45.95 27.95 45.11 29.93 45.11 31.3 45.81 31.6 46.49 31.3 47.88 27.95 46.49 24.62 45.66 22.64 46.49 20.67 46.49 19.3 45.11 19.3 43.75 22.64 45.11 25.98 45.95 27.95"/>
  <polygon class="cls-1" points="50.89 27.95 50.08 29.93 50.08 31.3 50.76 31.6 51.45 31.3 52.83 27.95 51.45 24.62 50.61 22.64 51.45 20.67 51.45 19.3 50.08 19.3 48.7 22.64 50.08 25.98 50.89 27.95"/>
</svg>