<?xml version="1.0" encoding="utf-8"?>
<!-- Generator: Adobe Illustrator 28.0.0, SVG Export Plug-In . SVG Version: 6.00 Build 0)  -->
<svg version="1.1" id="Warstwa_1" xmlns="http://www.w3.org/2000/svg" xmlns:xlink="http://www.w3.org/1999/xlink" x="0px" y="0px"
	 viewBox="0 0 19.1 21" style="enable-background:new 0 0 19.1 21;" xml:space="preserve">
<style type="text/css">
	.st0{fill:#FFFFFF;stroke:#4FB15D;stroke-width:0.57;stroke-miterlimit:22.93;}
	.st1{fill:#4FB15D;}
	.st2{fill:none;stroke:#4FB15D;stroke-width:0.57;stroke-miterlimit:22.93;}
</style>
<path class="st0" d="M11.2,0.7l3,1.7c0.1,0,0.1,0.1,0.2,0.1l2.8,1.6c0.5,0.3,1.6,2,1.6,2.8l0,0V14c0,1.3-0.8,2.5-1.9,3l-2.7,1.6l0,0
	l-3,1.7c-1.1,0.6-2.3,0.6-3.3,0l-3-1.7c-0.1,0-0.1-0.1-0.2-0.1l-2.8-1.6c-1-0.6-1.6-1.7-1.6-2.8l0,0V7c0-1.3,0.8-2.5,1.9-3l2.7-1.6
	l0,0l3-1.7C9,0.1,10.3,0.2,11.2,0.7L11.2,0.7z"/>
<g>
	<path class="st1" d="M13.7,9.9V8.7c0-0.5-0.4-0.8-0.8-0.8h-8C4.8,7.9,4.7,8,4.7,8.1v1.8c0,0.1,0.1,0.2,0.2,0.2h8.6
		C13.6,10.1,13.7,10,13.7,9.9 M6.6,9.7H5V8.3h1.5L6.6,9.7L6.6,9.7z M9.5,9.7H7V8.3h2.5V9.7z M13.2,9.7H10V8.3h2.8
		c0.2,0,0.4,0.2,0.4,0.4V9.7L13.2,9.7z"/>
	<path class="st1" d="M15.8,9.4L15,8.7c-0.1-1.1-1-2-2.2-2H3.5c-0.1,0-0.2,0.1-0.2,0.2V13c0,0.1,0.1,0.2,0.2,0.2h1.1
		c0.1,0.6,0.6,1,1.2,1s1.1-0.4,1.2-1h2.6c0.1,0,0.2-0.1,0.2-0.2s-0.1-0.2-0.2-0.2H7c-0.1-0.6-0.6-1-1.2-1s-1.1,0.4-1.2,1H3.7v-1.5
		h2.7c0.1,0,0.2-0.1,0.2-0.2s-0.1-0.2-0.2-0.2H3.7V7.2h9.1c0.9,0,1.7,0.8,1.7,1.7c0,0.1,0,0.1,0.1,0.2l0.8,0.7v1.1H8.7
		c-0.1,0-0.2,0.1-0.2,0.2s0.1,0.2,0.2,0.2h6.7v1.5h-2c-0.1-0.6-0.6-1-1.2-1s-1.1,0.4-1.2,1h-0.6c-0.1,0-0.2,0.1-0.2,0.2
		s0.1,0.2,0.2,0.2H11c0.1,0.6,0.6,1,1.2,1s1.1-0.4,1.2-1h2.2c0.1,0,0.2-0.1,0.2-0.2V9.6C15.9,9.5,15.9,9.4,15.8,9.4 M5,13
		c0-0.4,0.3-0.8,0.8-0.8s0.8,0.3,0.8,0.8c0,0.4-0.3,0.8-0.8,0.8S5,13.4,5,13L5,13z M12.2,13.8c-0.4,0-0.8-0.3-0.8-0.8
		c0-0.4,0.3-0.8,0.8-0.8c0.4,0,0.8,0.3,0.8,0.8C13,13.4,12.6,13.8,12.2,13.8z"/>
	<path class="st1" d="M7.2,10.8C7.1,10.8,7,10.9,7,11s0.1,0.2,0.2,0.2h0.7c0.1,0,0.2-0.1,0.2-0.2S8,10.8,7.9,10.8H7.2z"/>
	<path class="st2" d="M5.8,13.3c0.1,0,0.1,0,0.2-0.1c0,0,0-0.1,0-0.2v-0.1c0,0-0.1-0.1-0.2-0.1s-0.1,0-0.2,0.1c0,0-0.1,0.1-0.1,0.2
		c0,0.1,0,0.1,0.1,0.2C5.7,13.2,5.7,13.3,5.8,13.3"/>
	<path class="st2" d="M12.2,12.8c-0.1,0-0.1,0-0.2,0.1c0,0-0.1,0.1-0.1,0.2s0,0.1,0.1,0.2c0,0,0.1,0.1,0.2,0.1s0.1,0,0.2-0.1
		c0,0,0.1-0.1,0.1-0.2s0-0.1-0.1-0.2C12.4,12.8,12.3,12.8,12.2,12.8"/>
</g>
</svg>
