<?xml version="1.0" encoding="utf-8"?>
<!-- Generator: Adobe Illustrator 28.0.0, SVG Export Plug-In . SVG Version: 6.00 Build 0)  -->
<svg version="1.1" id="Warstwa_1" xmlns="http://www.w3.org/2000/svg" xmlns:xlink="http://www.w3.org/1999/xlink" x="0px" y="0px"
	 viewBox="0 0 19.1 21.7" style="enable-background:new 0 0 19.1 21.7;" xml:space="preserve">
<style type="text/css">
	.st0{fill:#FFFFFF;stroke:#4FB15D;stroke-width:0.57;stroke-miterlimit:22.93;}
	.st1{fill:#FFFFFF;stroke:#4FB15D;stroke-width:0.45;stroke-linecap:round;stroke-linejoin:round;stroke-miterlimit:22.93;}
	.st2{fill:#4FB15D;}
	.st3{fill:#4FB15D;stroke:#4FB15D;stroke-width:0.2;stroke-miterlimit:10;}
	.st4{fill:#FFFFFF;}
</style>
<path class="st0" d="M11.2,1l3,1.7c0.1,0,0.1,0.1,0.2,0.1l2.8,1.6c1,0.6,1.6,1.7,1.6,2.8l0,0v7.1c0,1.3-0.8,2.5-1.9,3l-2.7,1.6l0,0
	l-3,1.7c-1.1,0.6-2.3,0.6-3.3,0l-3-1.7c-0.1,0-0.1-0.1-0.2-0.1l-2.8-1.6c-1-0.6-1.6-1.7-1.6-2.8l0,0V7.3c0-1.3,0.8-2.5,1.9-3
	l2.7-1.6l0,0l3-1.7C9,0.4,10.3,0.5,11.2,1L11.2,1z"/>
<ellipse class="st1" cx="11.5" cy="15.3" rx="3.8" ry="0.9"/>
<path class="st2" d="M-9.7-4.9h-0.2v-0.8c0-0.3-0.2-0.6-0.6-0.6h-3.9c-0.3,0-0.6,0.2-0.6,0.6v0.8h-0.2c-0.3,0-0.5,0.2-0.5,0.5v0.8
	h0.3v-0.8c0-0.1,0.1-0.2,0.2-0.2h0.3V-1c0,0.2,0.1,0.3,0.3,0.4v0.2c0,0.2,0.2,0.4,0.4,0.4h0.6c0.2,0,0.4-0.2,0.4-0.4v-0.2h1.6v0.2
	c0,0.2,0.2,0.4,0.4,0.4h0.6c0.2,0,0.4-0.2,0.4-0.4v-0.2C-10-0.7-9.9-0.8-9.9-1v-3.5h0.3c0.1,0,0.2,0.1,0.2,0.2v0.8h0.3v-0.9
	C-9.2-4.7-9.4-4.9-9.7-4.9 M-14.6-5h2v2.3h-2V-5z M-13.5-0.4c0,0.1-0.1,0.1-0.1,0.1h-0.6c-0.1,0-0.1-0.1-0.1-0.1v-0.2h0.8
	C-13.5-0.6-13.5-0.4-13.5-0.4z M-10.5-0.4c0,0.1-0.1,0.1-0.1,0.1h-0.6c-0.1,0-0.1-0.1-0.1-0.1v-0.2h0.8C-10.5-0.6-10.5-0.4-10.5-0.4
	z M-10.2-1c0,0.1-0.1,0.1-0.1,0.1h-4.2c-0.1,0-0.1-0.1-0.1-0.1v-1.5h4.4C-10.2-2.5-10.2-1-10.2-1z M-10.2-2.8h-2v-2.3h2V-2.8z
	 M-10.2-5.4h-4.3v-0.4c0-0.1,0.1-0.2,0.2-0.2h3.9c0.1,0,0.2,0.1,0.2,0.2V-5.4z"/>
<g>
	<path class="st3" d="M31,8.4c-0.1-0.2-0.2-0.5-0.6-0.5h-0.3h-0.7h-4.2c-0.1,0-0.2,0-0.3,0c-0.1,0-0.3,0-0.4,0s-0.3,0-0.4,0
		c-0.2,0.1-0.3,0.3-0.4,0.5l-0.2-0.1l0.8-1.4c0-0.1,0-0.1,0-0.2s-0.1-0.1-0.2-0.1c-0.4,0-0.8-0.2-1-0.6S23,5.2,23,4.7
		c0-0.1,0-0.2,0-0.3c0-1.2,0-2.5,0-3.7c0-1,0-1.9,0.7-2.6c0.6-0.6,1.4-0.6,2.2-0.6h0.5c0.1,0,0.1,0,0.2-0.1c0,0,0-0.1,0-0.2
		c0-0.1-0.1-0.2-0.1-0.3c-0.2-0.4-0.3-0.7-0.1-0.9h2.2c0.1,0.1,0,0.4-0.2,0.9c0,0.1-0.1,0.2-0.1,0.3s0,0.1,0,0.2
		c0,0,0.1,0.1,0.2,0.1s0.1,0,0.2,0s0.2,0,0.3,0c0.2,0,0.4,0,0.5-0.1s0.2-0.2,0.3-0.4c0.1-0.1,0.1-0.2,0.2-0.3
		c0.4-0.4,0.9-0.6,1.4-0.7h0.4c0.6,0.1,1.5,0.5,1.9,1.6c0.3,1.1-0.3,2.1-0.8,2.8c-0.2,0.2-0.4,0.4-0.6,0.6L32,1.2
		c-0.1,0.1-0.4,0.3-0.5,0.4l0,0c-0.3,0-0.8-0.5-1-0.8l-0.1-0.1C29.6-0.1,29.3-1,29.3-2c0,0,0-0.1-0.1-0.1l-0.1-0.1h-2.5
		c-0.1,0-0.3,0-0.4,0s-0.3,0-0.4,0c-0.4,0-0.9,0-1.3,0.2c-1.2,0.6-1.2,2-1.1,3.2c0,0.2,0,0.4,0,0.6v2.5c0,0.1,0,0.2,0,0.3
		c0,0.6-0.1,1.4,0.6,1.6c0,0,0.2,0.1,0.4,0.1c0.1,0,0.2,0,0.3,0c0.1,0,0.2,0,0.3,0h5.4c0.3,0,0.7,0,0.9-0.3c0.3-0.3,0.2-0.6,0.2-1
		V3.7c0.1,0,0.1,0,0.2,0s0.1,0,0.1,0s0,0.2,0,0.3s0,0.1,0,0.1v0.3c0,0.4,0,0.7,0,1.1c-0.1,0.7-0.7,1-1.2,1c-0.1,0-0.1,0-0.1,0.1
		s0,0.1,0,0.2l0.8,1.4L31,8.4z M25.1,6.5c0,0-0.2,0-0.3,0.1c-0.1,0.2-0.2,0.3-0.3,0.5l-0.1,0.2c0,0.1,0,0.1,0,0.2s0.1,0.1,0.2,0.1
		h5.7c0.1,0,0.1,0,0.2-0.1c0-0.1,0-0.1,0-0.2l-0.1-0.2c-0.1-0.1-0.2-0.3-0.2-0.4c-0.1-0.1-0.2-0.2-0.3-0.2h-3.5L25.1,6.5z M31.4-3.7
		c-0.5,0-1,0.2-1.3,0.6c-0.4,0.4-0.6,0.9-0.6,1.4c0.1,1.2,1.1,2.2,1.8,2.8h0.1h0.1c0.9-0.7,1.8-1.7,1.8-2.9c0-1-0.8-1.9-1.8-2
		C31.5-3.7,31.4-3.7,31.4-3.7z M26.8-3.7c-0.1,0-0.1,0-0.2,0.1c0,0,0,0.1,0,0.2c0,0.1,0,0.1,0.1,0.2c0.1,0.3,0.2,0.7,0.6,0.7h0.1
		c0.2,0,0.3-0.1,0.4-0.2C27.9-2.8,28-3,28-3.2c0-0.1,0-0.1,0.1-0.2c0-0.1,0-0.1,0-0.2c0,0-0.1-0.1-0.2-0.1H26.8z"/>
	<path class="st3" d="M25.3,2.6c-0.4,0-0.7-0.3-0.7-0.7c0-0.7,0-1.4,0-2.1c0-0.4,0.3-0.7,0.7-0.7c0.5,0,3,0,3,0v0.3h-0.5
		c-0.1,0-0.2,0.1-0.2,0.2v2.5c0,0.1,0.1,0.2,0.2,0.2h0.1h1.6c0.3,0,0.5-0.2,0.5-0.5V1.6h0.3l0,0c0,0.1,0,0.3,0,0.4
		c-0.1,0.3-0.3,0.5-0.6,0.5h-2.2L25.3,2.6z M25.9-0.6c-0.2,0-0.4,0-0.6,0c-0.3,0-0.4,0.2-0.5,0.5c0,0.2,0,0.4,0,0.7
		c0,0.1,0,0.2,0,0.3s0,0.2,0,0.3c0,0.2,0,0.5,0,0.7c0,0.3,0.2,0.4,0.5,0.5c0.2,0,0.4,0,0.6,0s0.4,0,0.6,0s0.4,0,0.6,0
		c0.1,0,0.2-0.1,0.2-0.2v-2.5c0-0.1-0.1-0.2-0.2-0.2c-0.2,0-0.4,0-0.6,0C26.3-0.6,26.1-0.6,25.9-0.6z"/>
	<path class="st3" d="M25.1,5.2c-0.5,0-0.7-0.4-0.7-0.8s0.2-0.8,0.7-0.8s0.7,0.4,0.7,0.8C25.8,4.8,25.6,5.2,25.1,5.2L25.1,5.2z
		 M25.1,3.9c-0.3,0-0.5,0.2-0.5,0.5c0,0.3,0.2,0.5,0.5,0.5s0.5-0.2,0.5-0.5C25.6,4.1,25.4,3.9,25.1,3.9L25.1,3.9z"/>
	<path class="st3" d="M29.7,5.2c-0.5,0-0.7-0.4-0.7-0.8s0.2-0.8,0.7-0.8s0.7,0.4,0.7,0.8C30.5,4.8,30.2,5.2,29.7,5.2L29.7,5.2z
		 M29.7,3.9c-0.3,0-0.5,0.2-0.5,0.5c0,0.3,0.2,0.5,0.5,0.5s0.5-0.2,0.5-0.5C30.2,4.1,30,3.9,29.7,3.9L29.7,3.9z"/>
	<rect x="26.8" y="4.3" class="st3" width="1.3" height="0.3"/>
	<rect x="31.6" y="2.5" class="st3" width="0.3" height="0.3"/>
	<path class="st3" d="M31.4-0.8c-0.6,0-0.9-0.5-0.9-1s0.3-1,0.9-1s0.9,0.5,0.9,1S32.1-0.8,31.4-0.8L31.4-0.8z M31.4-2.4
		c-0.4,0-0.7,0.3-0.7,0.7c0,0.3,0.2,0.7,0.7,0.7l0,0c0.2,0,0.4-0.1,0.6-0.3c0.1-0.2,0.1-0.5,0-0.7C31.9-2.3,31.7-2.4,31.4-2.4z"/>
</g>
<g>
	<path d="M33.6,16c1,0.2,1.9,0.8,2.2,1.8c0.4,1.2-0.2,2.3-0.9,3.2c-0.2,0.3-0.4,0.5-0.7,0.7c-0.2,0.2-0.5,0.5-0.8,0.6
		c-0.5,0.1-1.1-0.7-1.4-1c-0.8-0.9-1.3-1.8-1.3-3.1c-0.9,0-1.8,0-2.7,0c-0.7,0-1.6-0.1-2.2,0.2c-1.4,0.7-1.1,2.6-1.1,3.9
		c0,0.9,0,1.8,0,2.7c0,0.6-0.2,1.6,0.5,1.9C25.6,27,26,27,26.4,27c0.5,0,0.9,0,1.4,0c0.9,0,1.8,0,2.7,0c0.5,0,1,0,1.6,0
		c0.4,0,0.8,0,1-0.3c0.3-0.3,0.2-0.7,0.2-1c0-0.5,0-1,0-1.5c0.1,0,0.6-0.1,0.7,0c0.1,0.1,0,0.5,0,0.6c0,0.5,0,1,0,1.5
		c-0.1,0.8-0.8,1.2-1.5,1.3c0.3,0.6,0.7,1.1,1,1.7c-0.2,0.1-0.4,0.2-0.6,0.4c-0.2-0.3-0.2-0.6-0.6-0.6c-0.4,0-0.7,0-1.1,0
		c-0.8,0-1.5,0-2.3,0s-1.5,0-2.3,0c-0.3,0-0.8-0.1-1.1,0c-0.2,0.1-0.3,0.4-0.4,0.6c-0.2-0.1-0.4-0.2-0.6-0.4c0.3-0.6,0.7-1.1,1-1.7
		c-0.5,0-1-0.3-1.3-0.7c-0.3-0.5-0.2-1.2-0.2-1.8c0-1.3,0-2.7,0-4c0-1.1,0-2.1,0.9-2.9s2-0.7,3.1-0.7c-0.2-0.4-0.7-1.2-0.2-1.6
		c0.8,0,1.6,0,2.4,0c0.6,0.3,0,1.1-0.2,1.6c0.3,0,0.8,0.1,1-0.1s0.3-0.5,0.5-0.7c0.5-0.5,1-0.6,1.6-0.8C33.2,16,33.4,16,33.6,16z
		 M33.3,21.6c0.8-0.7,1.9-1.8,1.9-3c0-1-0.8-1.9-1.8-1.9c-1.1-0.1-2,0.9-2,2C31.4,19.9,32.4,20.9,33.3,21.6z M25.8,28.5
		c2.1,0,4.1,0,6.2,0c-0.1-0.2-0.3-0.4-0.4-0.6c0-0.1-0.1-0.1-0.2-0.1c-1,0-2,0-3,0c-0.7,0-1.4,0-2.1,0c-0.1,0-0.1,0-0.1,0.1
		C26.1,28.1,26,28.3,25.8,28.5z M28.3,16.7c0.1,0.3,0.2,0.8,0.5,0.9c0.2,0,0.3,0,0.4-0.1c0.1-0.2,0.2-0.5,0.3-0.7
		C29.1,16.7,28.7,16.7,28.3,16.7z"/>
	<path d="M30.1,19.3c0,0.2,0,0.5,0,0.7c-0.3,0-0.5,0-0.8,0c0,0.9,0,1.8,0,2.7h0.1c0.6,0,1.2,0,1.7,0c0.2,0,0.3-0.1,0.3-0.3
		c0-0.1,0-0.3,0-0.4c0.2,0,0.5,0,0.7,0c0,0.2,0,0.5-0.1,0.7c-0.1,0.4-0.5,0.7-0.9,0.7c-1.5,0-3.1,0-4.6,0c-0.5,0-0.9-0.4-0.9-0.9
		c0-0.8,0-1.5,0-2.3c0-0.5,0.4-0.9,0.9-0.9C27.7,19.3,28.9,19.3,30.1,19.3C30,19.3,30,19.3,30.1,19.3z M28.6,20
		c-0.6,0-1.3-0.1-1.9,0c-0.2,0-0.3,0.1-0.3,0.3c0,0.3,0,0.7,0,1s0,0.7,0,1c0,0.2,0.1,0.3,0.3,0.3c0.6,0.1,1.3,0,1.9,0
		C28.6,21.8,28.6,20.9,28.6,20z"/>
	<path d="M26.4,26.3c-1.3,0-1.3-2.1,0-2.1C27.8,24.2,27.7,26.3,26.4,26.3z M26.4,25.6c0.4,0,0.4-0.6,0-0.6
		C26,24.9,26,25.6,26.4,25.6z"/>
	<path d="M32.5,25.3c0,1.4-2.1,1.3-2.1,0C30.5,23.9,32.5,23.9,32.5,25.3z M31.4,25.6c0.4,0,0.4-0.6,0.1-0.6
		C31.1,24.9,31,25.6,31.4,25.6z"/>
	<path d="M28,25.6c0-0.2,0-0.5,0-0.7c0.6,0,1.2,0,1.8,0c0,0.2,0,0.5,0,0.7C29.2,25.6,28.6,25.6,28,25.6z"/>
	<path d="M33.3,23c0.2,0,0.5,0,0.7,0c0,0.2,0,0.5,0,0.7c-0.2,0-0.5,0-0.7,0C33.3,23.4,33.3,23.2,33.3,23z"/>
	<path d="M33.3,19.8c-1.6,0-1.6-2.5,0-2.5C34.9,17.3,34.9,19.8,33.3,19.8z M33.3,19.1c0.7,0,0.7-1.1,0-1.1
		C32.6,18,32.6,19.1,33.3,19.1z"/>
</g>
<path class="st2" d="M11,7.6h-0.3V6.4c0-0.4-0.3-0.8-0.8-0.8H4.3c-0.4,0-0.8,0.3-0.8,0.8v1.2H3.2c-0.4,0-0.6,0.3-0.6,0.6v1.2H3V8.2
	C3,8.1,3.1,8,3.2,8h0.4v5.1c0,0.2,0.2,0.5,0.4,0.6V14c0,0.3,0.2,0.6,0.6,0.6h0.9C5.7,14.6,6,14.3,6,14v-0.3h2.2V14
	c0,0.3,0.2,0.6,0.6,0.6h0.9c0.3,0,0.6-0.2,0.6-0.6v-0.3c0.2-0.1,0.4-0.2,0.4-0.6v-5H11c0.1,0,0.2,0.1,0.2,0.2v1.2h0.4V8.2
	C11.6,7.9,11.4,7.6,11,7.6 M4,7.4h2.9v3.2H4V7.4z M5.5,14.1c0,0.1-0.1,0.2-0.2,0.2H4.5c-0.1,0-0.2-0.1-0.2-0.2v-0.3h1.2V14.1z
	 M9.8,14.1c0,0.1-0.1,0.2-0.2,0.2H8.8c-0.1,0-0.2-0.1-0.2-0.2v-0.3h1.2V14.1z M10.2,13.2c0,0.1-0.1,0.2-0.2,0.2H4.1
	c-0.1,0-0.2-0.1-0.2-0.2V11h6.3V13.2z M10.2,10.6H7.3V7.4h2.9C10.2,7.4,10.2,10.6,10.2,10.6z M10.2,6.9H4V6.4c0-0.2,0.2-0.3,0.3-0.3
	h5.5c0.2,0,0.3,0.2,0.3,0.3L10.2,6.9L10.2,6.9z"/>
<g>
	<g>
		<path class="st4" d="M11.5,15.3c-0.3,0-0.6-0.2-0.7-0.4l0,0l-2.5-4.6c0,0,0,0,0-0.1C8,9.8,7.9,9.3,7.9,8.8c0-1.9,1.6-3.5,3.6-3.5
			s3.6,1.5,3.6,3.5c0,0.5-0.1,1-0.3,1.4l0,0l-2.5,4.6l0,0C12.1,15.2,11.9,15.3,11.5,15.3z"/>
		<path class="st2" d="M11.5,5.6c1.9,0,3.4,1.4,3.4,3.2c0,0.5-0.1,0.9-0.3,1.3c0,0,0,0,0,0.1l-2.5,4.5l0,0C12,14.9,11.8,15,11.5,15
			c-0.2,0-0.4-0.1-0.6-0.3l0,0l-2.4-4.5c0,0,0,0,0-0.1C8.3,9.7,8.2,9.3,8.2,8.8C8.2,7.1,9.7,5.6,11.5,5.6 M11.5,5.2
			c-2.1,0-3.8,1.6-3.8,3.7c0,0.5,0.1,1,0.3,1.5l0,0l2.6,4.7l0,0c0.2,0.3,0.5,0.5,0.9,0.5s0.8-0.2,0.9-0.5l0,0l2.5-4.7l0,0
			c0.2-0.5,0.4-1,0.4-1.5C15.4,6.8,13.7,5.2,11.5,5.2L11.5,5.2z"/>
	</g>
	<g>
		<path class="st4" d="M11.7,10.7c-1,0-1.8-0.8-1.8-1.8s0.8-1.8,1.8-1.8s1.8,0.8,1.8,1.8S12.7,10.7,11.7,10.7z"/>
		<path class="st2" d="M11.7,7.4c0.9,0,1.6,0.7,1.6,1.6s-0.7,1.6-1.6,1.6S10.1,9.9,10.1,9S10.8,7.4,11.7,7.4 M11.7,6.9
			c-1.1,0-2,0.9-2,2s0.9,2,2,2s2-0.9,2-2S12.8,6.9,11.7,6.9L11.7,6.9z"/>
	</g>
</g>
</svg>
