<?xml version="1.0" encoding="utf-8"?>
<!-- Generator: Adobe Illustrator 28.0.0, SVG Export Plug-In . SVG Version: 6.00 Build 0)  -->
<svg version="1.1" id="Warstwa_1" xmlns="http://www.w3.org/2000/svg" xmlns:xlink="http://www.w3.org/1999/xlink" x="0px" y="0px"
	 viewBox="0 0 144.5 177" style="enable-background:new 0 0 144.5 177;" xml:space="preserve">
<style type="text/css">
	.st0{fill:#FFFFFF;}
	.st1{fill:none;stroke:#0FCF5E;stroke-width:0.5669;stroke-miterlimit:22.9256;}
	.st2{fill:#30CF79;}
	.st3{fill:#58F9A2;}
</style>
<g>
	<g>
		
			<image style="overflow:visible;" width="629" height="738" xlink:href="D0384DC8E5DFCC34.png"  transform="matrix(0.24 0 0 0.24 -3.84 -0.12)">
		</image>
		<g>
			<path class="st0" d="M79.9,31.5l13.7,7.9c0.3,0.2,0.5,0.3,0.8,0.5l13,7.5c4.8,2.8,7.5,7.8,7.5,13h0.1v32c0,6.1-3.6,11.3-8.8,13.7
				l-12.6,7.3l0,0l-13.7,7.9l-7.9,20l-8-20.2l-13.2-7.6c-0.3-0.2-0.5-0.3-0.8-0.5l-13-7.5c-4.8-2.8-7.5-7.8-7.5-13h-0.1v-32
				c0-6.1,3.6-11.3,8.8-13.7l12.6-7.3l0,0l13.9-8C69.5,28.6,75.3,28.8,79.9,31.5z"/>
		</g>
	</g>
	<path class="st1" d="M79.9,31.5l13.7,7.9c0.3,0.2,0.5,0.3,0.8,0.5l13,7.5c4.8,2.8,7.5,7.8,7.5,13h0.1v32c0,6.1-3.6,11.3-8.8,13.7
		l-12.6,7.3l0,0l-13.7,7.9l-7.9,20l-8-20.2l-13.2-7.6c-0.3-0.2-0.5-0.3-0.8-0.5l-13-7.5c-4.8-2.8-7.5-7.8-7.5-13h-0.1v-32
		c0-6.1,3.6-11.3,8.8-13.7l12.6-7.3l0,0l13.9-8C69.5,28.6,75.3,28.8,79.9,31.5z"/>
	<g id="Warstwa_x0020_1_00000015356525321727355720000013085500051422461322_">
		<polygon class="st0" points="82.1,81.2 82.1,92.9 91.2,98.1 91.2,75.9 		"/>
		<polygon class="st2" points="72.2,109.2 82.1,103.4 82.1,81.2 91.2,75.9 91.2,98.1 100.4,92.9 100.4,60.3 88,67.4 72.2,76.6 		"/>
		<polygon class="st2" points="53.1,75.9 53.1,98.1 62.3,92.9 62.3,81.2 		"/>
		<polygon class="st0" points="53.1,75.9 62.3,81.2 62.3,103.4 72.2,109.2 72.2,76.6 44,60.3 44,92.9 53.1,98.1 		"/>
		<path class="st3" d="M62.4,60.3l9.7-5.6l9.7,5.6l-9.7,5.6L62.4,60.3z M100.4,60.3L100.4,60.3L72.2,44.1L44,60.3l28.2,16.3L88,67.4
			L100.4,60.3z"/>
		<polygon class="st2" points="72.2,54.7 62.4,60.3 72.2,65.9 		"/>
		<polygon class="st0" points="81.9,60.3 72.2,54.7 72.2,65.9 		"/>
	</g>
</g>
</svg>
