<svg width="81.5" height="104" xmlns="http://www.w3.org/2000/svg" version="1.1" xml:space="preserve">
 <defs>
  <filter height="200%" width="200%" y="-50%" x="-50%" id="svg_1_blur">
   <feGaussianBlur stdDeviation="4.3" in="SourceGraphic"/>
  </filter>
  <linearGradient spreadMethod="pad" y2="0.91486" x2="1" y1="0.30157" x1="1" id="svg_5">
   <stop offset="0.03906" stop-opacity="0.99609" stop-color="#000000"/>
   <stop offset="1" stop-color="#f0f0ff"/>
   <stop offset="1" stop-color="#f0f0ff"/>
  </linearGradient>
 </defs>
 <g>
  <title>Layer 1</title>
  <ellipse stroke="#fff" filter="url(#svg_1_blur)" fill-opacity="0.8" ry="30.75" rx="24" id="svg_1" cy="48.375" cx="42.875" fill="url(#svg_5)"/>
  <g id="svg_26" stroke="null">
   <g id="svg_16" stroke="null">
    <g id="svg_15" stroke="null">
     <path class="st0" d="m46.36772,16.06504l7.08754,4.08697c0.1552,0.10347 0.25867,0.15521 0.41387,0.25868l6.7254,3.88003c2.48323,1.44855 3.88004,4.03525 3.88004,6.72541l0.05174,0l0,16.55484c0,3.15577 -1.86242,5.84593 -4.55258,7.08754l-6.51847,3.77657l0,0l-7.08754,4.08698l-4.08698,10.34678l-4.13871,-10.45025l-6.82887,-3.93177c-0.1552,-0.10347 -0.25867,-0.15521 -0.41387,-0.25868l-6.7254,-3.88004c-2.48323,-1.44855 -3.88004,-4.03524 -3.88004,-6.7254l-0.05173,0l0,-16.55484c0,-3.15577 1.86242,-5.84593 4.55258,-7.08754l6.51847,-3.77657l0,0l7.19101,-4.13871c2.48323,-1.50028 5.48379,-1.39682 7.86355,0l-0.00001,0z" fill="#FFFFFF" id="svg_14" stroke="null"/>
    </g>
   </g>
   <path class="st1" d="m46.36772,16.06504l7.08754,4.08697c0.1552,0.10347 0.25867,0.15521 0.41387,0.25868l6.7254,3.88003c2.48323,1.44855 3.88004,4.03525 3.88004,6.72541l0.05174,0l0,16.55484c0,3.15577 -1.86242,5.84593 -4.55258,7.08754l-6.51847,3.77657l0,0l-7.08754,4.08698l-4.08698,10.34678l-4.13871,-10.45025l-6.82887,-3.93177c-0.1552,-0.10347 -0.25867,-0.15521 -0.41387,-0.25868l-6.7254,-3.88004c-2.48323,-1.44855 -3.88004,-4.03524 -3.88004,-6.7254l-0.05173,0l0,-16.55484c0,-3.15577 1.86242,-5.84593 4.55258,-7.08754l6.51847,-3.77657l0,0l7.19101,-4.13871c2.48323,-1.50028 5.48379,-1.39682 7.86355,0l-0.00001,0z" fill="none" stroke-width="0.5669" stroke-miterlimit="22.9256" id="svg_17" stroke="#0FCF5E"/>
   <g id="svg_25" stroke="null">
    <polygon class="st0" points="47.50586134195328,41.77677607536316 47.50586134195328,47.82964015007019 52.21364027261734,50.51980662345886 52.21364027261734,39.03487849235535 " fill="#FFFFFF" id="svg_18" stroke="null"/>
    <polygon class="st2" points="42.38420683145523,56.262261152267456 47.50586134195328,53.26170039176941 47.50586134195328,41.77677607536316 52.21364027261734,39.03487849235535 52.21364027261734,50.51980662345886 56.973165571689606,47.82964015007019 56.973165571689606,30.964394330978394 50.55816465616226,34.63750147819519 42.38420683145523,39.397019147872925 " fill="#30CF79" id="svg_19" stroke="null"/>
    <polygon class="st2" points="32.50303465127945,39.03487849235535 32.50303465127945,50.51980662345886 37.262552320957184,47.82964015007019 37.262552320957184,41.77677607536316 " fill="#30CF79" id="svg_20" stroke="null"/>
    <polygon class="st0" points="32.50303465127945,39.03487849235535 37.262552320957184,41.77677607536316 37.262552320957184,53.26170039176941 42.38420683145523,56.262261152267456 42.38420683145523,39.397019147872925 27.79525190591812,30.964394330978394 27.79525190591812,47.82964015007019 32.50303465127945,50.51980662345886 " fill="#FFFFFF" id="svg_21" stroke="null"/>
    <path class="st3" d="m37.31429,30.9644l5.01818,-2.8971l5.01819,2.8971l-5.01819,2.8971l-5.01818,-2.8971zm19.65888,0l0,0l-14.58896,-8.38089l-14.58896,8.38089l14.58896,8.43263l8.17395,-4.75952l6.41501,-3.6731l0,-0.00001z" fill="#58F9A2" id="svg_22" stroke="null"/>
    <polygon class="st2" points="42.38420683145523,28.06729769706726 37.31428724527359,30.964394330978394 42.38420683145523,33.861496686935425 " fill="#30CF79" id="svg_23" stroke="null"/>
    <polygon class="st0" points="47.40239530801773,30.964394330978394 42.38420683145523,28.06729769706726 42.38420683145523,33.861496686935425 " fill="#FFFFFF" id="svg_24" stroke="null"/>
   </g>
  </g>
 </g>
</svg>