<?xml version="1.0" encoding="UTF-8"?>
<svg id="Warstwa_1" data-name="Warstwa 1" xmlns="http://www.w3.org/2000/svg" viewBox="0 0 14.9 9.54">
  <defs>
    <style>
      .cls-1 {
        fill: #4fb15d;
        stroke-width: 0px;
      }
    </style>
  </defs>
  <path class="cls-1" d="m2.63,9.54c1.45,0,2.63-1.18,2.63-2.63,0-.08,0-.16-.01-.24l.49-.1c.16.3.48.5.84.5.53,0,.96-.43.96-.96,0-.08-.01-.16-.03-.24l3.05-1.87.33.68c-.74.47-1.23,1.29-1.23,2.22,0,1.45,1.18,2.63,2.63,2.63s2.63-1.18,2.63-2.63-1.18-2.63-2.63-2.63c-.32,0-.62.06-.9.16l-1.04-2.13,1.84-1.84c.08-.08.1-.2.06-.31-.04-.1-.15-.17-.26-.17h-1.76c-.15,0-.28.13-.28.28s.13.28.28.28h1.09l-1.42,1.42h-1.51c-.15,0-.28.13-.28.28s.13.28.28.28h1.45l.47.97-3.1,1.89c-.17-.15-.39-.24-.63-.24-.01,0-.03,0-.04,0l-.91-2.62h1.05c.15,0,.28-.13.28-.28s-.13-.28-.28-.28h-1.24l-.18-.51h.36c.15,0,.28-.13.28-.28s-.13-.28-.28-.28h-1.52c-.15,0-.28.13-.28.28s.13.28.28.28h.56l.24.69-1.27,2.33c-.31-.13-.64-.2-1-.2-1.45,0-2.63,1.18-2.63,2.63s1.18,2.63,2.63,2.63m9.4-2.5c.05.1.15.16.25.16.04,0,.08,0,.12-.03.14-.07.2-.24.13-.38l-.9-1.84c.2-.07.42-.1.65-.1,1.14,0,2.06.93,2.06,2.07s-.93,2.07-2.06,2.07-2.07-.93-2.07-2.07c0-.71.36-1.34.91-1.71l.9,1.84Zm-5.46-1.32c.22,0,.4.18.4.4s-.18.4-.4.4-.4-.18-.4-.4.18-.4.4-.4Zm-1.43-2.85l.86,2.48c-.21.16-.36.4-.38.67l-.48.1c-.18-.56-.54-1.04-1.01-1.37l1.02-1.89Zm-1.29,2.38c.33.24.59.59.73.98l-1.42.29.69-1.27Zm-1.22-.4c.26,0,.5.05.73.13l-.98,1.8c-.05.1-.04.21.02.3.05.07.14.11.23.11.02,0,.04,0,.06,0l2.01-.41s0,.09,0,.13c0,1.14-.93,2.07-2.07,2.07s-2.06-.93-2.06-2.07.93-2.07,2.06-2.07Z"/>
  <path class="cls-1" d="m2.63,8.25c.22,0,.44-.05.63-.16.14-.07.19-.24.11-.38-.07-.14-.24-.19-.38-.11-.11.06-.24.09-.36.09-.38,0-.7-.27-.76-.64-.03-.15-.17-.25-.32-.23-.15.03-.25.17-.23.32.11.64.66,1.1,1.31,1.1"/>
  <path class="cls-1" d="m1.58,6.61s.1.04.15.04c.09,0,.19-.05.24-.13,0-.01.02-.03.02-.04.09-.13.06-.3-.07-.39-.13-.09-.3-.06-.39.07-.01.02-.03.04-.04.06-.08.13-.04.3.09.39"/>
  <path class="cls-1" d="m12.69,8.17s.07,0,.11-.02c.6-.25.92-.9.78-1.53-.05-.21-.15-.41-.3-.58-.1-.12-.28-.13-.4-.02-.12.1-.13.28-.03.4.08.1.14.21.17.33.09.37-.1.74-.45.89-.14.06-.21.23-.15.37.04.11.15.17.26.17"/>
  <path class="cls-1" d="m11.79,8.16s.05.02.07.03c.03,0,.06.01.09.01.12,0,.23-.07.27-.19.05-.15-.03-.31-.18-.35-.01,0-.03,0-.04-.02-.14-.06-.31.01-.36.16-.06.14.01.31.16.36"/>
  <path class="cls-1" d="m7.45,2.54h.17c.15,0,.28-.13.28-.28s-.13-.28-.28-.28h-.17c-.15,0-.28.13-.28.28s.13.28.28.28"/>
  <path class="cls-1" d="m9.36.56h.09c.15,0,.28-.13.28-.28s-.12-.28-.28-.28h-.09c-.15,0-.28.13-.28.28s.13.28.28.28"/>
</svg>