<?xml version="1.0" encoding="utf-8"?>
<!-- Generator: Adobe Illustrator 28.0.0, SVG Export Plug-In . SVG Version: 6.00 Build 0)  -->
<svg version="1.1" id="Warstwa_1" xmlns="http://www.w3.org/2000/svg" xmlns:xlink="http://www.w3.org/1999/xlink" x="0px" y="0px"
	 viewBox="0 0 19.1 21.6" style="enable-background:new 0 0 19.1 21.6;" xml:space="preserve">
<style type="text/css">
	.st0{fill:#FFFFFF;stroke:#4FB15D;stroke-width:0.57;stroke-miterlimit:22.93;}
	.st1{fill:#4FB15D;}
</style>
<path class="st0" d="M11.2,1.2l3,1.7c0.1,0,0.1,0.1,0.2,0.1l2.8,1.6c1,0.6,1.6,1.7,1.6,2.8l0,0v7.1c0,1.3-0.8,2.5-1.9,3l-2.7,1.6
	l0,0l-3,1.7c-1.1,0.6-2.3,0.6-3.3,0l-3-1.7c-0.1,0-0.1-0.1-0.2-0.1l-2.8-1.6c-1-0.6-1.6-1.7-1.6-2.8l0,0V7.5c0-1.3,0.8-2.5,1.9-3
	l2.7-1.6l0,0l3-1.7C9,0.6,10.3,0.7,11.2,1.2L11.2,1.2z"/>
<path class="st1" d="M14.3,7.1c-0.3-0.3-0.6-0.5-1-0.7s-0.8-0.2-1.2-0.2s-0.8,0.1-1.2,0.2c-0.4,0.2-0.7,0.4-1,0.7L9.6,7.3L9.3,7.1
	C9,6.7,8.7,6.5,8.3,6.4C7.9,6.2,7.5,6.1,7.1,6.1S6.3,6.2,5.9,6.4c-0.4,0.1-0.7,0.4-1,0.7c-0.7,0.6-1,1.4-1,2.2s0.3,1.6,0.9,2.2
	l4.1,4.1c0.1,0.1,0.2,0.2,0.3,0.2c0.1,0.1,0.2,0.1,0.4,0.1s0.2,0,0.4-0.1c0.1,0,0.2-0.1,0.3-0.2l4.1-4.1c0.6-0.6,0.9-1.4,0.9-2.2
	S14.9,7.7,14.3,7.1 M13.9,11.2l-4.1,4.1l-0.1,0.1c-0.1,0-0.1,0-0.1,0H9.5l-0.1-0.1l-4.1-4.1c-0.3-0.3-0.5-0.6-0.6-0.9
	s-0.2-0.7-0.2-1s0.1-0.7,0.2-1C4.8,8,5,7.7,5.2,7.4S5.7,7,6.1,6.8s0.7-0.2,1-0.2s0.7,0.1,1,0.2C8.5,7,8.7,7.2,9,7.4l0.2,0.2
	c0.1,0.1,0.1,0.1,0.2,0.1s0.1,0.1,0.2,0.1s0.2,0,0.2-0.1S9.9,7.6,10,7.6l0.2-0.2c0.2-0.2,0.5-0.4,0.9-0.6s0.7-0.2,1-0.2
	s0.7,0.1,1,0.2s0.6,0.3,0.9,0.6s0.4,0.5,0.6,0.9c0.2,0.4,0.2,0.7,0.2,1v0.2H14h-0.1l-0.1,0.1L13.6,10l-0.8-1.9L12.7,8
	c0,0-0.1,0-0.1-0.1c-0.1,0-0.1,0-0.1,0L12.4,8l-0.9,1.4L11,9.2l-0.1-0.1h-0.1h-0.1c0,0-0.1,0-0.1,0.1l-0.4,0.3H9.6
	c-0.1,0-0.2,0-0.2,0.1S9.3,9.7,9.3,9.7s0,0.1,0.1,0.2C9.5,10,9.5,10,9.6,10h0.8h0.1c0,0,0.1,0,0.1-0.1l0.2-0.2l0.2,0.5l0.1,0.1h0.1
	l0,0h0.1l0.1-0.1l0.9-1.4l0.9,1.9l0.1,0.1h0.1l0,0h0.1l0.1-0.1L14,10h0.6v0.1c-0.1,0.2-0.1,0.4-0.3,0.6C14.1,10.8,14,11,13.9,11.2
	L13.9,11.2z"/>
</svg>
