<?xml version="1.0" encoding="utf-8"?>
<!-- Generator: Adobe Illustrator 28.0.0, SVG Export Plug-In . SVG Version: 6.00 Build 0)  -->
<svg version="1.1" id="Warstwa_1" xmlns="http://www.w3.org/2000/svg" xmlns:xlink="http://www.w3.org/1999/xlink" x="0px" y="0px"
	 width="19.1px" height="21px" viewBox="0 0 19.1 21" style="enable-background:new 0 0 19.1 21;" xml:space="preserve">
<style type="text/css">
	.st0{fill:#FFFFFF;stroke:#4FB15D;stroke-width:0.57;stroke-miterlimit:22.93;}
	.st1{fill:#4FB15D;}
	.st2{fill:#FFFFFF;}
</style>
<path class="st0" d="M11.2,0.7l3,1.7c0.1,0,0.1,0.1,0.2,0.1l2.8,1.6c1,0.6,1.6,1.7,1.6,2.8l0,0V14c0,1.3-0.8,2.5-1.9,3l-2.7,1.6l0,0
	l-3,1.7c-1.1,0.6-2.3,0.6-3.3,0l-3-1.7c-0.1,0-0.1-0.1-0.2-0.1l-2.8-1.6c-1-0.6-1.6-1.7-1.6-2.8l0,0V7c0-1.3,0.8-2.5,1.9-3l2.7-1.6
	l0,0l3-1.7C9,0.1,10.3,0.2,11.2,0.7L11.2,0.7z"/>
<path class="st1" d="M14.4,14.5V8.1c0-1.4-1.6-2-4.9-2c-3.3,0-4.9,0.7-4.9,2v6.4c0,1,0.8,1.9,1.9,1.9h0.6l0,0H12l0,0h0.6
	C13.6,16.4,14.4,15.5,14.4,14.5 M13.8,12H9.9V8.7h3.9V12z M9.6,6.7c1.9,0,4.2,0.2,4.2,1.4H5.3C5.3,7,7.6,6.7,9.6,6.7z M5.3,8.7h3.9
	V12H5.3V8.7z M6.5,15.7c-0.7,0-1.2-0.6-1.2-1.2v-1.9h8.5v1.9c0,0.7-0.6,1.2-1.2,1.2H6.5z"/>
<path class="st1" d="M6.9,13c-0.6,0-1,0.5-1,1c0,0.6,0.5,1,1,1c0.6,0,1-0.5,1-1C7.9,13.5,7.5,13,6.9,13 M6.9,14.5
	c-0.2,0-0.4-0.2-0.4-0.4c0-0.2,0.2-0.4,0.4-0.4c0.2,0,0.4,0.2,0.4,0.4C7.3,14.3,7.1,14.5,6.9,14.5z"/>
<path class="st1" d="M13.2,14.1c0-0.6-0.5-1-1-1c-0.6,0-1,0.5-1,1c0,0.6,0.5,1,1,1C12.8,15.1,13.2,14.6,13.2,14.1 M12.2,14.5
	c-0.2,0-0.4-0.2-0.4-0.4c0-0.2,0.2-0.4,0.4-0.4c0.2,0,0.4,0.2,0.4,0.4C12.6,14.3,12.4,14.5,12.2,14.5z"/>
<path class="st1" d="M11.7,6.2L13,4.5c0.1-0.1,0.1-0.3-0.1-0.4C12.9,4,12.8,4,12.8,4c-0.1,0-0.2,0-0.2,0.1L12,4.8c0,0,0,0-0.1,0H7.2
	c0,0,0,0-0.1,0L6.6,4.1C6.5,4.1,6.4,4,6.3,4C6.3,4,6.2,4,6.1,4.1C6,4.2,6,4.4,6.1,4.5l1.3,1.7H11.7z"/>
<polygon class="st2" points="7.6,5.5 8.2,6.2 10.9,6.2 11.5,5.5 "/>
<path class="st1" d="M7.8,16.1l0,0.6c0,0.2-0.1,0.3-0.3,0.3c-0.1,0-0.1,0-0.2-0.1c-0.1-0.1-0.1-0.1-0.1-0.2l0-0.6H7.8z"/>
<path class="st1" d="M11.9,16.1l0,0.6c0,0.2-0.1,0.3-0.3,0.3c-0.1,0-0.1,0-0.2-0.1c-0.1-0.1-0.1-0.1-0.1-0.2l0-0.6H11.9z"/>
</svg>
