<?xml version="1.0" encoding="utf-8"?>
<!-- Generator: Adobe Illustrator 28.0.0, SVG Export Plug-In . SVG Version: 6.00 Build 0)  -->
<svg version="1.1" id="Warstwa_1" xmlns="http://www.w3.org/2000/svg" xmlns:xlink="http://www.w3.org/1999/xlink" x="0px" y="0px"
	 viewBox="0 0 19.1 21.7" style="enable-background:new 0 0 19.1 21.7;" xml:space="preserve">
<style type="text/css">
	.st0{fill:#FFFFFF;stroke:#4FB15D;stroke-width:0.57;stroke-miterlimit:22.93;}
	.st1{fill:#4FB15D;}
	.st2{fill:#FFFFFF;stroke:#4FB15D;stroke-width:0.45;stroke-linecap:round;stroke-linejoin:round;stroke-miterlimit:22.93;}
	.st3{fill:#FFFFFF;}
</style>
<path class="st0" d="M11.2,1l3,1.7c0.1,0,0.1,0.1,0.2,0.1l2.8,1.6c1,0.6,1.6,1.7,1.6,2.8l0,0v7.1c0,1.3-0.8,2.5-1.9,3l-2.7,1.6l0,0
	l-3,1.7c-1.1,0.6-2.3,0.6-3.3,0l-3-1.7c-0.1,0-0.1-0.1-0.2-0.1l-2.8-1.6c-1-0.6-1.6-1.7-1.6-2.8l0,0V7.3c0-1.3,0.8-2.5,1.9-3
	l2.7-1.6l0,0l3-1.7C9,0.4,10.3,0.5,11.2,1L11.2,1z"/>
<g>
	<path class="st1" d="M9.1,11.4c0.4,0,0.8-0.4,0.8-0.8S9.5,9.8,9.1,9.8s-0.8,0.4-0.8,0.8S8.6,11.4,9.1,11.4 M9.1,10.2
		c0.2,0,0.4,0.2,0.4,0.4S9.3,11,9.1,11s-0.4-0.2-0.4-0.4S8.8,10.2,9.1,10.2z"/>
	<path class="st1" d="M5.9,11.4c0.4,0,0.8-0.4,0.8-0.8S6.3,9.8,5.9,9.8s-0.8,0.4-0.8,0.8S5.4,11.4,5.9,11.4 M5.9,10.2
		c0.2,0,0.4,0.2,0.4,0.4S6.1,11,5.9,11s-0.4-0.2-0.4-0.4S5.6,10.2,5.9,10.2z"/>
	<path class="st1" d="M8.6,5.4H6.1C6,5.4,5.9,5.5,5.9,5.6S6,5.8,6.1,5.8h2.5c0.1,0,0.2-0.1,0.2-0.2S8.7,5.4,8.6,5.4"/>
	<path class="st1" d="M2,15.5L2,15.5c0.2,0,0.2,0,0.3-0.1L2.6,15h5.9c0.1,0,0.2-0.1,0.2-0.2s-0.2-0.3-0.3-0.3H2.7l0.4-0.8h1.5
		c0.1,0,0.2-0.1,0.2-0.2s0-0.2-0.1-0.2H3.4l0.7-1.2c0.3,0.3,0.8,0.4,1.3,0.4h4c0.5,0,0.9-0.2,1.3-0.4l0.7,1.2H6.2
		c-0.1,0-0.2,0.1-0.2,0.2s0.1,0.2,0.2,0.2h5.3l0.4,0.8h-2c-0.1,0-0.2,0.1-0.2,0.2s0.1,0.2,0.2,0.2h2.2l0.3,0.4
		c0,0.1,0.1,0.1,0.2,0.1h0.1c0.1-0.1,0.1-0.2,0.1-0.3l-1.9-3.3c0.3-0.4,0.5-0.8,0.5-1.3v-4c0-1.1-0.9-2.1-2.1-2.1h-4
		c-1.1,0.1-2,1-2,2.1v4c0,0.5,0.2,1,0.5,1.3l-1.9,3.3C1.8,15.3,1.9,15.4,2,15.5 M5.4,4.9h4c0.8,0,1.5,0.6,1.6,1.5H3.7
		C3.8,5.5,4.5,4.9,5.4,4.9L5.4,4.9z M3.7,6.8H11v1.9H3.7V6.8z M3.7,10.5V9.1H11v1.4c0,0.4-0.2,0.8-0.4,1.1l0,0
		c-0.3,0.3-0.7,0.5-1.1,0.5h-4c-0.4,0-0.9-0.2-1.2-0.5l0,0C3.9,11.4,3.7,11,3.7,10.5L3.7,10.5z"/>
	<path class="st1" d="M5.3,13.3c-0.1,0-0.2,0.1-0.2,0.2s0.1,0.2,0.2,0.2h0.1c0.1,0,0.2-0.1,0.2-0.2S5.5,13.3,5.3,13.3L5.3,13.3z"/>
	<path class="st1" d="M9.2,14.5c-0.1,0-0.2,0.1-0.2,0.2s0.1,0.2,0.2,0.2h0.1c0.1,0,0.2-0.1,0.2-0.2s-0.1-0.2-0.2-0.2H9.2z"/>
</g>
<g>
	<ellipse class="st2" cx="12.8" cy="15.9" rx="3.8" ry="0.9"/>
	<g>
		<g>
			<path class="st3" d="M12.8,15.9c-0.3,0-0.6-0.2-0.7-0.4l0,0l-2.5-4.6c0,0,0,0,0-0.1c-0.3-0.4-0.4-0.9-0.4-1.4
				c0-1.9,1.6-3.5,3.6-3.5s3.6,1.5,3.6,3.5c0,0.5-0.1,1-0.3,1.4l0,0l-2.5,4.6l0,0C13.4,15.8,13.2,15.9,12.8,15.9z"/>
			<path class="st1" d="M12.8,6.2c1.9,0,3.4,1.4,3.4,3.2c0,0.5-0.1,0.9-0.3,1.3c0,0,0,0,0,0.1l-2.5,4.5l0,0
				c-0.1,0.2-0.3,0.3-0.6,0.3c-0.2,0-0.4-0.1-0.6-0.3l0,0l-2.4-4.5c0,0,0,0,0-0.1c-0.2-0.4-0.3-0.8-0.3-1.3C9.5,7.7,11,6.2,12.8,6.2
				 M12.8,5.8C10.7,5.8,9,7.4,9,9.5c0,0.5,0.1,1,0.3,1.5l0,0l2.6,4.7l0,0c0.2,0.3,0.5,0.5,0.9,0.5s0.8-0.2,0.9-0.5l0,0l2.5-4.7l0,0
				c0.2-0.5,0.4-1,0.4-1.5C16.7,7.4,15,5.8,12.8,5.8L12.8,5.8z"/>
		</g>
		<g>
			<path class="st3" d="M13,11.3c-1,0-1.8-0.8-1.8-1.8S12,7.7,13,7.7s1.8,0.8,1.8,1.8S14,11.3,13,11.3z"/>
			<path class="st1" d="M13,8c0.9,0,1.6,0.7,1.6,1.6s-0.7,1.6-1.6,1.6s-1.6-0.7-1.6-1.6S12.1,8,13,8 M13,7.5c-1.1,0-2,0.9-2,2
				s0.9,2,2,2s2-0.9,2-2S14.1,7.5,13,7.5L13,7.5z"/>
		</g>
	</g>
</g>
</svg>
