<?xml version="1.0" encoding="utf-8"?>
<!-- Generator: Adobe Illustrator 28.0.0, SVG Export Plug-In . SVG Version: 6.00 Build 0)  -->
<svg version="1.1" id="Warstwa_1" xmlns="http://www.w3.org/2000/svg" xmlns:xlink="http://www.w3.org/1999/xlink" x="0px" y="0px"
	 viewBox="0 0 19.1 21.7" style="enable-background:new 0 0 19.1 21.7;" xml:space="preserve">
<style type="text/css">
	.st0{fill:#FFFFFF;stroke:#4FB15D;stroke-width:0.57;stroke-miterlimit:22.93;}
	.st1{fill:#4FB15D;}
</style>
<path class="st0" d="M11.2,0.9l3,1.7c0.1,0,0.1,0.1,0.2,0.1l2.8,1.6c1,0.6,1.6,1.7,1.6,2.8l0,0v7.1c0,1.3-0.8,2.5-1.9,3l-2.7,1.6
	l0,0l-3,1.7c-1.1,0.6-2.3,0.6-3.3,0l-3-1.7c-0.1,0-0.1-0.1-0.2-0.1l-2.8-1.6c-1-0.6-1.6-1.7-1.6-2.8l0,0V7.2c0-1.3,0.8-2.5,1.9-3
	l2.7-1.6l0,0l3-1.7C9,0.3,10.3,0.4,11.2,0.9L11.2,0.9z"/>
<g>
	<path class="st1" d="M15.9,8.3L9.7,4.6H9.6H9.5L3.3,8.3L3.2,8.4v0.1v0.1c0,0,0,0.1,0.1,0.1l6.1,4.1h0.1h0.1c0.1,0,0.1,0,0.1,0
		l2.8-1.9v1.8h-0.1c-0.2,0.1-0.3,0.2-0.4,0.3c-0.1,0.1-0.1,0.3-0.1,0.5S12,13.8,12,14c0.1,0.1,0.2,0.2,0.4,0.3h0.1l-0.5,2v0.1
		c0,0,0,0.1,0.1,0.1l0.1,0.1h0.1h1.2h0.1c0,0,0.1,0,0.1-0.1c0,0,0-0.1,0.1-0.1v-0.1l-0.6-2h0.1c0.1-0.1,0.3-0.2,0.4-0.3
		c0.1-0.1,0.1-0.3,0.1-0.5s-0.1-0.4-0.1-0.5c-0.1-0.1-0.2-0.3-0.4-0.3h-0.1v-2.2L16,8.6l0.1-0.1V8.4V8.3C15.9,8.4,15.9,8.3,15.9,8.3
		 M13.1,13.7c0,0.1,0,0.2-0.1,0.2S12.9,14,12.8,14s-0.2,0-0.2-0.1s-0.1-0.1-0.1-0.2c0-0.1,0-0.2,0.1-0.2c0.1-0.1,0.1-0.1,0.2-0.1
		h0.1c0.1,0,0.2,0.1,0.2,0.1S13.1,13.6,13.1,13.7z M12.5,16.2l0.2-0.9l0.3,1h-0.6L12.5,16.2L12.5,16.2z M12.8,10.1l-2.3-1.5
		c-0.1,0-0.1-0.1-0.2,0c-0.1,0-0.1,0.1-0.2,0.1c0,0.1-0.1,0.1,0,0.2s0.1,0.1,0.1,0.2l2.2,1.4c-0.9,0.6-1.8,1.2-2.8,1.8L3.9,8.6
		c1.9-1.2,3.8-2.3,5.7-3.4l5.7,3.4C14.4,9.1,13.6,9.6,12.8,10.1L12.8,10.1L12.8,10.1z"/>
	<path class="st1" d="M14.2,10.8c-0.1,0-0.1,0-0.2,0.1c-0.1,0.1-0.1,0.1-0.1,0.2v1.4c0,0.1,0,0.1,0.1,0.2c0.1,0.1,0.1,0.1,0.2,0.1
		s0.1,0,0.2-0.1c0.1-0.1,0.1-0.1,0.1-0.2v-1.4c0-0.1,0-0.1-0.1-0.2C14.3,10.9,14.3,10.8,14.2,10.8"/>
	<path class="st1" d="M11.3,15.1H7.6c-0.7,0-1.3-0.2-1.7-0.7c-0.4-0.4-0.7-1-0.7-1.6v-1.7c0-0.1,0-0.1-0.1-0.2
		C5,10.8,5,10.8,4.9,10.8s-0.1,0-0.2,0.1S4.6,11,4.6,11.1v1.7c0,0.8,0.3,1.5,0.9,2s1.3,0.8,2.1,0.8h3.6c0.1,0,0.1,0,0.2-0.1
		c0.1-0.1,0.1-0.1,0.1-0.2s0-0.1-0.1-0.2C11.4,15.1,11.3,15.1,11.3,15.1"/>
</g>
</svg>
